<?xml version="1.0" standalone="no"?>
<!DOCTYPE svg PUBLIC "-//W3C//DTD SVG 1.1//EN" "http://www.w3.org/Graphics/SVG/1.1/DTD/svg11.dtd" >
<svg>
<metadata>
Created by FontForge 20090914 at Wed Dec 14 05:02:24 2016
 By www-data
Font data copyright Google 2014
</metadata>
<defs>
<font id="Roboto-Regular" horiz-adv-x="1336" >
  <font-face 
    font-family="Roboto"
    font-weight="400"
    font-stretch="normal"
    units-per-em="2048"
    panose-1="0 0 0 0 0 0 0 0 0 0"
    ascent="1536"
    descent="-512"
    x-height="1082"
    cap-height="1456"
    bbox="-1394.99 -554.995 2352 2163"
    underline-thickness="100"
    underline-position="-100"
    unicode-range="U+0002-U+FFFD"
  />
<missing-glyph horiz-adv-x="507" 
 />
    <glyph glyph-name="fi" unicode="fi" horiz-adv-x="1134" 
d="M202 0l-0.00195312 939.002h-171v143h171v94c0 61.333 9.16699 115.666 27.5 162.999s44.5 87.166 78.5 119.499s75.5 56.833 124.5 73.5s104.167 25 165.5 25c48.667 0 95.834 -5.83301 141.501 -17.5s92.834 -26.167 141.501 -43.5l-31 -156
c-30 12 -65.167 23.333 -105.5 34s-84.5 16 -132.5 16c-79.333 0 -136.5 -17.833 -171.5 -53.5s-52.5 -89.167 -52.5 -160.5v-94h221v-143h-221v-939h-186zM972.998 0.00195312h-186v1082h186v-1082z" />
    <glyph glyph-name=".notdef" horiz-adv-x="507" 
 />
    <glyph glyph-name="uni0009" horiz-adv-x="0" 
 />
    <glyph glyph-name="uni0009" horiz-adv-x="0" 
 />
    <glyph glyph-name="uni0002" horiz-adv-x="0" 
 />
    <glyph glyph-name="nonmarkingreturn" unicode="&#xd;" horiz-adv-x="507" 
 />
    <glyph glyph-name="space" unicode=" " horiz-adv-x="507" 
 />
    <glyph glyph-name="exclam" unicode="!" horiz-adv-x="527" 
d="M347 411h-167l-13 1045h194zM160 93c0 30 9.16699 55.167 27.5 75.5s45.5 30.5 81.5 30.5s63.333 -10.167 82 -30.5s28 -45.5 28 -75.5s-9.33301 -54.833 -28 -74.5s-46 -29.5 -82 -29.5s-63.167 9.83301 -81.5 29.5s-27.5 44.5 -27.5 74.5z" />
    <glyph glyph-name="quotedbl" unicode="&#x22;" horiz-adv-x="655" 
d="M277 1400l-30 -358h-111l1 348v146h140v-136zM547 1400l-30 -358h-111l1 356v138h140v-136z" />
    <glyph glyph-name="numbersign" unicode="#" horiz-adv-x="1275" 
d="M716 410h-264l-80 -410h-143l80 410h-239v137h265l69 354h-258v139h285l82 416h143l-82 -416h264l82 416h144l-82 -416h204v-139h-231l-69 -354h225v-137h-251l-80 -410h-144zM478 547h264l69 354h-264z" />
    <glyph glyph-name="dollar" unicode="$" horiz-adv-x="1150" 
d="M856 375c0 30 -5.00098 57.6709 -15.001 83.0039s-26.167 49 -48.5 71s-51.333 42.333 -87 61s-79.5 36.667 -131.5 54c-63.333 19.333 -120.166 41.833 -170.499 67.5s-93.166 55.834 -128.499 90.501s-62.333 74.667 -81 120s-28 97.666 -28 156.999
c0 55.333 8.33301 105.833 25 151.5s40.5 85.334 71.5 119.001s68.5 61 112.5 82s93.667 34.833 149 41.5v219h149v-220c112 -15.333 199.167 -62.333 261.5 -141s93.5 -186.334 93.5 -323.001h-184c0 44.667 -5.33301 85.667 -16 123s-26.5 69.666 -47.5 96.999
s-47 48.666 -78 63.999s-66.5 23 -106.5 23c-42 0 -78.333 -5.66699 -109 -17s-56 -27.166 -76 -47.499s-35 -44.833 -45 -73.5s-15 -60.334 -15 -95.001c0 -32 4.66699 -60.833 14 -86.5s25 -49.167 47 -70.5s51.333 -41.5 88 -60.5s82.667 -37.5 138 -55.5
c64 -20.667 121 -43.834 171 -69.501s92.167 -55.5 126.5 -89.5s60.5 -73.333 78.5 -118s27 -96.334 27 -155.001c0 -58 -9 -110 -27 -156s-43.833 -85.667 -77.5 -119s-74.334 -60 -122.001 -80s-100.834 -33 -159.501 -39v-191h-148v191
c-51.333 4.66699 -100.833 16.334 -148.5 35.001s-90 45.667 -127 81s-66.5 80.166 -88.5 134.499s-33 119.5 -33 195.5h185c0 -56.667 8.33301 -103.667 25 -141s38.5 -67 65.5 -89s57 -37.333 90 -46s66.167 -13 99.5 -13c44.667 0 84.334 5.5 119.001 16.5
s64 26.667 88 47s42.333 45 55 74s19 61.5 19 97.5z" />
    <glyph glyph-name="percent" unicode="%" horiz-adv-x="1500" 
d="M105 1176c0 41.333 6.83301 80.166 20.5 116.499s33.334 68.166 59.001 95.499s57 49 94 65s78.5 24 124.5 24c46.667 0 88.5 -8 125.5 -24s68.167 -37.667 93.5 -65s44.833 -59.166 58.5 -95.499s20.5 -75.166 20.5 -116.499v-77c0 -40.667 -6.66699 -79.167 -20 -115.5
s-32.833 -68 -58.5 -95s-56.834 -48.5 -93.501 -64.5s-78 -24 -124 -24c-46.667 0 -88.5 8 -125.5 24s-68.5 37.5 -94.5 64.5s-45.833 58.667 -59.5 95s-20.5 74.833 -20.5 115.5v77zM243 1099c0 -23.333 3.33496 -45.667 10.002 -67s16.667 -40.333 30 -57
s30.166 -30 50.499 -40s44.166 -15 71.499 -15c26.667 0 50 5 70 15s36.5 23.167 49.5 39.5s22.667 35.333 29 57s9.5 44.167 9.5 67.5v77c0 23.333 -3.33301 45.833 -10 67.5s-16.5 40.834 -29.5 57.501s-29.667 30 -50 40s-43.833 15 -70.5 15c-27.333 0 -51 -5 -71 -15
s-36.5 -23.333 -49.5 -40s-22.833 -35.834 -29.5 -57.501s-10 -44.167 -10 -67.5v-77zM814.002 356.999c0 40.667 6.83301 79.334 20.5 116.001s33.334 68.5 59.001 95.5s57 48.5 94 64.5s78.5 24 124.5 24c46.667 0 88.5 -8 125.5 -24s68.333 -37.5 94 -64.5
s45.334 -58.833 59.001 -95.5s20.5 -75.334 20.5 -116.001v-78c0 -41.333 -6.83301 -80.166 -20.5 -116.499s-33.334 -68 -59.001 -95s-56.834 -48.5 -93.501 -64.5s-78 -24 -124 -24c-46.667 0 -88.5 8 -125.5 24s-68.5 37.5 -94.5 64.5s-45.833 58.667 -59.5 95
s-20.5 75.166 -20.5 116.499v78zM952.002 278.999c0 -23.333 3.33496 -45.833 10.002 -67.5s16.667 -40.834 30 -57.501s30.166 -30 50.499 -40s44.166 -15 71.499 -15c26.667 0 50 5 70 15s36.5 23.333 49.5 40s22.667 35.834 29 57.501s9.5 44.167 9.5 67.5v78
c0 23.333 -3.33301 45.833 -10 67.5s-16.5 40.667 -29.5 57s-29.667 29.5 -50 39.5s-43.833 15 -70.5 15s-50 -5 -70 -15s-36.667 -23.167 -50 -39.5s-23.333 -35.333 -30 -57s-10 -44.167 -10 -67.5v-78zM447.004 109.999l-105 66l711 1138l105 -66z" />
    <glyph glyph-name="ampersand" unicode="&#x26;" horiz-adv-x="1273" 
d="M101 391c0 44 6.83203 83.833 20.499 119.5s33 69.334 58 101.001s54.833 61.834 89.5 90.501s72.667 57.667 114 87c-24.667 30 -47 58.667 -67 86s-37.167 54.5 -51.5 81.5s-25.333 54.167 -33 81.5s-11.5 55.333 -11.5 84c0 56.667 8.66699 107 26 151s42 81 74 111
s70.333 52.833 115 68.5s94.334 23.5 149.001 23.5c53.333 0 101.333 -8.33301 144 -25s79 -39 109 -67s53 -60.667 69 -98s24 -76.666 24 -117.999c0 -35.333 -4.83301 -67.5 -14.5 -96.5s-23.167 -56.333 -40.5 -82s-38.166 -49.667 -62.499 -72
s-50.833 -44.5 -79.5 -66.5l-110 -81l324 -387c21.333 40.667 38 85.167 50 133.5s18 100.166 18 155.499h167c0 -83.333 -10 -160.333 -30 -231s-51 -134.667 -93 -192l208 -249h-222l-97 115c-25.333 -22.667 -53 -42.5 -83 -59.5s-61.167 -31 -93.5 -42
s-65.5 -19.333 -99.5 -25s-67.333 -8.5 -100 -8.5c-72.667 0 -138.167 10.167 -196.5 30.5s-107.833 48.666 -148.5 84.999s-71.834 79.666 -93.501 129.999s-32.5 105.5 -32.5 165.5zM571.999 131c48 0 94.999 9.66895 140.999 29.002s88.667 47 128 83l-355 425l-42 -31
c-36 -26.667 -64.5 -52.5 -85.5 -77.5s-36.833 -48.167 -47.5 -69.5s-17.5 -40.5 -20.5 -57.5s-4.5 -30.833 -4.5 -41.5c0 -35.333 5.83301 -68.833 17.5 -100.5s29.334 -59.334 53.001 -83.001s53.5 -42.334 89.5 -56.001s78 -20.5 126 -20.5zM404.998 1128
c0 -36.667 10.668 -74.832 32.001 -114.499s50 -81.5 86 -125.5l105 74c20.667 14 39.167 28 55.5 42s30.166 29 41.499 45s19.833 33.5 25.5 52.5s8.5 41.167 8.5 66.5c0 20 -3.83301 39.333 -11.5 58s-19 35.167 -34 49.5s-33.5 26 -55.5 35s-47 13.5 -75 13.5
c-29.333 0 -55 -5.16699 -77 -15.5s-40.5 -24.5 -55.5 -42.5s-26.333 -38.833 -34 -62.5s-11.5 -48.834 -11.5 -75.501z" />
    <glyph glyph-name="quotesingle" unicode="'" horiz-adv-x="357" 
d="M253 1425l-21 -368h-129l1 352v127h149v-111z" />
    <glyph glyph-name="parenleft" unicode="(" horiz-adv-x="700" 
d="M133 591c0 96.667 7.66797 187.499 23.001 272.499s35.833 163.5 61.5 235.5s55.334 137.667 89.001 197s68.667 111.666 105 156.999s72.666 84 108.999 116s70.5 56.667 102.5 74l38 -122c-39.333 -30 -79.166 -71.333 -119.499 -124s-77.166 -117.5 -110.499 -194.5
s-60.5 -166.167 -81.5 -267.5s-31.5 -215.333 -31.5 -342v-14c0 -126.667 10.5 -240.667 31.5 -342s48.167 -190.666 81.5 -267.999s70.166 -143 110.499 -197s80.166 -97 119.499 -129l-38 -113c-31.333 17.333 -65.333 42 -102 74s-73.167 70.833 -109.5 116.5
s-71.333 97.834 -105 156.501s-63.334 124 -89.001 196s-46.167 150.333 -61.5 235s-23 175.667 -23 273v10z" />
    <glyph glyph-name="parenright" unicode=")" horiz-adv-x="712" 
d="M567 581c0 -97.333 -7.66699 -188.334 -23 -273.001s-35.833 -163 -61.5 -235s-55.334 -137.333 -89.001 -196s-68.667 -110.834 -105 -156.501s-72.833 -84.5 -109.5 -116.5s-70.667 -56.667 -102 -74l-39 113c39.333 30 79.333 71.833 120 125.5
s77.5 119.5 110.5 197.5s60 168 81 270s31.5 216.333 31.5 343v14c0 126.667 -11.167 241.334 -33.5 344.001s-50.5 193 -84.5 271s-71 143.833 -111 197.5s-78 95.167 -114 124.5l39 113c31.333 -17.333 65.333 -42 102 -74s73.167 -70.667 109.5 -116
s71.333 -97.666 105 -156.999s63.334 -125 89.001 -197s46.167 -150.5 61.5 -235.5s23 -175.833 23 -272.5v-10z" />
    <glyph glyph-name="asterisk" unicode="*" horiz-adv-x="882" 
d="M330 983l-302 90l46 151l302 -112l-9 344h153l-10 -349l297 110l46 -152l-307 -91l198 -271l-124 -94l-186 288l-180 -281l-125 91z" />
    <glyph glyph-name="plus" unicode="+" horiz-adv-x="1161" 
d="M670 781h406v-175h-406v-460h-186v460h-406v175h406v425h186v-425z" />
    <glyph glyph-name="comma" unicode="," horiz-adv-x="402" 
d="M308 71c0 -30 -3.83301 -61.333 -11.5 -94s-19 -65 -34 -97s-33.167 -62.667 -54.5 -92s-46 -55.333 -74 -78l-105 72c31.333 44 55.5 89.167 72.5 135.5s25.5 96.5 25.5 150.5v151h181v-148z" />
    <glyph glyph-name="hyphen" unicode="-" horiz-adv-x="565" 
d="M525 543h-488v151h488v-151z" />
    <glyph glyph-name="period" unicode="." horiz-adv-x="539" 
d="M144 97c0 32 9.5 58.667 28.5 80s47.5 32 85.5 32s66.833 -10.667 86.5 -32s29.5 -48 29.5 -80c0 -30.667 -9.83301 -56.334 -29.5 -77.001s-48.5 -31 -86.5 -31s-66.5 10.333 -85.5 31s-28.5 46.334 -28.5 77.001z" />
    <glyph glyph-name="slash" unicode="/" horiz-adv-x="844" 
d="M177 -125h-159l608 1581h158z" />
    <glyph glyph-name="zero" unicode="0" horiz-adv-x="1150" 
d="M1034 621c0 -119.333 -10.668 -219.833 -32.001 -301.5s-51.833 -147.667 -91.5 -198s-87.667 -86.5 -144 -108.5s-119.833 -33 -190.5 -33c-70 0 -133.333 11 -190 33s-105 58.167 -145 108.5s-71 116.333 -93 198s-33 182.167 -33 301.5v222
c0 119.333 10.833 219.333 32.5 300s52.5 145.667 92.5 195s88.167 84.666 144.5 105.999s119.5 32 189.5 32c70.667 0 134.334 -10.667 191.001 -32s105 -56.666 145 -105.999s70.667 -114.333 92 -195s32 -180.667 32 -300v-222zM848.999 874
c0 82 -5.83398 151.667 -17.501 209s-29.167 103.833 -52.5 139.5s-52.166 61.5 -86.499 77.5s-73.833 24 -118.5 24c-44 0 -83.167 -8 -117.5 -24s-63 -41.833 -86 -77.5s-40.5 -82.167 -52.5 -139.5s-18 -127 -18 -209v-282c0 -81.333 6 -151.166 18 -209.499
s29.833 -106.166 53.5 -143.499s52.667 -64.666 87 -81.999s73.5 -26 117.5 -26c45.333 0 85 8.66699 119 26s62.5 44.666 85.5 81.999s40.167 85.166 51.5 143.499s17 128.166 17 209.499v282z" />
    <glyph glyph-name="one" unicode="1" horiz-adv-x="1150" 
d="M729 0h-186v1233l-373 -137v168l530 199h29v-1463z" />
    <glyph glyph-name="two" unicode="2" horiz-adv-x="1150" 
d="M1075 0l-954.002 -0.00195312v133l477 530c44 48.667 80.5 91.667 109.5 129s52 71.5 69 102.5s28.833 60 35.5 87s10 54.5 10 82.5c0 36 -5.66699 69.833 -17 101.5s-27.666 59.167 -48.999 82.5s-47.666 41.833 -78.999 55.5s-67.333 20.5 -108 20.5
c-49.333 0 -92.166 -7.33301 -128.499 -22s-66.5 -35 -90.5 -61s-42 -57.167 -54 -93.5s-18 -76.5 -18 -120.5h-185c0 61.333 10.167 119.333 30.5 174s50.5 102.334 90.5 143.001s89.667 72.834 149 96.501s128 35.5 206 35.5c68.667 0 130.167 -9.33301 184.5 -28
s100.333 -45.167 138 -79.5s66.5 -75.5 86.5 -123.5s30 -101 30 -159c0 -42.667 -7.33301 -85.667 -22 -129s-34.334 -86.5 -59.001 -129.5s-53.667 -85.667 -87 -128s-68.333 -83.833 -105 -124.5l-391 -424h731v-151z" />
    <glyph glyph-name="three" unicode="3" horiz-adv-x="1150" 
d="M390 818l132.001 0.00195312c48 0 90 6.33301 126 19s66 30.167 90 52.5s42 48.666 54 78.999s18 63.5 18 99.5c0 83.333 -21 146.833 -63 190.5s-106 65.5 -192 65.5c-39.333 0 -75.166 -5.83301 -107.499 -17.5s-60 -28.334 -83 -50.001s-40.833 -48 -53.5 -79
s-19 -65.5 -19 -103.5h-185c0 56 10.667 108.333 32 157s51.666 91.167 90.999 127.5s86.5 65 141.5 86s116.167 31.5 183.5 31.5c66 0 126 -8.83301 180 -26.5s100.167 -43.667 138.5 -78s68.166 -77.166 89.499 -128.499s32 -111 32 -179c0 -27.333 -4.5 -56 -13.5 -86
s-22.667 -59.333 -41 -88s-42 -55.5 -71 -80.5s-63.5 -45.833 -103.5 -62.5c48 -15.333 88.167 -35.5 120.5 -60.5s58.166 -52.833 77.499 -83.5s33 -63 41 -97s12 -67.333 12 -100c0 -68 -11.667 -128.5 -35 -181.5s-55.666 -97.5 -96.999 -133.5s-90 -63.5 -146 -82.5
s-117 -28.5 -183 -28.5c-63.333 0 -123 8.83301 -179 26.5s-105 43.667 -147 78s-75.167 76.666 -99.5 126.999s-36.5 107.833 -36.5 172.5h186c0 -38 6.33301 -72.5 19 -103.5s31 -57.667 55 -80s53 -39.5 87 -51.5s72.333 -18 115 -18s81 5.5 115 16.5s63 27.833 87 50.5
s42.333 51 55 85s19 73.667 19 119s-7.33301 84.666 -22 117.999s-35.5 60.833 -62.5 82.5s-59.5 37.834 -97.5 48.501s-80.667 16 -128 16h-132v151z" />
    <glyph glyph-name="four" unicode="4" horiz-adv-x="1150" 
d="M902 489h202v-151h-202v-338h-186v338h-663v109l652 1009h197v-967zM263 489h453v714l-22 -40z" />
    <glyph glyph-name="five" unicode="5" horiz-adv-x="1150" 
d="M206 730l74 726.002h746v-171h-589l-44 -397c26 15.333 59.5 29.666 100.5 42.999s88.5 20 142.5 20c66.667 0 126.834 -11.5 180.501 -34.5s99.167 -55.667 136.5 -98s66 -93.5 86 -153.5s30 -127 30 -201c0 -70 -9.5 -134.5 -28.5 -193.5s-47.5 -110 -85.5 -153
s-85.833 -76.667 -143.5 -101s-125.5 -36.5 -203.5 -36.5c-58.667 0 -114.167 8.16699 -166.5 24.5s-98.833 41.166 -139.5 74.499s-74 75.333 -100 126s-42 110 -48 178h175c11.333 -83.333 41 -146.166 89 -188.499s111.333 -63.5 190 -63.5c44 0 83 7.66699 117 23
s62.833 37.333 86.5 66s41.667 63.5 54 104.5s18.5 86.833 18.5 137.5c0 45.333 -6.33301 87.666 -19 126.999s-31.334 73.5 -56.001 102.5s-55.167 51.833 -91.5 68.5s-77.833 25 -124.5 25c-31.333 0 -58.333 -2.16699 -81 -6.5s-43 -10.5 -61 -18.5
s-34.5 -17.833 -49.5 -29.5l-47.5 -38.5z" />
    <glyph glyph-name="six" unicode="6" horiz-adv-x="1149" 
d="M846 1457l0.000976562 -157.005h-17c-88.667 0 -164 -13.333 -226 -40s-113 -62.167 -153 -106.5s-70.333 -95.166 -91 -152.499s-33.667 -116.666 -39 -177.999c40 46 86.833 79.5 140.5 100.5s111.5 31.5 173.5 31.5c72.667 0 135.167 -13.833 187.5 -41.5
s95.5 -64 129.5 -109s59.167 -96.167 75.5 -153.5s24.5 -116 24.5 -176c0 -69.333 -9.66699 -134.166 -29 -194.499s-48 -112.666 -86 -156.999s-85 -79.333 -141 -105s-121 -38.5 -195 -38.5c-78.667 0 -147.334 16.333 -206.001 49s-107.5 75.5 -146.5 128.5
s-68.167 112.833 -87.5 179.5s-29 133.667 -29 201v87c0 68 4.16699 135.833 12.5 203.5s22.833 132.334 43.5 194.001s48.167 119 82.5 172s77.333 99 129 138s113 69.5 184 91.5s153.167 33 246.5 33h17zM603.001 800.995c-32.667 0 -64 -5.16699 -94 -15.5
s-57.5 -24.5 -82.5 -42.5s-47 -39.167 -66 -63.5s-33.5 -50.5 -43.5 -78.5v-68c0 -65.333 7.83301 -122.833 23.5 -172.5s36.667 -91.334 63 -125.001s56.5 -59.167 90.5 -76.5s69.333 -26 106 -26c42.667 0 80.667 8.16699 114 24.5s61.5 39.333 84.5 69
s40.5 64.834 52.5 105.501s18 85.334 18 134.001c0 43.333 -5.5 85.166 -16.5 125.499s-27.5 76 -49.5 107s-49.667 55.833 -83 74.5s-72.333 28 -117 28z" />
    <glyph glyph-name="seven" unicode="7" horiz-adv-x="1150" 
d="M1061 1352l-603 -1352h-194l601 1304h-788v152h984v-104z" />
    <glyph glyph-name="eight" unicode="8" horiz-adv-x="1150" 
d="M1004 1076c0 -72.667 -19.166 -137.333 -57.499 -194s-90.166 -101 -155.499 -133c37.333 -16 71.166 -36 101.499 -60s56.333 -51.167 78 -81.5s38.334 -63.5 50.001 -99.5s17.5 -74.333 17.5 -115c0 -66.667 -11.833 -125.667 -35.5 -177s-56.334 -94.5 -98.001 -129.5
s-90.667 -61.5 -147 -79.5s-117.166 -27 -182.499 -27s-126.333 9 -183 27s-105.667 44.5 -147 79.5s-73.833 78.167 -97.5 129.5s-35.5 110.333 -35.5 177c0 40.667 5.66699 79 17 115s27.5 69.333 48.5 100s46.5 58 76.5 82s63.667 44 101 60
c-64.667 32 -115.667 76.333 -153 133s-56 121 -56 193c0 63.333 10.667 119.833 32 169.5s51 91.5 89 125.5s83.333 60 136 78s110 27 172 27s119.167 -9 171.5 -27s97.666 -44 135.999 -78s68.166 -75.833 89.499 -125.5s32 -106.167 32 -169.5zM853.001 397.001
c0 40.667 -6.83203 78 -20.499 112s-32.834 63.167 -57.501 87.5s-54.167 43.166 -88.5 56.499s-72.166 20 -113.499 20c-42 0 -80 -6.66699 -114 -20s-63 -32.166 -87 -56.499s-42.5 -53.5 -55.5 -87.5s-19.5 -71.333 -19.5 -112c0 -42 6.33301 -79.333 19 -112
s31 -60.5 55 -83.5s53.167 -40.5 87.5 -52.5s73.166 -18 116.499 -18c42.667 0 81.167 6 115.5 18s63.5 29.5 87.5 52.5s42.5 50.833 55.5 83.5s19.5 70 19.5 112zM819.002 1073c0 36 -5.83105 69.334 -17.498 100.001s-28.334 57.167 -50.001 79.5s-47.5 39.833 -77.5 52.5
s-63 19 -99 19s-69 -5.83301 -99 -17.5s-55.833 -28.334 -77.5 -50.001s-38.334 -48 -50.001 -79s-17.5 -65.833 -17.5 -104.5c0 -37.333 5.83301 -71.333 17.5 -102s28.167 -56.834 49.5 -78.501s47 -38.334 77 -50.001s63.333 -17.5 100 -17.5s70 5.83301 100 17.5
s55.667 28.334 77 50.001s37.833 47.834 49.5 78.501s17.5 64.667 17.5 102z" />
    <glyph glyph-name="nine" unicode="9" horiz-adv-x="1150" 
d="M323 155c100 0 182.336 13.5 247.003 40.5s115.834 63 153.501 108s64.167 96.667 79.5 155s24.333 118.833 27 181.5c-38.667 -46 -84.834 -83 -138.501 -111s-112.5 -42 -176.5 -42c-72 0 -134.167 14.167 -186.5 42.5s-95.333 65.333 -129 111s-58.667 97.5 -75 155.5
s-24.5 116.667 -24.5 176c0 69.333 9.66699 134.666 29 195.999s47.833 114.833 85.5 160.5s84.667 81.667 141 108s121.5 39.5 195.5 39.5c83.333 0 154.333 -16.833 213 -50.5s106.667 -78.167 144 -133.5s64.666 -118.166 81.999 -188.499s26 -142.5 26 -216.5v-67
c0 -63.333 -3.16699 -127.5 -9.5 -192.5s-18.333 -128 -36 -189s-42.334 -118.167 -74.001 -171.5s-73.167 -99.833 -124.5 -139.5s-113.833 -71 -187.5 -94s-160.834 -34.5 -261.501 -34.5h-18v156h18zM545.003 640c31.333 0 61.666 4.99805 90.999 14.998s56.333 24 81 42
s46.834 39 66.501 63s35.5 50 47.5 78v74c0 66 -7.66699 124.5 -23 175.5s-35.833 93.833 -61.5 128.5s-55.334 61 -89.001 79s-68.834 27 -105.501 27c-43.333 0 -81.666 -8.66699 -114.999 -26s-61.5 -41.166 -84.5 -71.499s-40.5 -66.166 -52.5 -107.499
s-18 -86.333 -18 -135c0 -43.333 5.33301 -85.5 16 -126.5s26.834 -77.5 48.501 -109.5s49 -57.667 82 -77s71.833 -29 116.5 -29z" />
    <glyph glyph-name="colon" unicode=":" horiz-adv-x="496" 
d="M134 97c0 32 9.5 58.667 28.5 80s47.5 32 85.5 32s66.833 -10.667 86.5 -32s29.5 -48 29.5 -80c0 -30.667 -9.83301 -56.334 -29.5 -77.001s-48.5 -31 -86.5 -31s-66.5 10.333 -85.5 31s-28.5 46.334 -28.5 77.001zM135 980c0 32 9.5 58.667 28.5 80s47.5 32 85.5 32
s66.833 -10.667 86.5 -32s29.5 -48 29.5 -80c0 -30.667 -9.83301 -56.334 -29.5 -77.001s-48.5 -31 -86.5 -31s-66.5 10.333 -85.5 31s-28.5 46.334 -28.5 77.001z" />
    <glyph glyph-name="semicolon" unicode=";" horiz-adv-x="433" 
d="M111 980c0 32 9.5 58.667 28.5 80s47.5 32 85.5 32s66.833 -10.667 86.5 -32s29.5 -48 29.5 -80c0 -30.667 -9.83301 -56.334 -29.5 -77.001s-48.5 -31 -86.5 -31s-66.5 10.333 -85.5 31s-28.5 46.334 -28.5 77.001zM320 71c0 -30 -3.83301 -61.333 -11.5 -94
s-19 -65 -34 -97s-33.167 -62.667 -54.5 -92s-46 -55.333 -74 -78l-105 72c31.333 44 55.5 89.167 72.5 135.5s25.5 96.5 25.5 150.5v151h181v-148z" />
    <glyph glyph-name="less" unicode="&#x3c;" horiz-adv-x="1041" 
d="M264 644l626 -253v-196l-818 379v146l818 378v-196z" />
    <glyph glyph-name="equal" unicode="=" horiz-adv-x="1124" 
d="M986 814h-834v161h834v-161zM986 399h-834v160h834v-160z" />
    <glyph glyph-name="greater" unicode="&#x3e;" horiz-adv-x="1070" 
d="M795 650l-661 259v190l854 -378v-146l-854 -379v192z" />
    <glyph glyph-name="question" unicode="?" horiz-adv-x="967" 
d="M357 410c0.666992 48 4 88.999 10 122.999s15.667 65 29 93s30.833 55.167 52.5 81.5s48.5 55.833 80.5 88.5l65.5 66.5c21 21 39.333 42.667 55 65s28.167 46.5 37.5 72.5s14 56 14 90c0 70 -18.333 124.833 -55 164.5s-90 59.5 -160 59.5
c-29.333 0 -57.5 -3.83301 -84.5 -11.5s-51 -19.667 -72 -36s-37.833 -37 -50.5 -62s-19 -54.833 -19 -89.5h-185c0.666992 56.667 11.667 107.334 33 152.001s50.333 82.5 87 113.5s79.834 54.667 129.501 71s103.5 24.5 161.5 24.5c64 0 120.833 -8.83301 170.5 -26.5
s91.5 -43 125.5 -76s59.833 -73 77.5 -120s26.5 -99.5 26.5 -157.5c0 -45.333 -7 -87.666 -21 -126.999s-32.833 -76.833 -56.5 -112.5s-50.5 -69.334 -80.5 -101.001s-61 -62.5 -93 -92.5c-36.667 -34 -61.334 -72.333 -74.001 -115s-19 -88.667 -19 -138h-185zM349 92.999
c0 30 9.16699 55.167 27.5 75.5s45.5 30.5 81.5 30.5s63.333 -10.167 82 -30.5s28 -45.5 28 -75.5s-9.33301 -54.833 -28 -74.5s-46 -29.5 -82 -29.5s-63.167 9.83301 -81.5 29.5s-27.5 44.5 -27.5 74.5z" />
    <glyph glyph-name="at" unicode="@" horiz-adv-x="1839" 
d="M1735 502c-2 -40.667 -6.66211 -81.9912 -13.9951 -123.991s-18 -82.333 -32 -121s-31.833 -74.834 -53.5 -108.501s-47.334 -63 -77.001 -88s-63.834 -44.667 -102.501 -59s-82 -21.5 -130 -21.5c-62.667 0 -114.167 14.667 -154.5 44s-68.833 70.666 -85.5 123.999
c-36 -56.667 -77.167 -98.834 -123.5 -126.501s-94.166 -41.5 -143.499 -41.5s-92.166 10.5 -128.499 31.5s-66 50.5 -89 88.5s-38.833 83.833 -47.5 137.5s-10 113.5 -4 179.5c8 88 25.333 167.333 52 238s59.667 130.667 99 180s83.166 87.333 131.499 114
s98.166 40 149.499 40c36 0 67.833 -2.83301 95.5 -8.5s52.667 -13.334 75 -23.001s43 -20.834 62 -33.501s37.833 -26.334 56.5 -41.001l-52 -554c-4 -48.667 -2.66699 -88.167 4 -118.5s16.5 -53.833 29.5 -70.5s28 -27.834 45 -33.501s33.5 -8.5 49.5 -8.5
c40 0 75.667 10.5 107 31.5s57.833 49.667 79.5 86s38.667 79.166 51 128.499s19.5 102 21.5 158c6 124.667 -2.33301 236.167 -25 334.5s-60.334 181.833 -113.001 250.5s-120.834 121.167 -204.501 157.5s-183.5 54.5 -299.5 54.5
c-104.667 0 -199.334 -19.833 -284.001 -59.5s-157.167 -95.667 -217.5 -168s-107.833 -158.833 -142.5 -259.5s-54.667 -212 -60 -334c-6 -124.667 3.83301 -236.667 29.5 -336s65.667 -183.833 120 -253.5s122.333 -123.167 204 -160.5s175.834 -56 282.501 -56
c29.333 0 59.166 1.83301 89.499 5.5s60 9 89 16s56.5 15.333 82.5 25s49.333 20.5 70 32.5l37 -115c-23.333 -14.667 -50 -27.5 -80 -38.5s-61.5 -20.333 -94.5 -28s-66.5 -13.334 -100.5 -17.001s-66.333 -5.5 -97 -5.5c-126.667 0 -239.5 21.5 -338.5 64.5
s-182 104.833 -249 185.5s-116.833 178.5 -149.5 293.5s-46 244.167 -40 387.5c6 136.667 30.333 263.167 73 379.5s100.834 217 174.501 302s161.667 151.5 264 199.5s216.166 72 341.499 72c128 0 241.167 -21.833 339.5 -65.5s180 -105.667 245 -186
s113.167 -177.833 144.5 -292.5s44 -243 38 -385zM709.005 417.009c-9.33301 -94.667 -0.501953 -167.335 26.498 -218.002s69.833 -76 128.5 -76c17.333 0 35.333 3.66699 54 11s37.167 18.833 55.5 34.5s35.833 36 52.5 61s31.667 55.167 45 90.5c0 4 0.333008 7 1 9
l46 503c-16.667 8.66699 -35 15.667 -55 21s-41.667 8 -65 8c-36 0 -70.167 -9.33301 -102.5 -28s-61.166 -46.667 -86.499 -84s-46.666 -83.666 -63.999 -138.999s-29.333 -119.666 -36 -192.999z" />
    <glyph glyph-name="A" unicode="A" 
d="M973 380h-610l-137 -380h-198l556 1456h168l557 -1456h-197zM421 538h495l-248 681z" />
    <glyph glyph-name="B" unicode="B" horiz-adv-x="1275" 
d="M169 0l-0.00195312 1456h476c74.667 0 141.334 -7.5 200.001 -22.5s108.5 -38.333 149.5 -70s72.333 -71.834 94 -120.501s32.5 -107 32.5 -175s-19.333 -128.167 -58 -180.5s-91.334 -92.833 -158.001 -121.5c40.667 -11.333 76.834 -28 108.501 -50
s58.334 -48 80.001 -78s38.167 -63.667 49.5 -101s17 -76.333 17 -117c0 -68 -11.5 -128.167 -34.5 -180.5s-55.5 -96.333 -97.5 -132s-92.667 -62.5 -152 -80.5s-125.333 -27 -198 -27h-509zM360.998 681.001l-0.000976562 -523.999h317c46 0 86.833 6.16699 122.5 18.5
s65.834 29.666 90.501 51.999s43.5 49.666 56.5 81.999s19.5 68.5 19.5 108.5s-5.33301 76.333 -16 109s-27.5 60.334 -50.5 83.001s-52.167 40.167 -87.5 52.5s-77.333 18.5 -126 18.5h-326zM360.997 835.002h290.001c41.333 0 79 5.33301 113 16s63.167 26 87.5 46
s43.166 44.5 56.499 73.5s20 61.833 20 98.5c0 80 -23.333 138.167 -70 174.5s-117.667 54.5 -213 54.5h-284v-463z" />
    <glyph glyph-name="C" unicode="C" horiz-adv-x="1333" 
d="M1240 462c-8 -68.667 -24.835 -132.501 -50.502 -191.501s-61.167 -110 -106.5 -153s-100.666 -76.667 -165.999 -101s-141.666 -36.5 -228.999 -36.5c-86 0 -164 16 -234 48s-129.833 77.5 -179.5 136.5s-88 129.833 -115 212.5s-40.5 175 -40.5 277v146
c0 102 13.667 194.5 41 277.5s66.333 154 117 213s112.167 104.667 184.5 137s153.5 48.5 243.5 48.5c82 0 154.667 -12 218 -36s117.166 -57.5 161.499 -100.5s79.5 -94.333 105.5 -154s42.667 -125.5 50 -197.5h-193c-7.33301 50.667 -18.666 96.334 -33.999 137.001
s-36.5 75.334 -63.5 104.001s-60.5 50.667 -100.5 66s-88 23 -144 23c-64.667 0 -121.5 -12.5 -170.5 -37.5s-90 -60 -123 -105s-57.833 -99.333 -74.5 -163s-25 -133.834 -25 -210.501v-148c0 -71.333 7.5 -138.333 22.5 -201s37.833 -117.5 68.5 -164.5
s69.667 -84 117 -111s103.333 -40.5 168 -40.5c61.333 0 113 7.33301 155 22s76.833 35.834 104.5 63.501s49.167 61.667 64.5 102s27 86.166 35 137.499h193z" />
    <glyph glyph-name="D" unicode="D" horiz-adv-x="1343" 
d="M169 0v1456h411c96 0 183.333 -16 262 -48s146.167 -77.667 202.5 -137s100 -131.333 131 -216s46.5 -179.667 46.5 -285v-86c0 -105.333 -15.5 -200.333 -46.5 -285s-75 -156.5 -132 -215.5s-126.167 -104.333 -207.5 -136s-172.333 -47.5 -273 -47.5h-394zM361 1298
v-1141h202c77.333 0 145.333 12.5 204 37.5s107.667 60.5 147 106.5s68.833 101.333 88.5 166s29.5 137 29.5 217v89c0 83.333 -10 157.5 -30 222.5s-49.333 120 -88 165s-86 79.167 -142 102.5s-120 35 -192 35h-219z" />
    <glyph glyph-name="E" unicode="E" horiz-adv-x="1164" 
d="M992 673h-631v-516h733v-157h-925v1456h915v-158h-723v-468h631v-157z" />
    <glyph glyph-name="F" unicode="F" horiz-adv-x="1132" 
d="M972 643h-611v-643h-192v1456h902v-158h-710v-498h611v-157z" />
    <glyph glyph-name="G" unicode="G" horiz-adv-x="1395" 
d="M1244 191c-14 -20 -33.335 -42.1631 -58.002 -66.4961s-57.167 -47.166 -97.5 -68.499s-89.833 -39.333 -148.5 -54s-129 -22 -211 -22c-88.667 0 -170.167 15.667 -244.5 47s-138.333 76.5 -192 135.5s-95.5 131.333 -125.5 217s-45 182.834 -45 291.501v114
c0 108.667 12.833 205.667 38.5 291s63.334 157.666 113.001 216.999s110.834 104.666 183.501 135.999s156 47 250 47c83.333 0 156.333 -11.167 219 -33.5s116 -53.333 160 -93s79 -86.834 105 -141.501s43.667 -114.334 53 -179.001h-192
c-7.33301 39.333 -18.833 76.5 -34.5 111.5s-37.167 65.667 -64.5 92s-61 47.166 -101 62.499s-88 23 -144 23c-68 0 -126.667 -12.333 -176 -37s-90 -60 -122 -106s-55.833 -101.667 -71.5 -167s-23.5 -139 -23.5 -221v-116c0 -84 10 -159 30 -225s48.167 -122 84.5 -168
s80 -81 131 -105s107.5 -36 169.5 -36c52 0 96.167 3.5 132.5 10.5s67 15.667 92 26s45.167 21.666 60.5 33.999s28 23.833 38 34.5v327h-337v156h528v-534z" />
    <glyph glyph-name="H" unicode="H" horiz-adv-x="1460" 
d="M1288 0h-193v673h-734v-673h-192v1456h192v-626h734v626h193v-1456z" />
    <glyph glyph-name="I" unicode="I" horiz-adv-x="557" 
d="M375 0h-192v1456h192v-1456z" />
    <glyph glyph-name="J" unicode="J" horiz-adv-x="1130" 
d="M779 1456l193.002 -0.000976562v-1031c0 -72 -11.333 -135.833 -34 -191.5s-54.5 -102.167 -95.5 -139.5s-89.667 -65.666 -146 -84.999s-117.833 -29 -184.5 -29c-67.333 0 -129 8.5 -185 25.5s-104.333 43 -145 78s-72.334 79 -95.001 132s-34 115.167 -34 186.5h192
c0 -46 6.66699 -85.667 20 -119s31.666 -60.833 54.999 -82.5s51.333 -37.667 84 -48s68.667 -15.5 108 -15.5c38 0 73.333 6.16699 106 18.5s61 30.5 85 54.5s42.667 54 56 90s20 77.667 20 125v1031z" />
    <glyph glyph-name="K" unicode="K" horiz-adv-x="1284" 
d="M539 677l-178 -185v-492h-192v1456h192v-720l158 176l489 544h232l-573 -643l618 -813h-230z" />
    <glyph glyph-name="L" unicode="L" horiz-adv-x="1102" 
d="M362 157h690v-157h-883v1456h193v-1299z" />
    <glyph glyph-name="M" unicode="M" horiz-adv-x="1788" 
d="M417 1456l476 -1188l476 1188h249v-1456h-192v567l18 612l-478 -1179h-147l-477 1176l19 -609v-567h-192v1456h248z" />
    <glyph glyph-name="N" unicode="N" horiz-adv-x="1460" 
d="M1288 0h-193l-733 1122v-1122h-193v1456h193l735 -1127v1127h191v-1456z" />
    <glyph glyph-name="O" unicode="O" horiz-adv-x="1408" 
d="M1289 681c0 -109.333 -13.832 -207.166 -41.499 -293.499s-66.834 -159.833 -117.501 -220.5s-112 -107 -184 -139s-152.333 -48 -241 -48c-86 0 -165 16 -237 48s-134 78.333 -186 139s-92.333 134.167 -121 220.5s-43 184.166 -43 293.499v92
c0 108.667 14.333 206.5 43 293.5s68.667 160.833 120 221.5s113 107.167 185 139.5s151 48.5 237 48.5c88.667 0 169.167 -16.167 241.5 -48.5s134 -78.833 185 -139.5s90.333 -134.5 118 -221.5s41.5 -184.833 41.5 -293.5v-92zM1098 775
c0 86.667 -8.83594 163.334 -26.5029 230.001s-43.5 122.667 -77.5 168s-75.5 79.666 -124.5 102.999s-104.5 35 -166.5 35c-59.333 0 -113.333 -11.667 -162 -35s-90.167 -57.666 -124.5 -102.999s-60.833 -101.333 -79.5 -168s-28 -143.334 -28 -230.001v-94
c0 -87.333 9.5 -164.333 28.5 -231s45.833 -122.834 80.5 -168.501s76.334 -80.167 125.001 -103.5s102.667 -35 162 -35c62.667 0 118.334 11.667 167.001 35s89.834 57.833 123.501 103.5s59.167 101.834 76.5 168.501s26 143.667 26 231v94z" />
    <glyph glyph-name="P" unicode="P" horiz-adv-x="1292" 
d="M361 570v-570h-192v1456h537c82.667 0 155.667 -11 219 -33s116.5 -52.833 159.5 -92.5s75.667 -86.667 98 -141s33.5 -113.833 33.5 -178.5c0 -70 -11.167 -132.5 -33.5 -187.5s-55 -101.167 -98 -138.5s-96.167 -65.833 -159.5 -85.5s-136.333 -29.5 -219 -29.5h-345z
M361 727l345 0.000976562c56 0 104.167 7 144.5 21s73.333 33.5 99 58.5s44.5 54.667 56.5 89s18 72.166 18 113.499c0 37.333 -6 73.5 -18 108.5s-30.833 65.833 -56.5 92.5s-58.667 48 -99 64s-88.5 24 -144.5 24h-345v-571z" />
    <glyph glyph-name="Q" unicode="Q" horiz-adv-x="1408" 
d="M1281 681c0 -140.667 -22.3311 -261.832 -66.998 -363.499s-107.334 -181.167 -188.001 -238.5l260 -204l-131 -121l-307 244c-48 -12 -98.667 -18 -152 -18c-86 0 -165 16 -237 48s-134 78.333 -186 139s-92.333 134.167 -121 220.5s-43 184.166 -43 293.499v92
c0 108.667 14.333 206.5 43 293.5s68.667 160.833 120 221.5s113 107.167 185 139.5s151 48.5 237 48.5c88.667 0 169.167 -16.167 241.5 -48.5s134.166 -78.833 185.499 -139.5s90.833 -134.5 118.5 -221.5s41.5 -184.833 41.5 -293.5v-92zM1089 775.002
c0 86.667 -8.83594 163.334 -26.5029 230.001s-43.334 122.667 -77.001 168s-75 79.666 -124 102.999s-104.833 35 -167.5 35c-59.333 0 -113.166 -11.667 -161.499 -35s-89.666 -57.666 -123.999 -102.999s-60.833 -101.333 -79.5 -168s-28 -143.334 -28 -230.001v-94
c0 -87.333 9.5 -164.333 28.5 -231s45.667 -122.834 80 -168.501s75.833 -80.167 124.5 -103.5s102.667 -35 162 -35c62.667 0 118.334 11.667 167.001 35s89.834 57.833 123.501 103.5s59.167 101.834 76.5 168.501s26 143.667 26 231v94z" />
    <glyph glyph-name="R" unicode="R" horiz-adv-x="1261" 
d="M703 589h-342v-589h-193v1456h482c164 0 290.167 -37.333 378.5 -112s132.5 -183.334 132.5 -326.001c0 -90.667 -24.5 -169.667 -73.5 -237s-117.167 -117.666 -204.5 -150.999l342 -618v-12h-206zM361 746l295 0.000976562c52 0 97.5 7.16699 136.5 21.5
s71.5 33.666 97.5 57.999s45.5 53 58.5 86s19.5 68.5 19.5 106.5c0 42 -6.16699 80.167 -18.5 114.5s-31.5 63.833 -57.5 88.5s-59 43.667 -99 57s-87.667 20 -143 20h-289v-552z" />
    <glyph glyph-name="S" unicode="S" horiz-adv-x="1215" 
d="M945 368c0 34 -5.16895 63.9971 -15.502 89.9971s-28.666 49.833 -54.999 71.5s-61.833 42 -106.5 61s-101.334 38.5 -170.001 58.5c-72 20.667 -137.167 44.167 -195.5 70.5s-108 56.666 -149 90.999s-72.5 73.5 -94.5 117.5s-33 94.333 -33 151
s11.833 109.167 35.5 157.5s57.167 90.333 100.5 126s95.333 63.5 156 83.5s128.334 30 203.001 30c82 0 155 -12.333 219 -37s117.833 -57.334 161.5 -98.001s76.834 -87.667 99.501 -141s34 -108.333 34 -165h-193c0 40.667 -6.5 78.334 -19.5 113.001
s-32.833 64.667 -59.5 90s-60 45 -100 59s-87.333 21 -142 21c-51.333 0 -96 -6 -134 -18s-69.333 -28.5 -94 -49.5s-43 -45.833 -55 -74.5s-18 -60 -18 -94c0 -30.667 6.5 -58.667 19.5 -84s33.167 -48.666 60.5 -69.999s62.5 -41 105.5 -59s94.5 -35.333 154.5 -52
c82.667 -23.333 154 -49.166 214 -77.499s109.5 -60.5 148.5 -96.5s68 -76.333 87 -121s28.5 -95.334 28.5 -152.001c0 -59.333 -12 -113 -36 -161s-58.167 -89 -102.5 -123s-97.666 -60.167 -159.999 -78.5s-131.833 -27.5 -208.5 -27.5
c-44.667 0 -89.334 4.16699 -134.001 12.5s-87.5 20.833 -128.5 37.5s-79 37.334 -114 62.001s-65.5 53.334 -91.5 86.001s-46.333 69.334 -61 110.001s-22 85.334 -22 134.001h193c0 -50 9.83301 -92.833 29.5 -128.5s46 -65.167 79 -88.5s71 -40.5 114 -51.5
s88.167 -16.5 135.5 -16.5c101.333 0 179 20.667 233 62s81 97.666 81 168.999z" />
    <glyph glyph-name="T" unicode="T" horiz-adv-x="1222" 
d="M1175 1298h-468v-1298h-191v1298h-467v158h1126v-158z" />
    <glyph glyph-name="U" unicode="U" horiz-adv-x="1328" 
d="M1194 1456l0.00195312 -986c0 -82 -14.333 -153.667 -43 -215s-67.167 -112.333 -115.5 -153s-104.5 -71.167 -168.5 -91.5s-131.333 -30.5 -202 -30.5c-74 0 -143 10.167 -207 30.5s-119.5 50.833 -166.5 91.5s-84 91.667 -111 153s-40.5 133 -40.5 215v986h190v-986
c0 -56.667 8.16699 -105.834 24.5 -147.501s39.166 -76.334 68.499 -104.001s64.5 -48.167 105.5 -61.5s86.5 -20 136.5 -20c50.667 0 96.667 6.66699 138 20s76.666 33.833 105.999 61.5s52 62.334 68 104.001s24 90.834 24 147.501v986h193z" />
    <glyph glyph-name="V" unicode="V" horiz-adv-x="1303" 
d="M651 255l416 1201h210l-540 -1456h-170l-539 1456h209z" />
    <glyph glyph-name="W" unicode="W" horiz-adv-x="1817" 
d="M483 459l28 -192l41 173l288 1016h162l281 -1016l40 -176l31 196l226 996h193l-353 -1456h-175l-300 1061l-23 111l-23 -111l-311 -1061h-175l-352 1456h192z" />
    <glyph glyph-name="X" unicode="X" horiz-adv-x="1284" 
d="M644 898l349 558h226l-460 -722l471 -734h-228l-358 568l-360 -568h-227l472 734l-461 722h225z" />
    <glyph glyph-name="Y" unicode="Y" horiz-adv-x="1230" 
d="M613 725l380 731h218l-502 -913v-543h-192v543l-502 913h220z" />
    <glyph glyph-name="Z" unicode="Z" horiz-adv-x="1226" 
d="M313 157h833v-157h-1060v144l798 1154h-785v158h1015v-141z" />
    <glyph glyph-name="bracketleft" unicode="[" horiz-adv-x="543" 
d="M523 1512h-191v-1672h191v-152h-377v1976h377v-152z" />
    <glyph glyph-name="backslash" unicode="\" horiz-adv-x="840" 
d="M40 1456h176l608 -1581h-176z" />
    <glyph glyph-name="bracketright" unicode="]" horiz-adv-x="543" 
d="M9 1664h378v-1976h-378v152h193v1672h-193v152z" />
    <glyph glyph-name="asciicircum" unicode="^" horiz-adv-x="856" 
d="M426 1211l-190 -482h-172l299 727h127l298 -727h-171z" />
    <glyph glyph-name="underscore" unicode="_" horiz-adv-x="924" 
d="M920 -151h-916v151h916v-151z" />
    <glyph glyph-name="grave" unicode="`" horiz-adv-x="633" 
d="M474 1240h-159l-258 294h223z" />
    <glyph glyph-name="a" unicode="a" horiz-adv-x="1114" 
d="M808 0c-6.66699 13.333 -11.999 30.165 -15.999 50.498s-7.33301 41.5 -10 63.5c-17.333 -18 -36.833 -35.167 -58.5 -51.5s-45.334 -30.666 -71.001 -42.999s-53.5 -22 -83.5 -29s-61.667 -10.5 -95 -10.5c-55.333 0 -105.5 8.33301 -150.5 25
s-83.333 39.334 -115 68.001s-56.167 62.5 -73.5 101.5s-26 80.833 -26 125.5c0 58 11.333 109.167 34 153.5s55.167 81.5 97.5 111.5s93.5 52.667 153.5 68s127 23 201 23h184v85c0 64.667 -19.333 116.167 -58 154.5s-95.667 57.5 -171 57.5
c-34.667 0 -66.334 -4.66699 -95.001 -14s-53.167 -21.833 -73.5 -37.5s-36.166 -33.834 -47.499 -54.501s-17 -42.334 -17 -65.001h-186c0 38.667 10.167 77 30.5 115s49.166 72.167 86.499 102.5s82.5 55 135.5 74s112.167 28.5 177.5 28.5
c58.667 0 112.834 -7.5 162.501 -22.5s92.167 -37.667 127.5 -68s63 -68.166 83 -113.499s30 -98.333 30 -159v-503c0 -36.667 3.16699 -75.167 9.5 -115.5s15.833 -75.166 28.5 -104.499v-16h-194zM501.001 140.999c33.333 0 64.665 4.66699 93.998 14s56 21.5 80 36.5
s44.833 32.167 62.5 51.5s31.5 39.333 41.5 60v222h-154c-106 0 -187.667 -16.5 -245 -49.5s-86 -82.833 -86 -149.5c0 -26 4.33301 -50.333 13 -73s21.834 -42.167 39.501 -58.5s39.334 -29.333 65.001 -39s55.5 -14.5 89.5 -14.5z" />
    <glyph glyph-name="b" unicode="b" horiz-adv-x="1149" 
d="M1056 529c0 -79.333 -9.33496 -152.499 -28.002 -219.499s-46 -125 -82 -174s-80 -87.167 -132 -114.5s-111.333 -41 -178 -41c-71.333 0 -133 12.5 -185 37.5s-96 60.833 -132 107.5l-9 -125h-170v1536h185v-573c36 44.667 79.333 79 130 103s110.334 36 179.001 36
c68 0 128.167 -13.333 180.5 -40s96.333 -64.167 132 -112.5s62.834 -106.333 81.501 -174s28 -142.834 28 -225.501v-21zM870.998 550.001c0 54 -5.00098 104.833 -15.001 152.5s-26.167 89.5 -48.5 125.5s-51.5 64.5 -87.5 85.5s-80 31.5 -132 31.5
c-34 0 -64.667 -4.33301 -92 -13s-51.833 -20.667 -73.5 -36s-40.5 -33.333 -56.5 -54s-29.667 -43 -41 -67v-468c12 -24 26.167 -46.333 42.5 -67s35.333 -38.667 57 -54s46.167 -27.333 73.5 -36s58 -13 92 -13c50 0 92.667 10.333 128 31s64.333 48.667 87 84
s39.334 76.833 50.001 124.5s16 98.5 16 152.5v21z" />
    <glyph glyph-name="c" unicode="c" horiz-adv-x="1072" 
d="M574 131c32.667 0 63.999 5.33301 93.999 16s56.5 25.334 79.5 44.001s41.667 40.834 56 66.501s22.833 53.5 25.5 83.5h175c-2.66699 -48 -15.834 -93.833 -39.501 -137.5s-54.834 -82 -93.501 -115s-83.5 -59.333 -134.5 -79s-105.167 -29.5 -162.5 -29.5
c-81.333 0 -152.166 14.5 -212.499 43.5s-110.5 68.167 -150.5 117.5s-69.833 106.666 -89.5 171.999s-29.5 134.333 -29.5 207v42c0 72.667 9.83301 141.667 29.5 207s49.5 122.666 89.5 171.999s90 88.5 150 117.5s130.667 43.5 212 43.5c63.333 0 120.833 -10 172.5 -30
s96.334 -47.5 134.001 -82.5s67.167 -76.5 88.5 -124.5s33.333 -99.667 36 -155h-175c-2.66699 33.333 -10.5 64.5 -23.5 93.5s-30.5 54.333 -52.5 76s-48.167 38.834 -78.5 51.501s-64.166 19 -101.499 19c-57.333 0 -104.833 -11.333 -142.5 -34s-68 -52.5 -91 -89.5
s-39.167 -78.667 -48.5 -125s-14 -92.833 -14 -139.5v-42c0 -48 4.66699 -95.167 14 -141.5s25.333 -87.833 48 -124.5s53 -66.334 91 -89.001s86 -34 144 -34z" />
    <glyph glyph-name="d" unicode="d" horiz-adv-x="1155" 
d="M95 550c0 82.667 10.167 157.833 30.5 225.5s49.166 125.667 86.499 174s82.166 85.833 134.499 112.5s110.833 40 175.5 40c66 0 123.667 -11.167 173 -33.5s92 -54.5 128 -96.5v564h185v-1536h-170l-9 116c-36 -44 -79.333 -77.667 -130 -101
s-110.334 -35 -179.001 -35c-63.333 0 -121.166 13.667 -173.499 41s-97.166 65.5 -134.499 114.5s-66.166 107 -86.499 174s-30.5 140.167 -30.5 219.5v21zM280 528.999c0 -54 5.49902 -104.834 16.499 -152.501s28.167 -89.167 51.5 -124.5s53 -63.333 89 -84
s79 -31 129 -31c32.667 0 62 3.83301 88 11.5s49.5 18.5 70.5 32.5s39.667 30.667 56 50s30.5 40.666 42.5 63.999v497c-12 22 -26 42.333 -42 61s-34.5 34.834 -55.5 48.501s-44.5 24.334 -70.5 32.001s-55 11.5 -87 11.5c-50.667 0 -94.167 -10.5 -130.5 -31.5
s-66.166 -49.5 -89.499 -85.5s-40.5 -77.833 -51.5 -125.5s-16.5 -98.5 -16.5 -152.5v-21z" />
    <glyph glyph-name="e" unicode="e" horiz-adv-x="1085" 
d="M589 -20c-75.333 0 -143.499 13.002 -204.499 39.002s-113.167 62.167 -156.5 108.5s-76.666 101.5 -99.999 165.5s-35 134 -35 210v42c0 88 13.167 166.667 39.5 236s61.5 127.666 105.5 174.999s94.333 83.5 151 108.5s115.667 37.5 177 37.5
c77.333 0 144 -13.5 200 -40.5s102.167 -64.167 138.5 -111.5s63.166 -103.333 80.499 -168s26 -135 26 -211v-83h-733c1.33301 -50 9.5 -96.667 24.5 -140s36.333 -81 64 -113s61 -57.333 100 -76s83.167 -28 132.5 -28c65.333 0 120.666 13.333 165.999 40s85 62 119 106
l113 -88c-17.333 -26.667 -38.333 -52.5 -63 -77.5s-53.5 -47.333 -86.5 -67s-70.833 -35.334 -113.5 -47.001s-91 -17.5 -145 -17.5zM566.001 950.002c-37.333 0 -71.667 -6.83301 -103 -20.5s-59.333 -33.5 -84 -59.5s-45.167 -58.333 -61.5 -97s-27.5 -83 -33.5 -133h542
v14c-2 36 -7.83301 71.667 -17.5 107s-24.667 67 -45 95s-46.5 50.667 -78.5 68s-71.667 26 -119 26z" />
    <glyph glyph-name="f" unicode="f" horiz-adv-x="711" 
d="M231 0v938.998h-171v143h171v114c0 58 8.16699 109.5 24.5 154.5s39.833 82.833 70.5 113.5s68 53.834 112 69.501s93.667 23.5 149 23.5c42.667 0 85 -5.66699 127 -17l-10 -150c-14 2.66699 -29.833 4.83398 -47.5 6.50098s-35.167 2.5 -52.5 2.5
c-60 0 -106.333 -17.5 -139 -52.5s-49 -85.167 -49 -150.5v-114h231v-143h-231v-939h-185z" />
    <glyph glyph-name="g" unicode="g" horiz-adv-x="1149" 
d="M96 550c0 82.667 9.83398 157.833 29.501 225.5s48 125.667 85 174s81.833 85.833 134.5 112.5s112 40 178 40c68.667 0 128.334 -12 179.001 -36s94 -58.667 130 -104l9 120h169v-1059c0 -71.333 -11.167 -134.833 -33.5 -190.5s-53.833 -102.667 -94.5 -141
s-89 -67.5 -145 -87.5s-118 -30 -186 -30c-28 0 -60.167 3.16699 -96.5 9.5s-73 16.666 -110 30.999s-72.5 33.5 -106.5 57.5s-63 53.667 -87 89l96 111c22.667 -28 46 -51.333 70 -70s48.167 -33.667 72.5 -45s49 -19.5 74 -24.5s49.833 -7.5 74.5 -7.5
c43.333 0 82.666 6.16699 117.999 18.5s65.5 30.833 90.5 55.5s44.167 54.834 57.5 90.501s20 77.167 20 124.5v94c-36 -41.333 -78.833 -73 -128.5 -95s-107.834 -33 -174.501 -33c-64.667 0 -123.167 13.667 -175.5 41s-97 65.5 -134 114.5s-65.5 107 -85.5 174
s-30 140.167 -30 219.5v21zM282.001 528.999c0 -54 5.5 -104.832 16.5 -152.499s28 -89.167 51 -124.5s52.5 -63.333 88.5 -84s79 -31 129 -31c32.667 0 62.167 4 88.5 12s50 19 71 33s39.5 30.667 55.5 50s30 40.666 42 63.999v494c-12 22 -26 42.5 -42 61.5
s-34.5 35.5 -55.5 49.5s-44.5 24.833 -70.5 32.5s-55 11.5 -87 11.5c-50.667 0 -94 -10.5 -130 -31.5s-65.667 -49.5 -89 -85.5s-40.5 -77.833 -51.5 -125.5s-16.5 -98.5 -16.5 -152.5v-21z" />
    <glyph glyph-name="h" unicode="h" horiz-adv-x="1128" 
d="M325 951c38.667 47.333 84.9971 84.333 138.997 111s114.333 40 181 40c52.667 0 100.334 -7.16699 143.001 -21.5s79 -37.333 109 -69s53.167 -72.334 69.5 -122.001s24.5 -109.834 24.5 -180.501v-709h-185v711c0 42 -4.66699 77.833 -14 107.5
s-23.166 53.834 -41.499 72.501s-41 32.334 -68 41.001s-58.167 13 -93.5 13c-60 0 -112.667 -16 -158 -48s-80.666 -74 -105.999 -126v-771h-185v1536h185v-585z" />
    <glyph glyph-name="i" unicode="i" horiz-adv-x="497" 
d="M341 0h-185v1082h185v-1082zM141 1369c0 30 9.16699 55.333 27.5 76s45.5 31 81.5 31s63.333 -10.333 82 -31s28 -46 28 -76s-9.33301 -55 -28 -75s-46 -30 -82 -30s-63.167 10 -81.5 30s-27.5 45 -27.5 75z" />
    <glyph glyph-name="j" unicode="j" horiz-adv-x="489" 
d="M331 1082l-0.00195312 -1211c0 -100 -23.333 -176.333 -70 -229s-117.667 -79 -213 -79c-17.333 0 -36.666 1.66699 -57.999 5s-39.666 7.66602 -54.999 12.999v148c13.333 -3.33301 27.833 -5.5 43.5 -6.5s29.167 -1.5 40.5 -1.5c41.333 0 72.833 11.167 94.5 33.5
s32.5 61.166 32.5 116.499v1211h185zM126.998 1369c0 29.333 9.16797 54.5 27.501 75.5s45.166 31.5 80.499 31.5c36 0 63.333 -10.333 82 -31s28 -46 28 -76s-9.33301 -55 -28 -75s-46 -30 -82 -30s-63 10 -81 30s-27 45 -27 75z" />
    <glyph glyph-name="k" unicode="k" horiz-adv-x="1038" 
d="M442 501l-116 -121v-380h-185v1536h185v-929l99 119l337 356h225l-421 -452l470 -630h-217z" />
    <glyph glyph-name="l" unicode="l" horiz-adv-x="497" 
d="M341 0h-185v1536h185v-1536z" />
    <glyph glyph-name="m" unicode="m" horiz-adv-x="1795" 
d="M314 1082l4.99707 -120.001c37.333 44 82.5 78.333 135.5 103s114.833 37 185.5 37c70 0 131.833 -13.833 185.5 -41.5s94.834 -71.834 123.501 -132.501c36 52 82.833 94 140.5 126s125.834 48 204.501 48c58 0 109.333 -7.5 154 -22.5s82.5 -38.5 113.5 -70.5
s54.5 -72.667 70.5 -122s24 -108 24 -176v-711h-185v712c0 45.333 -5.5 83 -16.5 113s-26.5 54 -46.5 72s-44.333 30.5 -73 37.5s-60.334 10.5 -95.001 10.5c-38 0 -71.667 -6 -101 -18s-54.5 -28.167 -75.5 -48.5s-37.667 -44.333 -50 -72s-20.166 -57.167 -23.499 -88.5
v-718h-186v711c0 42 -5.5 77.833 -16.5 107.5s-26.5 53.834 -46.5 72.501s-44.167 32.334 -72.5 41.001s-60.166 13 -95.499 13c-66 0 -119 -14.333 -159 -43s-70 -66 -90 -112v-790h-185v1082h175z" />
    <glyph glyph-name="n" unicode="n" horiz-adv-x="1130" 
d="M315 1082l5.99609 -136.001c38.667 48.667 85.334 86.834 140.001 114.501s116 41.5 184 41.5c52.667 0 100.334 -7.16699 143.001 -21.5s79 -37.333 109 -69s53.167 -72.334 69.5 -122.001s24.5 -109.834 24.5 -180.501v-709h-185v711c0 42 -4.66699 77.833 -14 107.5
s-23.166 53.834 -41.499 72.501s-41 32.334 -68 41.001s-58.167 13 -93.5 13c-60 0 -112.667 -16 -158 -48s-80.666 -74 -105.999 -126v-771h-185v1082h175z" />
    <glyph glyph-name="o" unicode="o" horiz-adv-x="1168" 
d="M91 551c0 78.667 11.502 151.5 34.502 218.5s55.667 125.167 98 174.5s93.833 88 154.5 116s128.667 42 204 42c76.667 0 145.5 -14 206.5 -42s112.833 -66.667 155.5 -116s75.334 -107.5 98.001 -174.5s34 -139.833 34 -218.5v-22c0 -78.667 -11.333 -151.5 -34 -218.5
s-55.334 -125 -98.001 -174s-94.334 -87.333 -155.001 -115s-129 -41.5 -205 -41.5s-144.333 13.833 -205 41.5s-112.334 66 -155.001 115s-75.5 107 -98.5 174s-34.5 139.833 -34.5 218.5v22zM277.002 529c0 -54 6.33398 -105 19.001 -153s31.834 -90.167 57.501 -126.5
s57.667 -65.166 96 -86.499s83.166 -32 134.499 -32c50.667 0 95.334 10.667 134.001 32s70.667 50.166 96 86.499s44.5 78.5 57.5 126.5s19.5 99 19.5 153v22c0 53.333 -6.5 104.166 -19.5 152.499s-32.333 90.666 -58 126.999s-57.834 65.333 -96.501 87
s-83.667 32.5 -135 32.5c-50.667 0 -95 -10.833 -133 -32.5s-69.833 -50.667 -95.5 -87s-44.834 -78.666 -57.501 -126.999s-19 -99.166 -19 -152.499v-22z" />
    <glyph glyph-name="p" unicode="p" horiz-adv-x="1149" 
d="M1054 529c0 -79.333 -9.33203 -152.499 -27.999 -219.499s-45.834 -125 -81.501 -174s-79.5 -87.167 -131.5 -114.5s-111.333 -41 -178 -41c-68 0 -127.5 10.667 -178.5 32s-94.833 52.333 -131.5 93v-521h-185v1498h169l9 -120c36.667 45.333 81 80 133 104
s112.333 36 181 36c68 0 128.167 -13.333 180.5 -40s96.5 -64.167 132.5 -112.5s63.167 -106.333 81.5 -174s27.5 -142.834 27.5 -225.501v-21zM869.001 550.001c0 54 -5.66504 104.829 -16.998 152.496s-29 89.5 -53 125.5s-54.333 64.5 -91 85.5
s-80.334 31.5 -131.001 31.5c-31.333 0 -59.833 -3.66699 -85.5 -11s-48.834 -17.666 -69.501 -30.999s-39 -29.166 -55 -47.499s-30 -38.166 -42 -59.499v-517c12 -21.333 26 -41.166 42 -59.499s34.333 -34 55 -47s44 -23.167 70 -30.5s55 -11 87 -11
c50 0 93.167 10.667 129.5 32s66.5 50 90.5 86s41.667 78.167 53 126.5s17 99.5 17 153.5v21z" />
    <glyph glyph-name="q" unicode="q" horiz-adv-x="1164" 
d="M95 550c0 82.667 9.66797 157.834 29.001 225.501s47.5 125.667 84.5 174s82.167 85.833 135.5 112.5s114 40 182 40c66 0 124 -11 174 -33s93 -54 129 -96l8 109h170v-1498h-185v516c-36 -38.667 -78.667 -68.334 -128 -89.001s-106 -31 -170 -31
c-67.333 0 -127.5 13.667 -180.5 41s-97.833 65.5 -134.5 114.5s-64.834 107 -84.501 174s-29.5 140.167 -29.5 219.5v21zM280.001 529c0 -54 5.66797 -105.168 17.001 -153.501s29 -90.5 53 -126.5s54.167 -64.667 90.5 -86s79.5 -32 129.5 -32
c61.333 0 112.333 13.667 153 41s73.667 62.333 99 105v530c-12.667 20.667 -27.167 39.667 -43.5 57s-34.833 32.333 -55.5 45s-43.5 22.667 -68.5 30s-52.5 11 -82.5 11c-50.667 0 -94.334 -10.833 -131.001 -32.5s-67 -50.667 -91 -87s-41.667 -78.666 -53 -126.999
s-17 -99.5 -17 -153.5v-21z" />
    <glyph glyph-name="r" unicode="r" horiz-adv-x="693" 
d="M663 916c-16 2.66699 -30.832 4.5 -44.499 5.5s-29.167 1.5 -46.5 1.5c-64 0 -116.167 -14 -156.5 -42s-70.5 -65.667 -90.5 -113v-768h-185v1082h180l3 -125c28 44.667 63 80 105 106s93 39 153 39c13.333 0 28.666 -1.5 45.999 -4.5s29.333 -6.16699 36 -9.5v-172z" />
    <glyph glyph-name="s" unicode="s" horiz-adv-x="1056" 
d="M770 287c0 20 -3 38.834 -9 56.501s-17.833 34.334 -35.5 50.001s-42.834 30.167 -75.501 43.5s-75.667 25.666 -129 36.999c-60 12.667 -114 27.667 -162 45s-88.833 38.166 -122.5 62.499s-59.5 53.166 -77.5 86.499s-27 72.333 -27 117
c0 42.667 9.5 83.167 28.5 121.5s45.833 72 80.5 101s76.667 52 126 69s104.333 25.5 165 25.5c64.667 0 122.5 -8.83301 173.5 -26.5s94.333 -41.834 130 -72.501s62.834 -66.5 81.501 -107.5s28 -84.833 28 -131.5h-186c0 22 -5 44.167 -15 66.5s-24.667 42.333 -44 60
s-43 32 -71 43s-60.333 16.5 -97 16.5c-38.667 0 -71.5 -4.5 -98.5 -13.5s-49.167 -21 -66.5 -36s-30 -32 -38 -51s-12 -38.5 -12 -58.5s3.33301 -38 10 -54s19.334 -30.5 38.001 -43.5s44.167 -25 76.5 -36s74.166 -22.167 125.499 -33.5
c66 -15.333 123.333 -32.666 172 -51.999s89 -41.833 121 -67.5s55.833 -55.167 71.5 -88.5s23.5 -72 23.5 -116c0 -47.333 -9.83301 -90.666 -29.5 -129.999s-47.834 -73 -84.501 -101s-80.667 -49.833 -132 -65.5s-108.333 -23.5 -171 -23.5c-72 0 -135.5 10 -190.5 30
s-101.167 46.5 -138.5 79.5s-65.666 70.667 -84.999 113s-29 85.833 -29 130.5h185c2 -38 11.167 -69.833 27.5 -95.5s36.833 -46.5 61.5 -62.5s51.667 -27.333 81 -34s58.666 -10 87.999 -10c38 0 71.333 4 100 12s52.834 19 72.501 33s34.5 30.5 44.5 49.5
s15 39.5 15 61.5z" />
    <glyph glyph-name="t" unicode="t" horiz-adv-x="669" 
d="M391 1344v-262.001h202v-143h-202v-671c0 -28 3.33301 -50.5 10 -67.5s15.5 -30.167 26.5 -39.5s23.667 -15.5 38 -18.5s29.166 -4.5 44.499 -4.5s31.5 1.5 48.5 4.5s30.167 5.5 39.5 7.5v-150c-14.667 -4 -33.667 -8.33301 -57 -13s-51.666 -7 -84.999 -7
c-34 0 -66.167 4.83301 -96.5 14.5s-56.833 25.834 -79.5 48.501s-40.667 52.5 -54 89.5s-20 82.5 -20 136.5v670h-197v143h197v262h185z" />
    <glyph glyph-name="u" unicode="u" horiz-adv-x="1129" 
d="M808 107c-34 -40 -77.002 -71.166 -129.002 -93.499s-114.667 -33.5 -188 -33.5c-53.333 0 -101.666 7.5 -144.999 22.5s-80.666 38.667 -111.999 71s-55.5 74 -72.5 125s-25.5 112.5 -25.5 184.5v699h185v-701c0 -48.667 5.66699 -88.834 17 -120.501
s26.333 -56.667 45 -75s40 -31 64 -38s48.667 -10.5 74 -10.5c75.333 0 135.833 14.333 181.5 43s79.167 67 100.5 115v787h185v-1082h-176z" />
    <glyph glyph-name="v" unicode="v" horiz-adv-x="992" 
d="M497 251l268 831h189l-388 -1082h-141l-392 1082h189z" />
    <glyph glyph-name="w" unicode="w" horiz-adv-x="1539" 
d="M1098 255l208 827h185l-315 -1082h-150l-263 820l-256 -820h-150l-314 1082h184l213 -810l252 810h149z" />
    <glyph glyph-name="x" unicode="x" horiz-adv-x="1015" 
d="M503 687l240 395h216l-354 -535l365 -547h-214l-250 405l-250 -405h-215l365 547l-354 535h214z" />
    <glyph glyph-name="y" unicode="y" horiz-adv-x="969" 
d="M494 271l251.999 810.997h198l-435 -1249c-10 -26.667 -23 -55.667 -39 -87s-36.833 -60.5 -62.5 -87.5s-56.5 -49.667 -92.5 -68s-78.333 -27.5 -127 -27.5c-7.33301 0 -16 0.666992 -26 2s-20 2.83301 -30 4.5s-19.333 3.33398 -28 5.00098
s-15.334 3.16699 -20.001 4.5v150c2.66699 -0.666992 6.33398 -1.16699 11.001 -1.5l14.5 -1c5 -0.333008 9.66699 -0.666016 14 -0.999023s7.83301 -0.5 10.5 -0.5c31.333 0 59 3 83 9s45.333 15.833 64 29.5s34.834 31.834 48.501 54.501s26.167 50.667 37.5 84l41 110
l-386 1070h202z" />
    <glyph glyph-name="z" unicode="z" horiz-adv-x="1015" 
d="M314 151h633v-151h-859v136l597 793h-588v153h820v-131z" />
    <glyph glyph-name="braceleft" unicode="{" horiz-adv-x="693" 
d="M632 -366c-68 19.333 -124.833 44.666 -170.5 75.999s-82.167 67 -109.5 107s-46.833 84 -58.5 132s-17.5 98 -17.5 150v206c0 36 -4 68.667 -12 98s-20.5 54.333 -37.5 75s-39 36.667 -66 48s-59.167 17 -96.5 17v145c74.667 0 128.667 21.333 162 64
s50 100.334 50 173.001v207c0 52.667 5.83301 102.834 17.5 150.501s31.167 91.667 58.5 132s63.833 76 109.5 107s102.5 56.167 170.5 75.5l38 -115c-39.333 -12.667 -72.333 -30.334 -99 -53.001s-48.167 -49.167 -64.5 -79.5s-28 -64 -35 -101
s-10.5 -75.833 -10.5 -116.5v-207c0 -67.333 -13.167 -128 -39.5 -182s-68.833 -96.667 -127.5 -128c58 -31.333 100.333 -74.166 127 -128.499s40 -114.833 40 -181.5v-206c0 -41.333 3.5 -80.333 10.5 -117s18.667 -70.167 35 -100.5s37.833 -56.833 64.5 -79.5
s59.667 -40.334 99 -53.001z" />
    <glyph glyph-name="bar" unicode="|" horiz-adv-x="499" 
d="M324 -270h-149v1726h149v-1726z" />
    <glyph glyph-name="braceright" unicode="}" horiz-adv-x="693" 
d="M19 -251c39.333 12.667 72.5 30.332 99.5 52.999s48.667 49.167 65 79.5s28 63.833 35 100.5s10.5 75.667 10.5 117v206c0 69.333 14.333 131 43 185s74.667 95.667 138 125c-63.333 28.667 -109.333 70 -138 124s-43 116 -43 186v207c0 40.667 -3.5 79.5 -10.5 116.5
s-18.667 70.667 -35 101s-37.833 56.833 -64.5 79.5s-59.667 40.334 -99 53.001l38 115c68 -19.333 124.833 -44.5 170.5 -75.5s82.334 -66.667 110.001 -107s47.167 -84.333 58.5 -132s17 -97.834 17 -150.501v-207c0 -36 4 -68.667 12 -98s20.5 -54.333 37.5 -75
s39 -36.5 66 -47.5s59.167 -16.5 96.5 -16.5v-145c-37.333 0 -69.5 -5.66699 -96.5 -17s-49 -27.333 -66 -48s-29.5 -45.667 -37.5 -75s-12 -62 -12 -98v-206c0 -52 -5.66699 -102 -17 -150s-30.833 -92 -58.5 -132s-64.334 -75.667 -110.001 -107
s-102.5 -56.666 -170.5 -75.999z" />
    <glyph glyph-name="asciitilde" unicode="~" horiz-adv-x="1393" 
d="M1263 777c0 -51.333 -8.00586 -99.667 -24.0059 -145s-38.333 -85 -67 -119s-62.834 -61 -102.501 -81s-83.167 -30 -130.5 -30c-29.333 0 -56.5 3 -81.5 9s-49.333 14.667 -73 26s-47 25.666 -70 42.999s-47.5 37.666 -73.5 60.999
c-34.667 31.333 -66.167 55.5 -94.5 72.5s-59.166 25.5 -92.499 25.5c-52 0 -92 -17.833 -120 -53.5s-42 -84.834 -42 -147.501l-161 -2c0 52 7.83301 100.333 23.5 145s37.834 83.334 66.501 116.001s62.667 58.334 102 77.001s83 28 131 28
c28.667 0 55.834 -3.16699 81.501 -9.5s50.334 -15.333 74.001 -27s47.167 -26.167 70.5 -43.5s47.333 -37 72 -59c18 -16.667 34.833 -31.167 50.5 -43.5s30.834 -22.5 45.501 -30.5s29.334 -14 44.001 -18s30.334 -6 47.001 -6c26 0 49.5 5.16699 70.5 15.5
s39 24.833 54 43.5s26.5 40.834 34.5 66.501s12 54.167 12 85.5z" />
    <glyph glyph-name="nonbreakingspace" unicode="&#xa0;" horiz-adv-x="507" 
 />
    <glyph glyph-name="exclamdown" unicode="&#xa1;" horiz-adv-x="499" 
d="M170 684h168l13 -1044h-194zM358 996c0 -30 -9.16699 -55.333 -27.5 -76s-45.5 -31 -81.5 -31s-63.333 10.333 -82 31s-28 46 -28 76s9.33301 55 28 75s46 30 82 30s63.167 -10 81.5 -30s27.5 -45 27.5 -75z" />
    <glyph glyph-name="cent" unicode="&#xa2;" horiz-adv-x="1121" 
d="M587 131c32.667 0 63.999 5.33398 93.999 16.001s56.5 25.334 79.5 44.001s41.667 40.834 56 66.501s22.833 53.5 25.5 83.5h175c-2 -42 -12.333 -82.5 -31 -121.5s-43.5 -74.167 -74.5 -105.5s-67.167 -58 -108.5 -80s-85.666 -37.333 -132.999 -46v-233h-186v235
c-64 11.333 -119.667 33.166 -167 65.499s-86.833 72.166 -118.5 119.499s-55.167 100.5 -70.5 159.5s-23 120.833 -23 185.5v42c0 64 7.83301 125.5 23.5 184.5s39.167 112.167 70.5 159.5s70.666 87.166 117.999 119.499s103 54.5 167 66.5v226h186v-223
c51.333 -8 97.833 -23.5 139.5 -46.5s77.5 -51.333 107.5 -85s53.667 -72.167 71 -115.5s27 -89.333 29 -138h-175c-2.66699 33.333 -10.5 64.5 -23.5 93.5s-30.5 54.333 -52.5 76s-48.167 38.834 -78.5 51.501s-64.166 19 -101.499 19
c-57.333 0 -104.833 -11.333 -142.5 -34s-68 -52.5 -91 -89.5s-39.167 -78.667 -48.5 -125s-14 -92.833 -14 -139.5v-42c0 -48 4.66699 -95.167 14 -141.5s25.333 -87.833 48 -124.5s53 -66.334 91 -89.001s86 -34 144 -34z" />
    <glyph glyph-name="sterling" unicode="&#xa3;" horiz-adv-x="1190" 
d="M449 622l8.00195 -219.996c0 -46.667 -5 -91.334 -15 -134.001s-25.667 -79.667 -47 -111h733l-1 -157h-1032v157h77c17.333 4 31.833 14.833 43.5 32.5s21.167 38.5 28.5 62.5s12.5 49.333 15.5 76s4.5 51 4.5 73l-8 221h-165v157h160l-9 260
c0 68.667 11.167 130.167 33.5 184.5s53.333 100.166 93 137.499s86.667 65.833 141 85.5s113.5 29.5 177.5 29.5c64.667 0 122.667 -9.5 174 -28.5s94.5 -45.5 129.5 -79.5s61.833 -74.833 80.5 -122.5s28 -100.5 28 -158.5h-191c0 42 -6.66699 77.5 -20 106.5
s-31 52.833 -53 71.5s-47.333 32.167 -76 40.5s-58.334 12.5 -89.001 12.5c-32.667 0 -63.334 -6.16699 -92.001 -18.5s-53.5 -30.333 -74.5 -54s-37.667 -52.834 -50 -87.501s-18.5 -74.334 -18.5 -119.001l9 -260h319v-157h-314z" />
    <glyph glyph-name="currency" unicode="&#xa4;" horiz-adv-x="1460" 
d="M1103 112c-50.667 -42 -107.167 -74.5 -169.5 -97.5s-128.5 -34.5 -198.5 -34.5c-69.333 0 -135 11.333 -197 34s-118.333 54.667 -169 96l-134 -136l-130 135l139 141c-33.333 50 -59 105.167 -77 165.5s-27 124.5 -27 192.5c0 70.667 9.83301 137 29.5 199
s47.167 118.667 82.5 170l-147 151l130 136l147 -150c50 38 104.667 67.5 164 88.5s122.333 31.5 189 31.5s130 -10.667 190 -32s115 -51 165 -89l149 152l132 -137l-151 -154c34.667 -51.333 61.667 -107.833 81 -169.5s29 -127.167 29 -196.5c0 -66.667 -9 -130 -27 -190
s-43 -115 -75 -165l143 -144l-132 -136zM311 608c0 -63.333 11.167 -122.666 33.5 -177.999s52.666 -103.666 90.999 -144.999s83.166 -74 134.499 -98s106.333 -36 165 -36c58 0 112.667 12 164 36s96.166 56.667 134.499 98s68.5 89.666 90.5 144.999
s33 114.666 33 177.999c0 62.667 -11 121.667 -33 177s-52.167 103.5 -90.5 144.5s-83.166 73.333 -134.499 97s-106 35.5 -164 35.5c-58.667 0 -113.667 -11.833 -165 -35.5s-96.166 -56 -134.499 -97s-68.666 -89.167 -90.999 -144.5s-33.5 -114.333 -33.5 -177z" />
    <glyph glyph-name="yen" unicode="&#xa5;" horiz-adv-x="1240" 
d="M614 782l364 674h219l-418 -720h312v-125h-384v-165h384v-124h-384v-322h-193v322h-378v124h378v165h-378v125h313l-418 720h220z" />
    <glyph glyph-name="brokenbar" unicode="&#xa6;" horiz-adv-x="491" 
d="M147 -270v791h186v-791h-186zM333 698h-186v758h186v-758z" />
    <glyph glyph-name="section" unicode="&#xa7;" horiz-adv-x="1256" 
d="M1145 431c0 -64 -16.335 -119.003 -49.002 -165.003s-78.334 -82.333 -137.001 -109c46 -32.667 81 -71.667 105 -117s36 -101.333 36 -168c0 -58 -11.667 -109.667 -35 -155s-56.166 -83.833 -98.499 -115.5s-93.5 -55.667 -153.5 -72s-127 -24.5 -201 -24.5
c-64 0 -127.333 7.33301 -190 22s-118.5 38.667 -167.5 72s-88.667 77.5 -119 132.5s-45.5 123.167 -45.5 204.5l186 2c0 -52.667 10.167 -97 30.5 -133s46.5 -65 78.5 -87s68 -37.667 108 -47s79.667 -14 119 -14c48 0 90.833 5.5 128.5 16.5s69.334 26 95.001 45
s45.167 41.5 58.5 67.5s20 54 20 84c0 30.667 -5.66699 57.5 -17 80.5s-30.5 44.167 -57.5 63.5s-63 37.833 -108 55.5s-101.167 36.5 -168.5 56.5c-73.333 19.333 -138.833 40.666 -196.5 63.999s-106.5 51.333 -146.5 84s-70.667 71.334 -92 116.001
s-32 98.334 -32 161.001c0 62 15.833 116.167 47.5 162.5s76.5 83.5 134.5 111.5c-44 32.667 -77.833 71.667 -101.5 117s-35.5 101.333 -35.5 168c0 55.333 11.5 105.5 34.5 150.5s55.833 83.5 98.5 115.5s94.167 56.667 154.5 74s127.5 26 201.5 26
c76.667 0 145.334 -9.5 206.001 -28.5s112.167 -46.667 154.5 -83s74.833 -81.333 97.5 -135s34 -115.167 34 -184.5h-185c0 38.667 -6.66699 75 -20 109s-33 63.667 -59 89s-58 45.333 -96 60s-82 22 -132 22c-52 0 -97.167 -5.66699 -135.5 -17
s-69.833 -26.666 -94.5 -45.999s-43 -42 -55 -68s-18 -53.333 -18 -82c0 -33.333 5 -61.833 15 -85.5s28 -45 54 -64s61.5 -37 106.5 -54s102.833 -35.167 173.5 -54.5c74.667 -20.667 141 -42.667 199 -66s107 -51.166 147 -83.499s70.5 -70.5 91.5 -114.5
s31.5 -97 31.5 -159zM601.998 690.997c-60 16 -115.001 32.998 -165.001 50.998c-53.333 -12.667 -92.5 -35.834 -117.5 -69.501s-37.5 -73.5 -37.5 -119.5c0 -34 5 -63.167 15 -87.5s28.333 -46.166 55 -65.499s62.834 -37.666 108.501 -54.999s104.167 -36 175.5 -56
l85 -25c26.667 -8 52 -16.667 76 -26c52 13.333 92 36.833 120 70.5s42 73.5 42 119.5c0 30.667 -5.83301 57.834 -17.5 81.501s-31.167 45.5 -58.5 65.5s-64 39.167 -110 57.5s-103 37.833 -171 58.5z" />
    <glyph glyph-name="dieresis" unicode="&#xa8;" horiz-adv-x="856" 
d="M102 1371c0 30 9.16699 55.167 27.5 75.5s45.5 30.5 81.5 30.5s63.333 -10.167 82 -30.5s28 -45.5 28 -75.5s-9.33301 -55 -28 -75s-46 -30 -82 -30s-63.167 10 -81.5 30s-27.5 45 -27.5 75zM532 1369c0 30 9.16699 55.333 27.5 76s45.5 31 81.5 31
s63.333 -10.333 82 -31s28 -46 28 -76s-9.33301 -55 -28 -75s-46 -30 -82 -30s-63.167 10 -81.5 30s-27.5 45 -27.5 75z" />
    <glyph glyph-name="copyright" unicode="&#xa9;" horiz-adv-x="1609" 
d="M1119 597c0 -52.667 -7.66699 -98.6621 -23 -137.995s-37.333 -72 -66 -98s-63.5 -45.5 -104.5 -58.5s-86.833 -19.5 -137.5 -19.5c-53.333 0 -101.333 9.33301 -144 28s-79 45 -109 79s-53 74.833 -69 122.5s-24 100.167 -24 157.5v116c0 57.333 8 109.666 24 156.999
s39 88 69 122s66.333 60.5 109 79.5s90.667 28.5 144 28.5c50.667 0 96.5 -6.5 137.5 -19.5s75.833 -32.5 104.5 -58.5s50.834 -58.667 66.501 -98s23.5 -85 23.5 -137h-146c0 66 -15.833 113.167 -47.5 141.5s-77.834 42.5 -138.501 42.5
c-33.333 0 -62.5 -6.33301 -87.5 -19s-46 -30.334 -63 -53.001s-29.833 -49.834 -38.5 -81.501s-13 -66.167 -13 -103.5v-117c0 -38 4.33301 -72.833 13 -104.5s21.5 -58.834 38.5 -81.501s38 -40.334 63 -53.001s54.167 -19 87.5 -19c61.333 0 107.5 14 138.5 42
s46.5 75.667 46.5 143h146zM206 729.005c0 -89.333 15.667 -172.333 47 -249s73.833 -143.334 127.5 -200.001s116.667 -101.167 189 -133.5s149.5 -48.5 231.5 -48.5s159 16.167 231 48.5s134.833 76.833 188.5 133.5s96.167 123.334 127.5 200.001s47 159.667 47 249
c0 88.667 -15.667 171.167 -47 247.5s-73.833 142.666 -127.5 198.999s-116.5 100.5 -188.5 132.5s-149 48 -231 48s-159.167 -16 -231.5 -48s-135.333 -76.167 -189 -132.5s-96.167 -122.666 -127.5 -198.999s-47 -158.833 -47 -247.5zM91 729.005
c0 70.667 8.5 138.167 25.5 202.5s40.833 124.166 71.5 179.499s67.667 105.5 111 150.5s91.333 83.333 144 115s109.167 56.167 169.5 73.5s123.166 26 188.499 26s128.166 -8.66699 188.499 -26s116.666 -41.833 168.999 -73.5s100.166 -70 143.499 -115
s80.333 -95.167 111 -150.5s54.5 -115.166 71.5 -179.499s25.5 -131.833 25.5 -202.5s-8.5 -138.167 -25.5 -202.5s-40.833 -124.333 -71.5 -180s-67.667 -106 -111 -151s-91.166 -83.667 -143.499 -116s-108.666 -57.166 -168.999 -74.499s-123.166 -26 -188.499 -26
s-128.166 8.66699 -188.499 26s-116.833 42.166 -169.5 74.499s-100.667 71 -144 116s-80.333 95.333 -111 151s-54.5 115.667 -71.5 180s-25.5 131.833 -25.5 202.5z" />
    <glyph glyph-name="ordfeminine" unicode="&#xaa;" horiz-adv-x="915" 
d="M618 705c-8 22.667 -13.999 46.665 -17.999 71.998c-20.667 -23.333 -47.834 -43.5 -81.501 -60.5s-74.5 -25.5 -122.5 -25.5c-40 0 -75.5 5.33301 -106.5 16s-57 26 -78 46s-37 44 -48 72s-16.5 59 -16.5 93c0 74 27.833 131 83.5 171s140.834 60 255.501 60h108v52
c0 44 -10.167 77.5 -30.5 100.5s-51.5 34.5 -93.5 34.5c-46 0 -82.167 -9 -108.5 -27s-39.5 -44 -39.5 -78l-161 12c0 34 7.33301 65.167 22 93.5s35.5 52.833 62.5 73.5s59.5 36.834 97.5 48.501s80.333 17.5 127 17.5c42.667 0 81.667 -5.83301 117 -17.5
s65.666 -29 90.999 -52s44.833 -51.667 58.5 -86s20.5 -74.5 20.5 -120.5v-314c0 -32.667 2 -63.667 6 -93s10.667 -58.666 20 -87.999h-165zM435.001 827.998c28.667 0 57.666 6.66797 86.999 20.001s53.333 29 72 47v142h-107c-30.667 0 -57.167 -3 -79.5 -9
s-40.666 -14.333 -54.999 -25s-25 -22.834 -32 -36.501s-10.5 -28.5 -10.5 -44.5c0 -29.333 10 -52.333 30 -69s51.667 -25 95 -25z" />
    <glyph glyph-name="guillemotleft" unicode="&#xab;" horiz-adv-x="961" 
d="M280 548l258 -397h-141l-295 388v19l295 389h141zM610 548l258 -397h-141l-295 388v19l295 389h141z" />
    <glyph glyph-name="logicalnot" unicode="&#xac;" horiz-adv-x="1134" 
d="M958 375h-186v264h-645v161h831v-425z" />
    <glyph glyph-name="uni00AD" unicode="&#xad;" horiz-adv-x="565" 
d="M525 543h-488v151h488v-151z" />
    <glyph glyph-name="registered" unicode="&#xae;" horiz-adv-x="1610" 
d="M90 729c0 70.667 8.5 138.167 25.5 202.5s40.833 124.166 71.5 179.499s67.667 105.5 111 150.5s91.333 83.333 144 115s109.167 56.167 169.5 73.5s123.166 26 188.499 26s128.166 -8.66699 188.499 -26s116.666 -41.833 168.999 -73.5s100.166 -70 143.499 -115
s80.333 -95.167 111 -150.5s54.5 -115.166 71.5 -179.499s25.5 -131.833 25.5 -202.5s-8.5 -138.167 -25.5 -202.5s-40.833 -124.333 -71.5 -180s-67.667 -106 -111 -151s-91.166 -83.667 -143.499 -116s-108.666 -57.166 -168.999 -74.499s-123.166 -26 -188.499 -26
s-128.166 8.66699 -188.499 26s-116.833 42.166 -169.5 74.499s-100.667 71 -144 116s-80.333 95.333 -111 151s-54.5 115.667 -71.5 180s-25.5 131.833 -25.5 202.5zM205 729c0 -89.333 15.667 -172.333 47 -249s73.833 -143.334 127.5 -200.001
s116.667 -101.167 189 -133.5s149.5 -48.5 231.5 -48.5s159 16.167 231 48.5s135 76.833 189 133.5s96.5 123.334 127.5 200.001s46.5 159.667 46.5 249c0 88.667 -15.5 171.167 -46.5 247.5s-73.5 142.666 -127.5 198.999s-117 100.5 -189 132.5s-149 48 -231 48
s-159.167 -16 -231.5 -48s-135.333 -76.167 -189 -132.5s-96.167 -122.666 -127.5 -198.999s-47 -158.833 -47 -247.5zM653 654l-0.00292969 -338h-141v849h276c49.333 0 93.833 -5.33301 133.5 -16s73.5 -26.5 101.5 -47.5s49.5 -47.667 64.5 -80s22.5 -69.833 22.5 -112.5
c0 -42 -10.833 -78.5 -32.5 -109.5s-53.5 -57.167 -95.5 -78.5c22.667 -9.33301 41.834 -21 57.501 -35s28.334 -29.833 38.001 -47.5s16.667 -37 21 -58s6.5 -43.167 6.5 -66.5v-55c0 -25.333 1.16699 -49 3.5 -71s6.83301 -40.667 13.5 -56v-16h-145
c-3.33301 8.66699 -6 19.667 -8 33s-3.5 27 -4.5 41s-1.5 27.333 -1.5 40v30v53c0 48 -11.167 83.5 -33.5 106.5s-60.166 34.5 -113.499 34.5h-163zM652.997 782l156 -0.000976562c21.333 0.666992 41.666 3.66699 60.999 9s36.333 13 51 23s26.334 22.5 35.001 37.5
s13 32.5 13 52.5c0 24.667 -3.16699 45.5 -9.5 62.5s-16.5 30.833 -30.5 41.5s-32.5 18.334 -55.5 23.001s-51.5 7 -85.5 7h-135v-256z" />
    <glyph glyph-name="macron" unicode="&#xaf;" horiz-adv-x="938" 
d="M834 1313h-714v143h714v-143z" />
    <glyph glyph-name="macron" unicode="&#x2c9;" horiz-adv-x="938" 
d="M834 1313h-714v143h714v-143z" />
    <glyph glyph-name="degree" unicode="&#xb0;" horiz-adv-x="765" 
d="M130 1216c0 35.333 6.83301 68.833 20.5 100.5s32 59.334 55 83.001s50 42.334 81 56.001s63.833 20.5 98.5 20.5s67.167 -6.83301 97.5 -20.5s56.833 -32.334 79.5 -56.001s40.667 -51.334 54 -83.001s20 -65.167 20 -100.5c0 -36 -6.66699 -69.5 -20 -100.5
s-31.333 -58 -54 -81s-49.167 -41.167 -79.5 -54.5s-62.833 -20 -97.5 -20s-67.5 6.66699 -98.5 20s-58 31.5 -81 54.5s-41.333 50 -55 81s-20.5 64.5 -20.5 100.5zM255 1216c0 -18.667 3.5 -35.834 10.5 -51.501s16.333 -29.167 28 -40.5s25.334 -20.166 41.001 -26.499
s32.5 -9.5 50.5 -9.5s34.833 3.16699 50.5 9.5s29.334 15.166 41.001 26.499s20.667 24.833 27 40.5s9.5 32.834 9.5 51.501s-3.16699 36.167 -9.5 52.5s-15.333 30.5 -27 42.5s-25.334 21.333 -41.001 28s-32.5 10 -50.5 10s-34.833 -3.33301 -50.5 -10
s-29.334 -16 -41.001 -28s-21 -26.167 -28 -42.5s-10.5 -33.833 -10.5 -52.5z" />
    <glyph glyph-name="plusminus" unicode="&#xb1;" horiz-adv-x="1095" 
d="M650 855h363v-152h-363v-414h-167v414h-386v152h386v412h167v-412zM970 1h-835v151h835v-151z" />
    <glyph glyph-name="twosuperior" unicode="&#xb2;" horiz-adv-x="751" 
d="M683 667h-599.001v108l288 271c44.667 40.667 76 75.667 94 105s27 55 27 77c0 32.667 -10.667 59.167 -32 79.5s-52 30.5 -92 30.5c-50 0 -86.833 -12.667 -110.5 -38s-35.5 -57 -35.5 -95h-157c0 36 6.83301 69.833 20.5 101.5s33.334 59.334 59.001 83.001
s57 42.5 94 56.5s78.833 21 125.5 21c44.667 0 84.667 -5.5 120 -16.5s65.333 -26.833 90 -47.5s43.5 -45.667 56.5 -75s19.5 -62 19.5 -98c0 -26.667 -4.5 -51.834 -13.5 -75.501s-21.667 -47 -38 -70s-36.333 -46.167 -60 -69.5l-79.5 -75l-176 -145h399v-128z" />
    <glyph glyph-name="threesuperior" unicode="&#xb3;" horiz-adv-x="751" 
d="M265 1125h83.998c49.333 0 86 10.167 110 30.5s36 46.5 36 78.5c0 30 -10.5 54.667 -31.5 74s-54.833 29 -101.5 29c-18.667 0 -36 -2.16699 -52 -6.5s-30 -10.5 -42 -18.5s-21.333 -17.667 -28 -29s-10 -24 -10 -38h-157c0 34 7.33301 64.5 22 91.5s35 50.167 61 69.5
s56.5 34.166 91.5 44.499s72.5 15.5 112.5 15.5c43.333 0 83 -4.83301 119 -14.5s66.833 -24 92.5 -43s45.667 -42.5 60 -70.5s21.5 -60.333 21.5 -97s-11.667 -70.167 -35 -100.5s-57 -53.833 -101 -70.5c51.333 -14 89 -36.667 113 -68s36 -70 36 -116
c0 -37.333 -7.83301 -70.333 -23.5 -99s-37.167 -52.667 -64.5 -72s-59.666 -34.166 -96.999 -44.499s-77.666 -15.5 -120.999 -15.5c-37.333 0 -73.833 4.5 -109.5 13.5s-67.5 23 -95.5 42s-50.5 43.167 -67.5 72.5s-25.5 64.333 -25.5 105h158c0 -30 13.167 -55 39.5 -75
s61.833 -30 106.5 -30c46.667 0 82.167 10 106.5 30s36.5 47 36.5 81c0 41.333 -14.5 70.833 -43.5 88.5s-67.833 26.5 -116.5 26.5h-84v116z" />
    <glyph glyph-name="acute" unicode="&#xb4;" horiz-adv-x="642" 
d="M316 1534h224l-268 -294h-149z" />
    <glyph glyph-name="mu" unicode="&#xb5;" horiz-adv-x="1160" 
d="M339 1082l0.000976562 -622c0 -68.667 5.66699 -124.5 17 -167.5s27 -76.5 47 -100.5s43.333 -40.333 70 -49s55.334 -13 86.001 -13c72 0 128.667 13.5 170 40.5s71.666 64.167 90.999 111.5v800h186v-1082h-166l-10 116c-28.667 -43.333 -64.667 -76.833 -108 -100.5
s-95 -35.5 -155 -35.5c-48.667 0 -91.834 5.83301 -129.501 17.5s-70.5 30.167 -98.5 55.5v-469h-185v1498h185z" />
    <glyph glyph-name="paragraph" unicode="&#xb6;" horiz-adv-x="1001" 
d="M646 0v520h-87c-79.333 0 -149.666 11.667 -210.999 35s-112.833 55.833 -154.5 97.5s-73.167 91.167 -94.5 148.5s-32 119.666 -32 186.999c0 66.667 10.667 128.667 32 186s52.833 106.833 94.5 148.5s93.167 74.334 154.5 98.001s131.666 35.5 210.999 35.5h273v-1456
h-186z" />
    <glyph glyph-name="periodcentered" unicode="&#xb7;" horiz-adv-x="534" 
d="M147 729c0 32 9.5 58.667 28.5 80s47.5 32 85.5 32s66.833 -10.667 86.5 -32s29.5 -48 29.5 -80c0 -31.333 -9.83301 -57.5 -29.5 -78.5s-48.5 -31.5 -86.5 -31.5s-66.5 10.5 -85.5 31.5s-28.5 47.167 -28.5 78.5z" />
    <glyph glyph-name="cedilla" unicode="&#xb8;" horiz-adv-x="507" 
d="M285 0l-12 -51.998c18.667 -3.33301 37.167 -8.83301 55.5 -16.5s34.833 -18.334 49.5 -32.001s26.334 -30.667 35.001 -51s13 -44.833 13 -73.5c0 -31.333 -6.5 -59.833 -19.5 -85.5s-32.333 -47.834 -58 -66.501s-57.334 -33 -95.001 -43s-81.167 -15 -130.5 -15
l-7 107c22.667 0 44.167 1.83301 64.5 5.5s38 9.5 53 17.5s26.833 18.333 35.5 31s13 27.667 13 45c0 16.667 -3.16699 30.5 -9.5 41.5s-16 20 -29 27s-29.833 12.5 -50.5 16.5s-45 7.33301 -73 10l32 134h133z" />
    <glyph glyph-name="onesuperior" unicode="&#xb9;" horiz-adv-x="697" 
d="M495 674h-157v601l-216 -57v128l355 117h18v-789z" />
    <glyph glyph-name="ordmasculine" unicode="&#xba;" horiz-adv-x="931" 
d="M122 1123c0 51.333 8.00098 98.666 24.001 141.999s38.833 80.666 68.5 111.999s65.667 55.666 108 72.999s89.5 26 141.5 26c53.333 0 101.166 -8.66699 143.499 -26s78.333 -41.666 108 -72.999s52.334 -68.666 68.001 -111.999s23.5 -90.666 23.5 -141.999v-80
c0 -51.333 -7.83301 -98.666 -23.5 -141.999s-38.334 -80.666 -68.001 -111.999s-65.5 -55.666 -107.5 -72.999s-89.333 -26 -142 -26s-100.167 8.66699 -142.5 26s-78.5 41.666 -108.5 72.999s-53 68.666 -69 111.999s-24 90.666 -24 141.999v80zM285.001 1043
c0 -30.667 3.66602 -59 10.999 -85s18.5 -48.5 33.5 -67.5s33.833 -34 56.5 -45s49.334 -16.5 80.001 -16.5c30 0 56.167 5.5 78.5 16.5s40.833 26 55.5 45s25.667 41.5 33 67.5s11 54.333 11 85v80c0 30 -3.66699 58 -11 84s-18.5 48.5 -33.5 67.5s-33.667 34 -56 45
s-48.833 16.5 -79.5 16.5c-30 0 -56.167 -5.5 -78.5 -16.5s-41 -26 -56 -45s-26.167 -41.5 -33.5 -67.5s-11 -54 -11 -84v-80z" />
    <glyph glyph-name="guillemotright" unicode="&#xbb;" horiz-adv-x="960" 
d="M244 949l295 -389v-19l-295 -389h-142l258 398l-258 399h142zM593 949l295 -389v-19l-295 -389h-142l258 398l-258 399h142z" />
    <glyph glyph-name="onequarter" unicode="&#xbc;" horiz-adv-x="1500" 
d="M458 664h-157v601l-216 -57v128l355 117h18v-789zM443 118l-104 66l711 1138l104 -66zM1318 299h107v-130h-107v-169h-157v169h-375l-6 102l377 518h161v-490zM938 299h223v289l-17 -28z" />
    <glyph glyph-name="onehalf" unicode="&#xbd;" horiz-adv-x="1589" 
d="M399 118l-104 66l711 1138l104 -66zM453 664h-157v601l-216 -57v128l355 117h18v-789zM1481 0h-599.001v108l288 271c44.667 40.667 76 75.667 94 105s27 55 27 77c0 32.667 -10.667 59.167 -32 79.5s-52 30.5 -92 30.5c-50 0 -86.833 -12.667 -110.5 -38
s-35.5 -57 -35.5 -95h-157c0 36 6.83301 69.833 20.5 101.5s33.334 59.334 59.001 83.001s57 42.5 94 56.5s78.833 21 125.5 21c44.667 0 84.667 -5.5 120 -16.5s65.333 -26.833 90 -47.5s43.5 -45.667 56.5 -75s19.5 -62 19.5 -98c0 -26.667 -4.5 -51.834 -13.5 -75.501
s-21.667 -47 -38 -70s-36.333 -46.167 -60 -69.5l-79.5 -75l-176 -145h399v-128z" />
    <glyph glyph-name="threequarters" unicode="&#xbe;" horiz-adv-x="1593" 
d="M570 118l-104 66l711 1138l104 -66zM1410 299h107v-130h-107v-169h-157v169h-375l-6 102l377 518h161v-490zM1030 299h223v289l-17 -28zM314 1126h83.998c49.333 0 86 10.167 110 30.5s36 46.5 36 78.5c0 30 -10.5 54.667 -31.5 74s-54.833 29 -101.5 29
c-18.667 0 -36 -2.16699 -52 -6.5s-30 -10.5 -42 -18.5s-21.333 -17.667 -28 -29s-10 -24 -10 -38h-157c0 34 7.33301 64.5 22 91.5s35 50.167 61 69.5s56.5 34.166 91.5 44.499s72.5 15.5 112.5 15.5c43.333 0 83 -4.83301 119 -14.5s66.833 -24 92.5 -43
s45.667 -42.5 60 -70.5s21.5 -60.333 21.5 -97s-11.667 -70.167 -35 -100.5s-57 -53.833 -101 -70.5c51.333 -14 89 -36.667 113 -68s36 -70 36 -116c0 -37.333 -7.83301 -70.333 -23.5 -99s-37.167 -52.667 -64.5 -72s-59.666 -34.166 -96.999 -44.499
s-77.666 -15.5 -120.999 -15.5c-37.333 0 -73.833 4.5 -109.5 13.5s-67.5 23 -95.5 42s-50.5 43.167 -67.5 72.5s-25.5 64.333 -25.5 105h158c0 -30 13.167 -55 39.5 -75s61.833 -30 106.5 -30c46.667 0 82.167 10 106.5 30s36.5 47 36.5 81
c0 41.333 -14.5 70.833 -43.5 88.5s-67.833 26.5 -116.5 26.5h-84v116z" />
    <glyph glyph-name="questiondown" unicode="&#xbf;" horiz-adv-x="969" 
d="M588 680c-0.666992 -48 -4.00488 -88.666 -10.0049 -121.999s-15.667 -63.666 -29 -90.999s-30.666 -54 -51.999 -80s-47.333 -55.667 -78 -89l-62 -66.5c-20 -21 -37.667 -43 -53 -66s-27.666 -47.833 -36.999 -74.5s-14 -57 -14 -91
c0 -72.667 19.333 -128.167 58 -166.5s94.334 -57.5 167.001 -57.5c28.667 0 56.667 4.16699 84 12.5s51.333 21 72 38s37.334 38.167 50.001 63.5s19 55.333 19 90h185c-0.666992 -56.667 -11.667 -107.5 -33 -152.5s-50.166 -83.333 -86.499 -115
s-79.333 -55.834 -129 -72.501s-103.5 -25 -161.5 -25c-65.333 0 -123.333 8.5 -174 25.5s-93.5 41.833 -128.5 74.5s-61.667 72.5 -80 119.5s-27.5 100.5 -27.5 160.5c0 45.333 7.16699 88 21.5 128s33 77.833 56 113.5s49.167 69.667 78.5 102s59 63.166 89 92.499
c36 34 60 71.5 72 112.5s18 86.5 18 136.5h185zM595.995 997.001c0 -30 -9.16699 -55.333 -27.5 -76s-45.5 -31 -81.5 -31s-63.333 10.333 -82 31s-28 46 -28 76c0 29.333 9.33301 54 28 74s46 30 82 30s63.167 -10 81.5 -30s27.5 -44.667 27.5 -74z" />
    <glyph glyph-name="Agrave" unicode="&#xc0;" 
d="M973 380h-610l-137 -380h-198l556 1456h168l557 -1456h-197zM421 538h495l-248 681zM778 1550h-159l-258 294h223z" />
    <glyph glyph-name="Aacute" unicode="&#xc1;" 
d="M973 380h-610l-137 -380h-198l556 1456h168l557 -1456h-197zM421 538h495l-248 681zM763 1844h224l-268 -294h-149z" />
    <glyph glyph-name="Acircumflex" unicode="&#xc2;" 
d="M973 380h-610l-137 -380h-198l556 1456h168l557 -1456h-197zM421 538h495l-248 681zM975 1572v-10h-153l-150 170l-149 -170h-153v12l246 272h112z" />
    <glyph glyph-name="Atilde" unicode="&#xc3;" 
d="M973 380h-610l-137 -380h-198l556 1456h168l557 -1456h-197zM421 538h495l-248 681zM1027 1814c0 -36.667 -5.50391 -70 -16.5039 -100s-26.333 -55.5 -46 -76.5s-42.5 -37.167 -68.5 -48.5s-54 -17 -84 -17c-34 0 -62 5 -84 15s-42 20.833 -60 32.5
s-36.333 22.5 -55 32.5s-42 15 -70 15c-14 0 -27 -2.83301 -39 -8.5s-22.5 -13.5 -31.5 -23.5s-16 -21.833 -21 -35.5s-7.5 -28.5 -7.5 -44.5l-124 7c0 36.667 5.5 70.167 16.5 100.5s26 56.333 45 78s41.667 38.5 68 50.5s54.5 18 84.5 18c28.667 0 53.834 -5 75.501 -15
s42.334 -21 62.001 -33s39.834 -23 60.501 -33s44.334 -15 71.001 -15c14 0 27 2.83301 39 8.5s22.5 13.667 31.5 24s16.167 22.333 21.5 36s8 28.5 8 44.5z" />
    <glyph glyph-name="Adieresis" unicode="&#xc4;" 
d="M973 380h-610l-137 -380h-198l556 1456h168l557 -1456h-197zM421 538h495l-248 681zM351 1681c0 30 9.16699 55.167 27.5 75.5s45.5 30.5 81.5 30.5s63.333 -10.167 82 -30.5s28 -45.5 28 -75.5s-9.33301 -55 -28 -75s-46 -30 -82 -30s-63.167 10 -81.5 30
s-27.5 45 -27.5 75zM781 1679c0 30 9.16699 55.333 27.5 76s45.5 31 81.5 31s63.333 -10.333 82 -31s28 -46 28 -76s-9.33301 -55 -28 -75s-46 -30 -82 -30s-63.167 10 -81.5 30s-27.5 45 -27.5 75z" />
    <glyph glyph-name="Aring" unicode="&#xc5;" 
d="M973 380h-610l-137 -380h-198l556 1456h168l557 -1456h-197zM421 538h495l-248 681zM457 1729c0 28.667 5.5 55.667 16.5 81s26.167 47.5 45.5 66.5s42 33.833 68 44.5s54.333 16 85 16c30 0 58.167 -5.33301 84.5 -16s49.166 -25.5 68.499 -44.5
s34.5 -41.167 45.5 -66.5s16.5 -52.333 16.5 -81c0 -29.333 -5.5 -56.333 -16.5 -81s-26.167 -46.167 -45.5 -64.5s-42.166 -32.666 -68.499 -42.999s-54.5 -15.5 -84.5 -15.5c-30.667 0 -59 5.16699 -85 15.5s-48.667 24.666 -68 42.999s-34.5 39.833 -45.5 64.5
s-16.5 51.667 -16.5 81zM556 1729c0 -14.667 2.83301 -28.999 8.5 -42.999s13.667 -26.333 24 -37s22.5 -19.167 36.5 -25.5s29.667 -9.5 47 -9.5c16.667 0 32.167 3.16699 46.5 9.5s26.666 14.666 36.999 24.999s18.333 22.5 24 36.5s8.5 28.667 8.5 44
c0 16 -2.83301 31 -8.5 45s-13.667 26.5 -24 37.5s-22.666 19.667 -36.999 26s-29.833 9.5 -46.5 9.5c-17.333 0 -33 -3.16699 -47 -9.5s-26.167 -15 -36.5 -26s-18.333 -23.5 -24 -37.5s-8.5 -29 -8.5 -45z" />
    <glyph glyph-name="AE" unicode="&#xc6;" horiz-adv-x="1914" 
d="M1879 0h-883l-15 353h-564l-205 -353h-226l880 1456h951v-152h-691l20 -471h590v-151h-584l22 -531h705v-151zM518 527h456l-31 733z" />
    <glyph glyph-name="Ccedilla" unicode="&#xc7;" horiz-adv-x="1333" 
d="M1240 462c-8 -68.667 -24.835 -132.501 -50.502 -191.501s-61.167 -110 -106.5 -153s-100.666 -76.667 -165.999 -101s-141.666 -36.5 -228.999 -36.5c-86 0 -164 16 -234 48s-129.833 77.5 -179.5 136.5s-88 129.833 -115 212.5s-40.5 175 -40.5 277v146
c0 102 13.667 194.5 41 277.5s66.333 154 117 213s112.167 104.667 184.5 137s153.5 48.5 243.5 48.5c82 0 154.667 -12 218 -36s117.166 -57.5 161.499 -100.5s79.5 -94.333 105.5 -154s42.667 -125.5 50 -197.5h-193c-7.33301 50.667 -18.666 96.334 -33.999 137.001
s-36.5 75.334 -63.5 104.001s-60.5 50.667 -100.5 66s-88 23 -144 23c-64.667 0 -121.5 -12.5 -170.5 -37.5s-90 -60 -123 -105s-57.833 -99.333 -74.5 -163s-25 -133.834 -25 -210.501v-148c0 -71.333 7.5 -138.333 22.5 -201s37.833 -117.5 68.5 -164.5
s69.667 -84 117 -111s103.333 -40.5 168 -40.5c61.333 0 113 7.33301 155 22s76.833 35.834 104.5 63.501s49.167 61.667 64.5 102s27 86.166 35 137.499h193zM750.998 -9.00098l-12 -51.998c18.667 -3.33301 37.167 -8.83301 55.5 -16.5s34.833 -18.334 49.5 -32.001
s26.334 -30.667 35.001 -51s13 -44.833 13 -73.5c0 -31.333 -6.5 -59.833 -19.5 -85.5s-32.333 -47.834 -58 -66.501s-57.334 -33 -95.001 -43s-81.167 -15 -130.5 -15l-7 107c22.667 0 44.167 1.83301 64.5 5.5s38 9.5 53 17.5s26.833 18.333 35.5 31s13 27.667 13 45
c0 16.667 -3.16699 30.5 -9.5 41.5s-16 20 -29 27s-29.833 12.5 -50.5 16.5s-45 7.33301 -73 10l32 134h133z" />
    <glyph glyph-name="Egrave" unicode="&#xc8;" horiz-adv-x="1164" 
d="M992 673h-631v-516h733v-157h-925v1456h915v-158h-723v-468h631v-157zM725 1562h-159l-258 294h223z" />
    <glyph glyph-name="Eacute" unicode="&#xc9;" horiz-adv-x="1164" 
d="M992 673h-631v-516h733v-157h-925v1456h915v-158h-723v-468h631v-157zM710 1856h224l-268 -294h-149z" />
    <glyph glyph-name="Ecircumflex" unicode="&#xca;" horiz-adv-x="1164" 
d="M992 673h-631v-516h733v-157h-925v1456h915v-158h-723v-468h631v-157zM922 1584v-10h-153l-150 170l-149 -170h-153v12l246 272h112z" />
    <glyph glyph-name="Edieresis" unicode="&#xcb;" horiz-adv-x="1164" 
d="M992 673h-631v-516h733v-157h-925v1456h915v-158h-723v-468h631v-157zM298 1693c0 30 9.16699 55.167 27.5 75.5s45.5 30.5 81.5 30.5s63.333 -10.167 82 -30.5s28 -45.5 28 -75.5s-9.33301 -55 -28 -75s-46 -30 -82 -30s-63.167 10 -81.5 30s-27.5 45 -27.5 75z
M728 1691c0 30 9.16699 55.333 27.5 76s45.5 31 81.5 31s63.333 -10.333 82 -31s28 -46 28 -76s-9.33301 -55 -28 -75s-46 -30 -82 -30s-63.167 10 -81.5 30s-27.5 45 -27.5 75z" />
    <glyph glyph-name="Igrave" unicode="&#xcc;" horiz-adv-x="557" 
d="M375 0h-192v1456h192v-1456zM385 1562h-159l-258 294h223z" />
    <glyph glyph-name="Iacute" unicode="&#xcd;" horiz-adv-x="557" 
d="M375 0h-192v1456h192v-1456zM369 1856h224l-268 -294h-149z" />
    <glyph glyph-name="Icircumflex" unicode="&#xce;" horiz-adv-x="557" 
d="M375 0h-192v1456h192v-1456zM582 1584v-10h-153l-150 170l-149 -170h-153v12l246 272h112z" />
    <glyph glyph-name="Idieresis" unicode="&#xcf;" horiz-adv-x="557" 
d="M375 0h-192v1456h192v-1456zM-42 1693c0 30 9.16699 55.167 27.5 75.5s45.5 30.5 81.5 30.5s63.333 -10.167 82 -30.5s28 -45.5 28 -75.5s-9.33301 -55 -28 -75s-46 -30 -82 -30s-63.167 10 -81.5 30s-27.5 45 -27.5 75zM388 1691c0 30 9.16699 55.333 27.5 76
s45.5 31 81.5 31s63.333 -10.333 82 -31s28 -46 28 -76s-9.33301 -55 -28 -75s-46 -30 -82 -30s-63.167 10 -81.5 30s-27.5 45 -27.5 75z" />
    <glyph glyph-name="Eth" unicode="&#xd0;" horiz-adv-x="1373" 
d="M199 0v666h-162v151h162v639h411c96 0 183.333 -16 262 -48s146.167 -77.667 202.5 -137s100 -131.333 131 -216s46.5 -179.667 46.5 -285v-86c0 -105.333 -15.5 -200.333 -46.5 -285s-75 -156.5 -132 -215.5s-126.167 -104.333 -207.5 -136s-172.333 -47.5 -273 -47.5
h-394zM673 666h-282v-509h202c77.333 0 145.333 12.5 204 37.5s107.667 60.5 147 106.5s68.833 101.333 88.5 166s29.5 137 29.5 217v89c0 83.333 -10 157.5 -30 222.5s-49.333 120 -88 165s-86 79.167 -142 102.5s-120 35 -192 35h-219v-481h282v-151z" />
    <glyph glyph-name="Ntilde" unicode="&#xd1;" horiz-adv-x="1460" 
d="M1288 0h-193l-733 1122v-1122h-193v1456h193l735 -1127v1127h191v-1456zM1081 1814c0 -36.667 -5.50391 -70 -16.5039 -100s-26.333 -55.5 -46 -76.5s-42.5 -37.167 -68.5 -48.5s-54 -17 -84 -17c-34 0 -62 5 -84 15s-42 20.833 -60 32.5s-36.333 22.5 -55 32.5
s-42 15 -70 15c-14 0 -27 -2.83301 -39 -8.5s-22.5 -13.5 -31.5 -23.5s-16 -21.833 -21 -35.5s-7.5 -28.5 -7.5 -44.5l-124 7c0 36.667 5.5 70.167 16.5 100.5s26 56.333 45 78s41.667 38.5 68 50.5s54.5 18 84.5 18c28.667 0 53.834 -5 75.501 -15s42.334 -21 62.001 -33
s39.834 -23 60.501 -33s44.334 -15 71.001 -15c14 0 27 2.83301 39 8.5s22.5 13.667 31.5 24s16.167 22.333 21.5 36s8 28.5 8 44.5z" />
    <glyph glyph-name="Ograve" unicode="&#xd2;" horiz-adv-x="1408" 
d="M1289 681c0 -109.333 -13.832 -207.166 -41.499 -293.499s-66.834 -159.833 -117.501 -220.5s-112 -107 -184 -139s-152.333 -48 -241 -48c-86 0 -165 16 -237 48s-134 78.333 -186 139s-92.333 134.167 -121 220.5s-43 184.166 -43 293.499v92
c0 108.667 14.333 206.5 43 293.5s68.667 160.833 120 221.5s113 107.167 185 139.5s151 48.5 237 48.5c88.667 0 169.167 -16.167 241.5 -48.5s134 -78.833 185 -139.5s90.333 -134.5 118 -221.5s41.5 -184.833 41.5 -293.5v-92zM1098 775
c0 86.667 -8.83594 163.334 -26.5029 230.001s-43.5 122.667 -77.5 168s-75.5 79.666 -124.5 102.999s-104.5 35 -166.5 35c-59.333 0 -113.333 -11.667 -162 -35s-90.167 -57.666 -124.5 -102.999s-60.833 -101.333 -79.5 -168s-28 -143.334 -28 -230.001v-94
c0 -87.333 9.5 -164.333 28.5 -231s45.833 -122.834 80.5 -168.501s76.334 -80.167 125.001 -103.5s102.667 -35 162 -35c62.667 0 118.334 11.667 167.001 35s89.834 57.833 123.501 103.5s59.167 101.834 76.5 168.501s26 143.667 26 231v94zM811.998 1552h-159l-258 294
h223z" />
    <glyph glyph-name="Oacute" unicode="&#xd3;" horiz-adv-x="1408" 
d="M1289 681c0 -109.333 -13.832 -207.166 -41.499 -293.499s-66.834 -159.833 -117.501 -220.5s-112 -107 -184 -139s-152.333 -48 -241 -48c-86 0 -165 16 -237 48s-134 78.333 -186 139s-92.333 134.167 -121 220.5s-43 184.166 -43 293.499v92
c0 108.667 14.333 206.5 43 293.5s68.667 160.833 120 221.5s113 107.167 185 139.5s151 48.5 237 48.5c88.667 0 169.167 -16.167 241.5 -48.5s134 -78.833 185 -139.5s90.333 -134.5 118 -221.5s41.5 -184.833 41.5 -293.5v-92zM1098 775
c0 86.667 -8.83594 163.334 -26.5029 230.001s-43.5 122.667 -77.5 168s-75.5 79.666 -124.5 102.999s-104.5 35 -166.5 35c-59.333 0 -113.333 -11.667 -162 -35s-90.167 -57.666 -124.5 -102.999s-60.833 -101.333 -79.5 -168s-28 -143.334 -28 -230.001v-94
c0 -87.333 9.5 -164.333 28.5 -231s45.833 -122.834 80.5 -168.501s76.334 -80.167 125.001 -103.5s102.667 -35 162 -35c62.667 0 118.334 11.667 167.001 35s89.834 57.833 123.501 103.5s59.167 101.834 76.5 168.501s26 143.667 26 231v94zM796.998 1846h224l-268 -294
h-149z" />
    <glyph glyph-name="Ocircumflex" unicode="&#xd4;" horiz-adv-x="1408" 
d="M1289 681c0 -109.333 -13.832 -207.166 -41.499 -293.499s-66.834 -159.833 -117.501 -220.5s-112 -107 -184 -139s-152.333 -48 -241 -48c-86 0 -165 16 -237 48s-134 78.333 -186 139s-92.333 134.167 -121 220.5s-43 184.166 -43 293.499v92
c0 108.667 14.333 206.5 43 293.5s68.667 160.833 120 221.5s113 107.167 185 139.5s151 48.5 237 48.5c88.667 0 169.167 -16.167 241.5 -48.5s134 -78.833 185 -139.5s90.333 -134.5 118 -221.5s41.5 -184.833 41.5 -293.5v-92zM1098 775
c0 86.667 -8.83594 163.334 -26.5029 230.001s-43.5 122.667 -77.5 168s-75.5 79.666 -124.5 102.999s-104.5 35 -166.5 35c-59.333 0 -113.333 -11.667 -162 -35s-90.167 -57.666 -124.5 -102.999s-60.833 -101.333 -79.5 -168s-28 -143.334 -28 -230.001v-94
c0 -87.333 9.5 -164.333 28.5 -231s45.833 -122.834 80.5 -168.501s76.334 -80.167 125.001 -103.5s102.667 -35 162 -35c62.667 0 118.334 11.667 167.001 35s89.834 57.833 123.501 103.5s59.167 101.834 76.5 168.501s26 143.667 26 231v94zM1009 1574v-10h-153l-150 170
l-149 -170h-153v12l246 272h112z" />
    <glyph glyph-name="Otilde" unicode="&#xd5;" horiz-adv-x="1408" 
d="M1289 681c0 -109.333 -13.832 -207.166 -41.499 -293.499s-66.834 -159.833 -117.501 -220.5s-112 -107 -184 -139s-152.333 -48 -241 -48c-86 0 -165 16 -237 48s-134 78.333 -186 139s-92.333 134.167 -121 220.5s-43 184.166 -43 293.499v92
c0 108.667 14.333 206.5 43 293.5s68.667 160.833 120 221.5s113 107.167 185 139.5s151 48.5 237 48.5c88.667 0 169.167 -16.167 241.5 -48.5s134 -78.833 185 -139.5s90.333 -134.5 118 -221.5s41.5 -184.833 41.5 -293.5v-92zM1098 775
c0 86.667 -8.83594 163.334 -26.5029 230.001s-43.5 122.667 -77.5 168s-75.5 79.666 -124.5 102.999s-104.5 35 -166.5 35c-59.333 0 -113.333 -11.667 -162 -35s-90.167 -57.666 -124.5 -102.999s-60.833 -101.333 -79.5 -168s-28 -143.334 -28 -230.001v-94
c0 -87.333 9.5 -164.333 28.5 -231s45.833 -122.834 80.5 -168.501s76.334 -80.167 125.001 -103.5s102.667 -35 162 -35c62.667 0 118.334 11.667 167.001 35s89.834 57.833 123.501 103.5s59.167 101.834 76.5 168.501s26 143.667 26 231v94zM1061 1816
c0 -36.667 -5.50391 -70 -16.5039 -100s-26.333 -55.5 -46 -76.5s-42.5 -37.167 -68.5 -48.5s-54 -17 -84 -17c-34 0 -62 5 -84 15s-42 20.833 -60 32.5s-36.333 22.5 -55 32.5s-42 15 -70 15c-14 0 -27 -2.83301 -39 -8.5s-22.5 -13.5 -31.5 -23.5s-16 -21.833 -21 -35.5
s-7.5 -28.5 -7.5 -44.5l-124 7c0 36.667 5.5 70.167 16.5 100.5s26 56.333 45 78s41.667 38.5 68 50.5s54.5 18 84.5 18c28.667 0 53.834 -5 75.501 -15s42.334 -21 62.001 -33s39.834 -23 60.501 -33s44.334 -15 71.001 -15c14 0 27 2.83301 39 8.5s22.5 13.667 31.5 24
s16.167 22.333 21.5 36s8 28.5 8 44.5z" />
    <glyph glyph-name="Odieresis" unicode="&#xd6;" horiz-adv-x="1408" 
d="M1289 681c0 -109.333 -13.832 -207.166 -41.499 -293.499s-66.834 -159.833 -117.501 -220.5s-112 -107 -184 -139s-152.333 -48 -241 -48c-86 0 -165 16 -237 48s-134 78.333 -186 139s-92.333 134.167 -121 220.5s-43 184.166 -43 293.499v92
c0 108.667 14.333 206.5 43 293.5s68.667 160.833 120 221.5s113 107.167 185 139.5s151 48.5 237 48.5c88.667 0 169.167 -16.167 241.5 -48.5s134 -78.833 185 -139.5s90.333 -134.5 118 -221.5s41.5 -184.833 41.5 -293.5v-92zM1098 775
c0 86.667 -8.83594 163.334 -26.5029 230.001s-43.5 122.667 -77.5 168s-75.5 79.666 -124.5 102.999s-104.5 35 -166.5 35c-59.333 0 -113.333 -11.667 -162 -35s-90.167 -57.666 -124.5 -102.999s-60.833 -101.333 -79.5 -168s-28 -143.334 -28 -230.001v-94
c0 -87.333 9.5 -164.333 28.5 -231s45.833 -122.834 80.5 -168.501s76.334 -80.167 125.001 -103.5s102.667 -35 162 -35c62.667 0 118.334 11.667 167.001 35s89.834 57.833 123.501 103.5s59.167 101.834 76.5 168.501s26 143.667 26 231v94zM384.998 1683
c0 30 9.16699 55.167 27.5 75.5s45.5 30.5 81.5 30.5s63.333 -10.167 82 -30.5s28 -45.5 28 -75.5s-9.33301 -55 -28 -75s-46 -30 -82 -30s-63.167 10 -81.5 30s-27.5 45 -27.5 75zM814.998 1681c0 30 9.16699 55.333 27.5 76s45.5 31 81.5 31s63.333 -10.333 82 -31
s28 -46 28 -76s-9.33301 -55 -28 -75s-46 -30 -82 -30s-63.167 10 -81.5 30s-27.5 45 -27.5 75z" />
    <glyph glyph-name="multiply" unicode="&#xd7;" horiz-adv-x="1092" 
d="M89 329l330 336l-328 335l119 123l329 -335l329 335l119 -123l-328 -335l330 -336l-119 -123l-331 337l-331 -337z" />
    <glyph glyph-name="Oslash" unicode="&#xd8;" horiz-adv-x="1409" 
d="M1289 681c0 -109.333 -13.833 -207.166 -41.5 -293.499s-66.834 -159.833 -117.501 -220.5s-112 -107 -184 -139s-152.333 -48 -241 -48c-114 0 -214.667 27.333 -302 82l-96 -155h-143l144 231c-60 60.667 -106.667 136.667 -140 228s-50 196.333 -50 315v92
c0 108.667 14.333 206.5 43 293.5s68.667 160.833 120 221.5s113 107.167 185 139.5s151 48.5 237 48.5c72.667 0 139.334 -10.667 200.001 -32s115 -52.333 163 -93l103 165h140l-159 -255c44.667 -60.667 79 -131.834 103 -213.501s36 -173.167 36 -274.5v-92zM309 681
c0 -83.333 8.33301 -157 25 -221s41 -118.667 73 -164l564 904c-66.667 74 -156 111 -268 111c-59.333 0 -113.333 -11.667 -162 -35s-90.167 -57.666 -124.5 -102.999s-60.833 -101.333 -79.5 -168s-28 -143.334 -28 -230.001v-94zM1098 775
c0 62.667 -4.83496 119.999 -14.502 171.999s-23.5 99 -41.5 141l-548 -881c58.667 -42.667 129 -64 211 -64c62.667 0 118.334 11.667 167.001 35s89.834 57.833 123.501 103.5s59.167 101.834 76.5 168.501s26 143.667 26 231v94z" />
    <glyph glyph-name="Ugrave" unicode="&#xd9;" horiz-adv-x="1328" 
d="M1194 1456l0.00195312 -986c0 -82 -14.333 -153.667 -43 -215s-67.167 -112.333 -115.5 -153s-104.5 -71.167 -168.5 -91.5s-131.333 -30.5 -202 -30.5c-74 0 -143 10.167 -207 30.5s-119.5 50.833 -166.5 91.5s-84 91.667 -111 153s-40.5 133 -40.5 215v986h190v-986
c0 -56.667 8.16699 -105.834 24.5 -147.501s39.166 -76.334 68.499 -104.001s64.5 -48.167 105.5 -61.5s86.5 -20 136.5 -20c50.667 0 96.667 6.66699 138 20s76.666 33.833 105.999 61.5s52 62.334 68 104.001s24 90.834 24 147.501v986h193zM773.002 1550h-159l-258 294
h223z" />
    <glyph glyph-name="Uacute" unicode="&#xda;" horiz-adv-x="1328" 
d="M1194 1456l0.00195312 -986c0 -82 -14.333 -153.667 -43 -215s-67.167 -112.333 -115.5 -153s-104.5 -71.167 -168.5 -91.5s-131.333 -30.5 -202 -30.5c-74 0 -143 10.167 -207 30.5s-119.5 50.833 -166.5 91.5s-84 91.667 -111 153s-40.5 133 -40.5 215v986h190v-986
c0 -56.667 8.16699 -105.834 24.5 -147.501s39.166 -76.334 68.499 -104.001s64.5 -48.167 105.5 -61.5s86.5 -20 136.5 -20c50.667 0 96.667 6.66699 138 20s76.666 33.833 105.999 61.5s52 62.334 68 104.001s24 90.834 24 147.501v986h193zM758.002 1844h224l-268 -294
h-149z" />
    <glyph glyph-name="Ucircumflex" unicode="&#xdb;" horiz-adv-x="1328" 
d="M1194 1456l0.00195312 -986c0 -82 -14.333 -153.667 -43 -215s-67.167 -112.333 -115.5 -153s-104.5 -71.167 -168.5 -91.5s-131.333 -30.5 -202 -30.5c-74 0 -143 10.167 -207 30.5s-119.5 50.833 -166.5 91.5s-84 91.667 -111 153s-40.5 133 -40.5 215v986h190v-986
c0 -56.667 8.16699 -105.834 24.5 -147.501s39.166 -76.334 68.499 -104.001s64.5 -48.167 105.5 -61.5s86.5 -20 136.5 -20c50.667 0 96.667 6.66699 138 20s76.666 33.833 105.999 61.5s52 62.334 68 104.001s24 90.834 24 147.501v986h193zM970.002 1572v-10h-153
l-150 170l-149 -170h-153v12l246 272h112z" />
    <glyph glyph-name="Udieresis" unicode="&#xdc;" horiz-adv-x="1328" 
d="M1194 1456l0.00195312 -986c0 -82 -14.333 -153.667 -43 -215s-67.167 -112.333 -115.5 -153s-104.5 -71.167 -168.5 -91.5s-131.333 -30.5 -202 -30.5c-74 0 -143 10.167 -207 30.5s-119.5 50.833 -166.5 91.5s-84 91.667 -111 153s-40.5 133 -40.5 215v986h190v-986
c0 -56.667 8.16699 -105.834 24.5 -147.501s39.166 -76.334 68.499 -104.001s64.5 -48.167 105.5 -61.5s86.5 -20 136.5 -20c50.667 0 96.667 6.66699 138 20s76.666 33.833 105.999 61.5s52 62.334 68 104.001s24 90.834 24 147.501v986h193zM346.002 1681
c0 30 9.16699 55.167 27.5 75.5s45.5 30.5 81.5 30.5s63.333 -10.167 82 -30.5s28 -45.5 28 -75.5s-9.33301 -55 -28 -75s-46 -30 -82 -30s-63.167 10 -81.5 30s-27.5 45 -27.5 75zM776.002 1679c0 30 9.16699 55.333 27.5 76s45.5 31 81.5 31s63.333 -10.333 82 -31
s28 -46 28 -76s-9.33301 -55 -28 -75s-46 -30 -82 -30s-63.167 10 -81.5 30s-27.5 45 -27.5 75z" />
    <glyph glyph-name="Yacute" unicode="&#xdd;" horiz-adv-x="1230" 
d="M613 725l380 731h218l-502 -913v-543h-192v543l-502 913h220zM708 1844h224l-268 -294h-149z" />
    <glyph glyph-name="Thorn" unicode="&#xde;" horiz-adv-x="1210" 
d="M352 1456v-293h277c78.667 0 148.334 -10.667 209.001 -32s111.667 -51 153 -89s72.666 -83 93.999 -135s32 -108.333 32 -169c0 -61.333 -10.667 -118 -32 -170s-52.666 -96.833 -93.999 -134.5s-92.333 -67.167 -153 -88.5s-130.334 -32 -209.001 -32h-277v-313h-186
v1456h186zM352 1011v-546.001h277c54 0 100 7.66699 138 23s69.167 35.833 93.5 61.5s42.166 54.667 53.499 87s17 65.5 17 99.5c0 34.667 -5.66699 68.5 -17 101.5s-29.166 62.333 -53.499 88s-55.5 46.334 -93.5 62.001s-84 23.5 -138 23.5h-277z" />
    <glyph glyph-name="germandbls" unicode="&#xdf;" horiz-adv-x="1218" 
d="M324 0l-185.002 0.00683594v1111c0 73.333 9.5 137.666 28.5 192.999s45.667 101.5 80 138.5s75.666 64.833 123.999 83.5s101.833 28 160.5 28c54 0 104.167 -6.66699 150.5 -20s86.166 -34 119.499 -62s59.5 -63.167 78.5 -105.5s28.5 -92.5 28.5 -150.5
c0 -36 -3.16699 -67.5 -9.5 -94.5s-14.166 -51.333 -23.499 -73s-19.666 -41.5 -30.999 -59.5s-21.666 -35.833 -30.999 -53.5s-17.166 -35.834 -23.499 -54.501s-9.5 -39.334 -9.5 -62.001c0 -30.667 8.66699 -58.334 26 -83.001s38.833 -48.334 64.5 -71.001
s53.667 -45.5 84 -68.5s58.333 -48 84 -75s47.167 -57.167 64.5 -90.5s26 -71.333 26 -114c0 -57.333 -9.66699 -107.166 -29 -149.499s-46 -77.333 -80 -105s-74.5 -48.334 -121.5 -62.001s-98.5 -20.5 -154.5 -20.5c-27.333 0 -56 2 -86 6s-58.667 9.33301 -86 16
s-52.333 14.334 -75 23.001s-40.334 17.667 -53.001 27l43 155c11.333 -7.33301 25.666 -15.333 42.999 -24s36.5 -16.834 57.5 -24.501s43.167 -14.167 66.5 -19.5s46.666 -8 69.999 -8c39.333 0 72.833 4.5 100.5 13.5s50.334 21.5 68.001 37.5s30.667 34.667 39 56
s12.5 44.333 12.5 69c0 31.333 -8.66699 59.666 -26 84.999s-39 49.5 -65 72.5s-54 46 -84 69s-58 48.333 -84 76s-47.667 58.5 -65 92.5s-26 73.667 -26 119c0 26.667 3.5 51 10.5 73s15.5 42.833 25.5 62.5s21.167 38.667 33.5 57s23.5 37.166 33.5 56.499
s18.5 39.5 25.5 60.5s10.5 44.5 10.5 70.5c0 33.333 -4.83301 62.5 -14.5 87.5s-23.167 46 -40.5 63s-37.666 29.667 -60.999 38s-48.666 12.5 -75.999 12.5c-69.333 0 -123 -23.5 -161 -70.5s-57 -120.5 -57 -220.5v-1111z" />
    <glyph glyph-name="agrave" unicode="&#xe0;" horiz-adv-x="1114" 
d="M808 0c-6.66699 13.333 -11.999 30.165 -15.999 50.498s-7.33301 41.5 -10 63.5c-17.333 -18 -36.833 -35.167 -58.5 -51.5s-45.334 -30.666 -71.001 -42.999s-53.5 -22 -83.5 -29s-61.667 -10.5 -95 -10.5c-55.333 0 -105.5 8.33301 -150.5 25
s-83.333 39.334 -115 68.001s-56.167 62.5 -73.5 101.5s-26 80.833 -26 125.5c0 58 11.333 109.167 34 153.5s55.167 81.5 97.5 111.5s93.5 52.667 153.5 68s127 23 201 23h184v85c0 64.667 -19.333 116.167 -58 154.5s-95.667 57.5 -171 57.5
c-34.667 0 -66.334 -4.66699 -95.001 -14s-53.167 -21.833 -73.5 -37.5s-36.166 -33.834 -47.499 -54.501s-17 -42.334 -17 -65.001h-186c0 38.667 10.167 77 30.5 115s49.166 72.167 86.499 102.5s82.5 55 135.5 74s112.167 28.5 177.5 28.5
c58.667 0 112.834 -7.5 162.501 -22.5s92.167 -37.667 127.5 -68s63 -68.166 83 -113.499s30 -98.333 30 -159v-503c0 -36.667 3.16699 -75.167 9.5 -115.5s15.833 -75.166 28.5 -104.499v-16h-194zM501.001 140.999c33.333 0 64.665 4.66699 93.998 14s56 21.5 80 36.5
s44.833 32.167 62.5 51.5s31.5 39.333 41.5 60v222h-154c-106 0 -187.667 -16.5 -245 -49.5s-86 -82.833 -86 -149.5c0 -26 4.33301 -50.333 13 -73s21.834 -42.167 39.501 -58.5s39.334 -29.333 65.001 -39s55.5 -14.5 89.5 -14.5zM687 1240h-159l-258 294h223z" />
    <glyph glyph-name="aacute" unicode="&#xe1;" horiz-adv-x="1114" 
d="M808 0c-6.66699 13.333 -11.999 30.165 -15.999 50.498s-7.33301 41.5 -10 63.5c-17.333 -18 -36.833 -35.167 -58.5 -51.5s-45.334 -30.666 -71.001 -42.999s-53.5 -22 -83.5 -29s-61.667 -10.5 -95 -10.5c-55.333 0 -105.5 8.33301 -150.5 25
s-83.333 39.334 -115 68.001s-56.167 62.5 -73.5 101.5s-26 80.833 -26 125.5c0 58 11.333 109.167 34 153.5s55.167 81.5 97.5 111.5s93.5 52.667 153.5 68s127 23 201 23h184v85c0 64.667 -19.333 116.167 -58 154.5s-95.667 57.5 -171 57.5
c-34.667 0 -66.334 -4.66699 -95.001 -14s-53.167 -21.833 -73.5 -37.5s-36.166 -33.834 -47.499 -54.501s-17 -42.334 -17 -65.001h-186c0 38.667 10.167 77 30.5 115s49.166 72.167 86.499 102.5s82.5 55 135.5 74s112.167 28.5 177.5 28.5
c58.667 0 112.834 -7.5 162.501 -22.5s92.167 -37.667 127.5 -68s63 -68.166 83 -113.499s30 -98.333 30 -159v-503c0 -36.667 3.16699 -75.167 9.5 -115.5s15.833 -75.166 28.5 -104.499v-16h-194zM501.001 140.999c33.333 0 64.665 4.66699 93.998 14s56 21.5 80 36.5
s44.833 32.167 62.5 51.5s31.5 39.333 41.5 60v222h-154c-106 0 -187.667 -16.5 -245 -49.5s-86 -82.833 -86 -149.5c0 -26 4.33301 -50.333 13 -73s21.834 -42.167 39.501 -58.5s39.334 -29.333 65.001 -39s55.5 -14.5 89.5 -14.5zM672 1534h224l-268 -294h-149z" />
    <glyph glyph-name="acircumflex" unicode="&#xe2;" horiz-adv-x="1114" 
d="M808 0c-6.66699 13.333 -11.999 30.165 -15.999 50.498s-7.33301 41.5 -10 63.5c-17.333 -18 -36.833 -35.167 -58.5 -51.5s-45.334 -30.666 -71.001 -42.999s-53.5 -22 -83.5 -29s-61.667 -10.5 -95 -10.5c-55.333 0 -105.5 8.33301 -150.5 25
s-83.333 39.334 -115 68.001s-56.167 62.5 -73.5 101.5s-26 80.833 -26 125.5c0 58 11.333 109.167 34 153.5s55.167 81.5 97.5 111.5s93.5 52.667 153.5 68s127 23 201 23h184v85c0 64.667 -19.333 116.167 -58 154.5s-95.667 57.5 -171 57.5
c-34.667 0 -66.334 -4.66699 -95.001 -14s-53.167 -21.833 -73.5 -37.5s-36.166 -33.834 -47.499 -54.501s-17 -42.334 -17 -65.001h-186c0 38.667 10.167 77 30.5 115s49.166 72.167 86.499 102.5s82.5 55 135.5 74s112.167 28.5 177.5 28.5
c58.667 0 112.834 -7.5 162.501 -22.5s92.167 -37.667 127.5 -68s63 -68.166 83 -113.499s30 -98.333 30 -159v-503c0 -36.667 3.16699 -75.167 9.5 -115.5s15.833 -75.166 28.5 -104.499v-16h-194zM501.001 140.999c33.333 0 64.665 4.66699 93.998 14s56 21.5 80 36.5
s44.833 32.167 62.5 51.5s31.5 39.333 41.5 60v222h-154c-106 0 -187.667 -16.5 -245 -49.5s-86 -82.833 -86 -149.5c0 -26 4.33301 -50.333 13 -73s21.834 -42.167 39.501 -58.5s39.334 -29.333 65.001 -39s55.5 -14.5 89.5 -14.5zM884 1262v-10h-153l-150 170l-149 -170
h-153v12l246 272h112z" />
    <glyph glyph-name="atilde" unicode="&#xe3;" horiz-adv-x="1114" 
d="M808 0c-6.66699 13.333 -11.999 30.165 -15.999 50.498s-7.33301 41.5 -10 63.5c-17.333 -18 -36.833 -35.167 -58.5 -51.5s-45.334 -30.666 -71.001 -42.999s-53.5 -22 -83.5 -29s-61.667 -10.5 -95 -10.5c-55.333 0 -105.5 8.33301 -150.5 25
s-83.333 39.334 -115 68.001s-56.167 62.5 -73.5 101.5s-26 80.833 -26 125.5c0 58 11.333 109.167 34 153.5s55.167 81.5 97.5 111.5s93.5 52.667 153.5 68s127 23 201 23h184v85c0 64.667 -19.333 116.167 -58 154.5s-95.667 57.5 -171 57.5
c-34.667 0 -66.334 -4.66699 -95.001 -14s-53.167 -21.833 -73.5 -37.5s-36.166 -33.834 -47.499 -54.501s-17 -42.334 -17 -65.001h-186c0 38.667 10.167 77 30.5 115s49.166 72.167 86.499 102.5s82.5 55 135.5 74s112.167 28.5 177.5 28.5
c58.667 0 112.834 -7.5 162.501 -22.5s92.167 -37.667 127.5 -68s63 -68.166 83 -113.499s30 -98.333 30 -159v-503c0 -36.667 3.16699 -75.167 9.5 -115.5s15.833 -75.166 28.5 -104.499v-16h-194zM501.001 140.999c33.333 0 64.665 4.66699 93.998 14s56 21.5 80 36.5
s44.833 32.167 62.5 51.5s31.5 39.333 41.5 60v222h-154c-106 0 -187.667 -16.5 -245 -49.5s-86 -82.833 -86 -149.5c0 -26 4.33301 -50.333 13 -73s21.834 -42.167 39.501 -58.5s39.334 -29.333 65.001 -39s55.5 -14.5 89.5 -14.5zM936 1504
c0 -36.667 -5.50391 -70 -16.5039 -100s-26.333 -55.5 -46 -76.5s-42.5 -37.167 -68.5 -48.5s-54 -17 -84 -17c-34 0 -62 5 -84 15s-42 20.833 -60 32.5s-36.333 22.5 -55 32.5s-42 15 -70 15c-14 0 -27 -2.83301 -39 -8.5s-22.5 -13.5 -31.5 -23.5s-16 -21.833 -21 -35.5
s-7.5 -28.5 -7.5 -44.5l-124 7c0 36.667 5.5 70.167 16.5 100.5s26 56.333 45 78s41.667 38.5 68 50.5s54.5 18 84.5 18c28.667 0 53.834 -5 75.501 -15s42.334 -21 62.001 -33s39.834 -23 60.501 -33s44.334 -15 71.001 -15c14 0 27 2.83301 39 8.5s22.5 13.667 31.5 24
s16.167 22.333 21.5 36s8 28.5 8 44.5z" />
    <glyph glyph-name="adieresis" unicode="&#xe4;" horiz-adv-x="1114" 
d="M808 0c-6.66699 13.333 -11.999 30.165 -15.999 50.498s-7.33301 41.5 -10 63.5c-17.333 -18 -36.833 -35.167 -58.5 -51.5s-45.334 -30.666 -71.001 -42.999s-53.5 -22 -83.5 -29s-61.667 -10.5 -95 -10.5c-55.333 0 -105.5 8.33301 -150.5 25
s-83.333 39.334 -115 68.001s-56.167 62.5 -73.5 101.5s-26 80.833 -26 125.5c0 58 11.333 109.167 34 153.5s55.167 81.5 97.5 111.5s93.5 52.667 153.5 68s127 23 201 23h184v85c0 64.667 -19.333 116.167 -58 154.5s-95.667 57.5 -171 57.5
c-34.667 0 -66.334 -4.66699 -95.001 -14s-53.167 -21.833 -73.5 -37.5s-36.166 -33.834 -47.499 -54.501s-17 -42.334 -17 -65.001h-186c0 38.667 10.167 77 30.5 115s49.166 72.167 86.499 102.5s82.5 55 135.5 74s112.167 28.5 177.5 28.5
c58.667 0 112.834 -7.5 162.501 -22.5s92.167 -37.667 127.5 -68s63 -68.166 83 -113.499s30 -98.333 30 -159v-503c0 -36.667 3.16699 -75.167 9.5 -115.5s15.833 -75.166 28.5 -104.499v-16h-194zM501.001 140.999c33.333 0 64.665 4.66699 93.998 14s56 21.5 80 36.5
s44.833 32.167 62.5 51.5s31.5 39.333 41.5 60v222h-154c-106 0 -187.667 -16.5 -245 -49.5s-86 -82.833 -86 -149.5c0 -26 4.33301 -50.333 13 -73s21.834 -42.167 39.501 -58.5s39.334 -29.333 65.001 -39s55.5 -14.5 89.5 -14.5zM260 1371c0 30 9.16699 55.167 27.5 75.5
s45.5 30.5 81.5 30.5s63.333 -10.167 82 -30.5s28 -45.5 28 -75.5s-9.33301 -55 -28 -75s-46 -30 -82 -30s-63.167 10 -81.5 30s-27.5 45 -27.5 75zM690 1369c0 30 9.16699 55.333 27.5 76s45.5 31 81.5 31s63.333 -10.333 82 -31s28 -46 28 -76s-9.33301 -55 -28 -75
s-46 -30 -82 -30s-63.167 10 -81.5 30s-27.5 45 -27.5 75z" />
    <glyph glyph-name="aring" unicode="&#xe5;" horiz-adv-x="1114" 
d="M808 0c-6.66699 13.333 -11.999 30.165 -15.999 50.498s-7.33301 41.5 -10 63.5c-17.333 -18 -36.833 -35.167 -58.5 -51.5s-45.334 -30.666 -71.001 -42.999s-53.5 -22 -83.5 -29s-61.667 -10.5 -95 -10.5c-55.333 0 -105.5 8.33301 -150.5 25
s-83.333 39.334 -115 68.001s-56.167 62.5 -73.5 101.5s-26 80.833 -26 125.5c0 58 11.333 109.167 34 153.5s55.167 81.5 97.5 111.5s93.5 52.667 153.5 68s127 23 201 23h184v85c0 64.667 -19.333 116.167 -58 154.5s-95.667 57.5 -171 57.5
c-34.667 0 -66.334 -4.66699 -95.001 -14s-53.167 -21.833 -73.5 -37.5s-36.166 -33.834 -47.499 -54.501s-17 -42.334 -17 -65.001h-186c0 38.667 10.167 77 30.5 115s49.166 72.167 86.499 102.5s82.5 55 135.5 74s112.167 28.5 177.5 28.5
c58.667 0 112.834 -7.5 162.501 -22.5s92.167 -37.667 127.5 -68s63 -68.166 83 -113.499s30 -98.333 30 -159v-503c0 -36.667 3.16699 -75.167 9.5 -115.5s15.833 -75.166 28.5 -104.499v-16h-194zM501.001 140.999c33.333 0 64.665 4.66699 93.998 14s56 21.5 80 36.5
s44.833 32.167 62.5 51.5s31.5 39.333 41.5 60v222h-154c-106 0 -187.667 -16.5 -245 -49.5s-86 -82.833 -86 -149.5c0 -26 4.33301 -50.333 13 -73s21.834 -42.167 39.501 -58.5s39.334 -29.333 65.001 -39s55.5 -14.5 89.5 -14.5zM366 1419c0 28.667 5.5 55.667 16.5 81
s26.167 47.5 45.5 66.5s42 33.833 68 44.5s54.333 16 85 16c30 0 58.167 -5.33301 84.5 -16s49.166 -25.5 68.499 -44.5s34.5 -41.167 45.5 -66.5s16.5 -52.333 16.5 -81c0 -29.333 -5.5 -56.333 -16.5 -81s-26.167 -46.167 -45.5 -64.5s-42.166 -32.666 -68.499 -42.999
s-54.5 -15.5 -84.5 -15.5c-30.667 0 -59 5.16699 -85 15.5s-48.667 24.666 -68 42.999s-34.5 39.833 -45.5 64.5s-16.5 51.667 -16.5 81zM465 1419c0 -14.667 2.83301 -28.999 8.5 -42.999s13.667 -26.333 24 -37s22.5 -19.167 36.5 -25.5s29.667 -9.5 47 -9.5
c16.667 0 32.167 3.16699 46.5 9.5s26.666 14.666 36.999 24.999s18.333 22.5 24 36.5s8.5 28.667 8.5 44c0 16 -2.83301 31 -8.5 45s-13.667 26.5 -24 37.5s-22.666 19.667 -36.999 26s-29.833 9.5 -46.5 9.5c-17.333 0 -33 -3.16699 -47 -9.5s-26.167 -15 -36.5 -26
s-18.333 -23.5 -24 -37.5s-8.5 -29 -8.5 -45z" />
    <glyph glyph-name="ae" unicode="&#xe6;" horiz-adv-x="1729" 
d="M1262 -20c-90 0 -168.002 15.8301 -234.002 47.4971s-120.333 75.834 -163 132.501c-16.667 -22 -38 -43.833 -64 -65.5s-56.833 -41 -92.5 -58s-76.5 -30.667 -122.5 -41s-97 -15.5 -153 -15.5c-57.333 0 -108 7.66699 -152 23s-81 37 -111 65s-52.833 62 -68.5 102
s-23.5 84.667 -23.5 134c0 104.667 37.833 186 113.5 244s187.167 87 334.5 87h223v85c0 71.333 -18.333 127.5 -55 168.5s-89.667 61.5 -159 61.5c-37.333 0 -71 -5.16699 -101 -15.5s-55.667 -24.166 -77 -41.499s-37.833 -37.5 -49.5 -60.5s-17.5 -47.5 -17.5 -73.5
l-184 19c0 46.667 10.333 89.834 31 129.501s49.834 73.834 87.501 102.501s82.834 51.167 135.501 67.5s111 24.5 175 24.5c76.667 0 144.334 -13.833 203.001 -41.5s104.667 -69.167 138 -124.5c42 52.667 92 93.5 150 122.5s122 43.5 192 43.5
c72 0 135.5 -11.333 190.5 -34s101.167 -55.167 138.5 -97.5s65.5 -93.5 84.5 -153.5s28.5 -127.333 28.5 -202v-118h-728c2 -51.333 9.83301 -99.333 23.5 -144s34 -83.5 61 -116.5s60.833 -59 101.5 -78s88.667 -28.5 144 -28.5c39.333 0 74.833 3.5 106.5 10.5
s60.167 15.667 85.5 26s48.166 21.833 68.499 34.5l55.5 36l64 -136c-11.333 -8.66699 -27.333 -19.834 -48 -33.501s-46.667 -27 -78 -40s-68 -24.167 -110 -33.5s-90 -14 -144 -14zM468.998 129.997c25.333 0 51.333 3.5 78 10.5s52.5 16.5 77.5 28.5
s48.167 25.667 69.5 41s39.666 31.333 54.999 48v237h-221c-43.333 0 -81.5 -5.33301 -114.5 -16s-60.5 -25 -82.5 -43s-38.667 -38.667 -50 -62s-17 -48 -17 -74c0 -24 4.16699 -46.333 12.5 -67s20.833 -38.667 37.5 -54s37.834 -27.333 63.501 -36s56.167 -13 91.5 -13z
M1218 949.997c-40 0 -76.167 -7.83301 -108.5 -23.5s-60.333 -37.5 -84 -65.5s-43 -60.833 -58 -98.5s-25.167 -78.5 -30.5 -122.5h538v31c0 38 -4.66699 73.833 -14 107.5s-24.166 63.167 -44.499 88.5s-46.833 45.5 -79.5 60.5s-72.334 22.5 -119.001 22.5z" />
    <glyph glyph-name="ccedilla" unicode="&#xe7;" horiz-adv-x="1072" 
d="M574 131c32.667 0 63.999 5.33301 93.999 16s56.5 25.334 79.5 44.001s41.667 40.834 56 66.501s22.833 53.5 25.5 83.5h175c-2.66699 -48 -15.834 -93.833 -39.501 -137.5s-54.834 -82 -93.501 -115s-83.5 -59.333 -134.5 -79s-105.167 -29.5 -162.5 -29.5
c-81.333 0 -152.166 14.5 -212.499 43.5s-110.5 68.167 -150.5 117.5s-69.833 106.666 -89.5 171.999s-29.5 134.333 -29.5 207v42c0 72.667 9.83301 141.667 29.5 207s49.5 122.666 89.5 171.999s90 88.5 150 117.5s130.667 43.5 212 43.5c63.333 0 120.833 -10 172.5 -30
s96.334 -47.5 134.001 -82.5s67.167 -76.5 88.5 -124.5s33.333 -99.667 36 -155h-175c-2.66699 33.333 -10.5 64.5 -23.5 93.5s-30.5 54.333 -52.5 76s-48.167 38.834 -78.5 51.501s-64.166 19 -101.499 19c-57.333 0 -104.833 -11.333 -142.5 -34s-68 -52.5 -91 -89.5
s-39.167 -78.667 -48.5 -125s-14 -92.833 -14 -139.5v-42c0 -48 4.66699 -95.167 14 -141.5s25.333 -87.833 48 -124.5s53 -66.334 91 -89.001s86 -34 144 -34zM603.999 -9l-12 -51.998c18.667 -3.33301 37.167 -8.83301 55.5 -16.5s34.833 -18.334 49.5 -32.001
s26.334 -30.667 35.001 -51s13 -44.833 13 -73.5c0 -31.333 -6.5 -59.833 -19.5 -85.5s-32.333 -47.834 -58 -66.501s-57.334 -33 -95.001 -43s-81.167 -15 -130.5 -15l-7 107c22.667 0 44.167 1.83301 64.5 5.5s38 9.5 53 17.5s26.833 18.333 35.5 31s13 27.667 13 45
c0 16.667 -3.16699 30.5 -9.5 41.5s-16 20 -29 27s-29.833 12.5 -50.5 16.5s-45 7.33301 -73 10l32 134h133z" />
    <glyph glyph-name="egrave" unicode="&#xe8;" horiz-adv-x="1085" 
d="M589 -20c-75.333 0 -143.499 13.002 -204.499 39.002s-113.167 62.167 -156.5 108.5s-76.666 101.5 -99.999 165.5s-35 134 -35 210v42c0 88 13.167 166.667 39.5 236s61.5 127.666 105.5 174.999s94.333 83.5 151 108.5s115.667 37.5 177 37.5
c77.333 0 144 -13.5 200 -40.5s102.167 -64.167 138.5 -111.5s63.166 -103.333 80.499 -168s26 -135 26 -211v-83h-733c1.33301 -50 9.5 -96.667 24.5 -140s36.333 -81 64 -113s61 -57.333 100 -76s83.167 -28 132.5 -28c65.333 0 120.666 13.333 165.999 40s85 62 119 106
l113 -88c-17.333 -26.667 -38.333 -52.5 -63 -77.5s-53.5 -47.333 -86.5 -67s-70.833 -35.334 -113.5 -47.001s-91 -17.5 -145 -17.5zM566.001 950.002c-37.333 0 -71.667 -6.83301 -103 -20.5s-59.333 -33.5 -84 -59.5s-45.167 -58.333 -61.5 -97s-27.5 -83 -33.5 -133h542
v14c-2 36 -7.83301 71.667 -17.5 107s-24.667 67 -45 95s-46.5 50.667 -78.5 68s-71.667 26 -119 26zM671 1240h-159l-258 294h223z" />
    <glyph glyph-name="eacute" unicode="&#xe9;" horiz-adv-x="1085" 
d="M589 -20c-75.333 0 -143.499 13.002 -204.499 39.002s-113.167 62.167 -156.5 108.5s-76.666 101.5 -99.999 165.5s-35 134 -35 210v42c0 88 13.167 166.667 39.5 236s61.5 127.666 105.5 174.999s94.333 83.5 151 108.5s115.667 37.5 177 37.5
c77.333 0 144 -13.5 200 -40.5s102.167 -64.167 138.5 -111.5s63.166 -103.333 80.499 -168s26 -135 26 -211v-83h-733c1.33301 -50 9.5 -96.667 24.5 -140s36.333 -81 64 -113s61 -57.333 100 -76s83.167 -28 132.5 -28c65.333 0 120.666 13.333 165.999 40s85 62 119 106
l113 -88c-17.333 -26.667 -38.333 -52.5 -63 -77.5s-53.5 -47.333 -86.5 -67s-70.833 -35.334 -113.5 -47.001s-91 -17.5 -145 -17.5zM566.001 950.002c-37.333 0 -71.667 -6.83301 -103 -20.5s-59.333 -33.5 -84 -59.5s-45.167 -58.333 -61.5 -97s-27.5 -83 -33.5 -133h542
v14c-2 36 -7.83301 71.667 -17.5 107s-24.667 67 -45 95s-46.5 50.667 -78.5 68s-71.667 26 -119 26zM656 1534h224l-268 -294h-149z" />
    <glyph glyph-name="ecircumflex" unicode="&#xea;" horiz-adv-x="1085" 
d="M589 -20c-75.333 0 -143.499 13.002 -204.499 39.002s-113.167 62.167 -156.5 108.5s-76.666 101.5 -99.999 165.5s-35 134 -35 210v42c0 88 13.167 166.667 39.5 236s61.5 127.666 105.5 174.999s94.333 83.5 151 108.5s115.667 37.5 177 37.5
c77.333 0 144 -13.5 200 -40.5s102.167 -64.167 138.5 -111.5s63.166 -103.333 80.499 -168s26 -135 26 -211v-83h-733c1.33301 -50 9.5 -96.667 24.5 -140s36.333 -81 64 -113s61 -57.333 100 -76s83.167 -28 132.5 -28c65.333 0 120.666 13.333 165.999 40s85 62 119 106
l113 -88c-17.333 -26.667 -38.333 -52.5 -63 -77.5s-53.5 -47.333 -86.5 -67s-70.833 -35.334 -113.5 -47.001s-91 -17.5 -145 -17.5zM566.001 950.002c-37.333 0 -71.667 -6.83301 -103 -20.5s-59.333 -33.5 -84 -59.5s-45.167 -58.333 -61.5 -97s-27.5 -83 -33.5 -133h542
v14c-2 36 -7.83301 71.667 -17.5 107s-24.667 67 -45 95s-46.5 50.667 -78.5 68s-71.667 26 -119 26zM868 1262v-10h-153l-150 170l-149 -170h-153v12l246 272h112z" />
    <glyph glyph-name="edieresis" unicode="&#xeb;" horiz-adv-x="1085" 
d="M589 -20c-75.333 0 -143.499 13.002 -204.499 39.002s-113.167 62.167 -156.5 108.5s-76.666 101.5 -99.999 165.5s-35 134 -35 210v42c0 88 13.167 166.667 39.5 236s61.5 127.666 105.5 174.999s94.333 83.5 151 108.5s115.667 37.5 177 37.5
c77.333 0 144 -13.5 200 -40.5s102.167 -64.167 138.5 -111.5s63.166 -103.333 80.499 -168s26 -135 26 -211v-83h-733c1.33301 -50 9.5 -96.667 24.5 -140s36.333 -81 64 -113s61 -57.333 100 -76s83.167 -28 132.5 -28c65.333 0 120.666 13.333 165.999 40s85 62 119 106
l113 -88c-17.333 -26.667 -38.333 -52.5 -63 -77.5s-53.5 -47.333 -86.5 -67s-70.833 -35.334 -113.5 -47.001s-91 -17.5 -145 -17.5zM566.001 950.002c-37.333 0 -71.667 -6.83301 -103 -20.5s-59.333 -33.5 -84 -59.5s-45.167 -58.333 -61.5 -97s-27.5 -83 -33.5 -133h542
v14c-2 36 -7.83301 71.667 -17.5 107s-24.667 67 -45 95s-46.5 50.667 -78.5 68s-71.667 26 -119 26zM244 1371c0 30 9.16699 55.167 27.5 75.5s45.5 30.5 81.5 30.5s63.333 -10.167 82 -30.5s28 -45.5 28 -75.5s-9.33301 -55 -28 -75s-46 -30 -82 -30s-63.167 10 -81.5 30
s-27.5 45 -27.5 75zM674 1369c0 30 9.16699 55.333 27.5 76s45.5 31 81.5 31s63.333 -10.333 82 -31s28 -46 28 -76s-9.33301 -55 -28 -75s-46 -30 -82 -30s-63.167 10 -81.5 30s-27.5 45 -27.5 75z" />
    <glyph glyph-name="igrave" unicode="&#xec;" horiz-adv-x="506" 
d="M341 0h-186v1082h186v-1082zM359 1239h-159l-258 294h223z" />
    <glyph glyph-name="iacute" unicode="&#xed;" horiz-adv-x="506" 
d="M341 0h-186v1082h186v-1082zM343 1533h224l-268 -294h-149z" />
    <glyph glyph-name="icircumflex" unicode="&#xee;" horiz-adv-x="506" 
d="M341 0h-186v1082h186v-1082zM556 1261v-10h-153l-150 170l-149 -170h-153v12l246 272h112z" />
    <glyph glyph-name="idieresis" unicode="&#xef;" horiz-adv-x="506" 
d="M341 0h-186v1082h186v-1082zM-68 1370c0 30 9.16699 55.167 27.5 75.5s45.5 30.5 81.5 30.5s63.333 -10.167 82 -30.5s28 -45.5 28 -75.5s-9.33301 -55 -28 -75s-46 -30 -82 -30s-63.167 10 -81.5 30s-27.5 45 -27.5 75zM362 1368c0 30 9.16699 55.333 27.5 76
s45.5 31 81.5 31s63.333 -10.333 82 -31s28 -46 28 -76s-9.33301 -55 -28 -75s-46 -30 -82 -30s-63.167 10 -81.5 30s-27.5 45 -27.5 75z" />
    <glyph glyph-name="eth" unicode="&#xf0;" horiz-adv-x="1200" 
d="M820 1301c78.667 -83.333 139.832 -180.832 183.499 -292.499s65.5 -236.834 65.5 -375.501v-98c0 -82 -11.667 -157.167 -35 -225.5s-55.833 -126.833 -97.5 -175.5s-91 -86.5 -148 -113.5s-119.167 -40.5 -186.5 -40.5c-70 0 -134.167 12.667 -192.5 38
s-108.5 59.833 -150.5 103.5s-74.667 95.167 -98 154.5s-35 123 -35 191c0 76.667 11.167 146.5 33.5 209.5s53.5 116.667 93.5 161s87.333 78.666 142 102.999s114.334 36.5 179.001 36.5c56.667 0 109.167 -10.5 157.5 -31.5s90.5 -48.5 126.5 -82.5
c-17.333 70 -42.166 132.5 -74.499 187.5s-70.5 104.5 -114.5 148.5l-218 -148l-73 99l192 131c-47.333 32.667 -97.333 60.334 -150 83.001s-107.667 41.667 -165 57l57 159c79.333 -18 153.666 -43.167 222.999 -75.5s133 -71.5 191 -117.5l189 129l73 -100z
M883.998 635.001c0 9.33301 -0.166992 18.6689 -0.5 28.002s-0.833008 18.666 -1.5 27.999c-9.33301 17.333 -21.833 34 -37.5 50s-34.5 30.333 -56.5 43s-47.167 22.667 -75.5 30s-59.833 11 -94.5 11c-49.333 0 -93 -8.33301 -131 -25s-70 -40.5 -96 -71.5
s-45.833 -68.667 -59.5 -113s-20.5 -93.833 -20.5 -148.5c0 -41.333 6.5 -82 19.5 -122s32 -75.833 57 -107.5s55.833 -57.334 92.5 -77.001s78.667 -29.5 126 -29.5c42.667 0 81.167 10.167 115.5 30.5s63.5 48.5 87.5 84.5s42.5 78.667 55.5 128s19.5 103 19.5 161v100z
" />
    <glyph glyph-name="ntilde" unicode="&#xf1;" horiz-adv-x="1130" 
d="M315 1082l5.99609 -136.001c38.667 48.667 85.334 86.834 140.001 114.501s116 41.5 184 41.5c52.667 0 100.334 -7.16699 143.001 -21.5s79 -37.333 109 -69s53.167 -72.334 69.5 -122.001s24.5 -109.834 24.5 -180.501v-709h-185v711c0 42 -4.66699 77.833 -14 107.5
s-23.166 53.834 -41.499 72.501s-41 32.334 -68 41.001s-58.167 13 -93.5 13c-60 0 -112.667 -16 -158 -48s-80.666 -74 -105.999 -126v-771h-185v1082h175zM926.996 1504c0 -36.667 -5.50391 -70 -16.5039 -100s-26.333 -55.5 -46 -76.5s-42.5 -37.167 -68.5 -48.5
s-54 -17 -84 -17c-34 0 -62 5 -84 15s-42 20.833 -60 32.5s-36.333 22.5 -55 32.5s-42 15 -70 15c-14 0 -27 -2.83301 -39 -8.5s-22.5 -13.5 -31.5 -23.5s-16 -21.833 -21 -35.5s-7.5 -28.5 -7.5 -44.5l-124 7c0 36.667 5.5 70.167 16.5 100.5s26 56.333 45 78
s41.667 38.5 68 50.5s54.5 18 84.5 18c28.667 0 53.834 -5 75.501 -15s42.334 -21 62.001 -33s39.834 -23 60.501 -33s44.334 -15 71.001 -15c14 0 27 2.83301 39 8.5s22.5 13.667 31.5 24s16.167 22.333 21.5 36s8 28.5 8 44.5z" />
    <glyph glyph-name="ograve" unicode="&#xf2;" horiz-adv-x="1168" 
d="M91 551c0 78.667 11.502 151.5 34.502 218.5s55.667 125.167 98 174.5s93.833 88 154.5 116s128.667 42 204 42c76.667 0 145.5 -14 206.5 -42s112.833 -66.667 155.5 -116s75.334 -107.5 98.001 -174.5s34 -139.833 34 -218.5v-22c0 -78.667 -11.333 -151.5 -34 -218.5
s-55.334 -125 -98.001 -174s-94.334 -87.333 -155.001 -115s-129 -41.5 -205 -41.5s-144.333 13.833 -205 41.5s-112.334 66 -155.001 115s-75.5 107 -98.5 174s-34.5 139.833 -34.5 218.5v22zM277.002 529c0 -54 6.33398 -105 19.001 -153s31.834 -90.167 57.501 -126.5
s57.667 -65.166 96 -86.499s83.166 -32 134.499 -32c50.667 0 95.334 10.667 134.001 32s70.667 50.166 96 86.499s44.5 78.5 57.5 126.5s19.5 99 19.5 153v22c0 53.333 -6.5 104.166 -19.5 152.499s-32.333 90.666 -58 126.999s-57.834 65.333 -96.501 87
s-83.667 32.5 -135 32.5c-50.667 0 -95 -10.833 -133 -32.5s-69.833 -50.667 -95.5 -87s-44.834 -78.666 -57.501 -126.999s-19 -99.166 -19 -152.499v-22zM682.003 1240h-159l-258 294h223z" />
    <glyph glyph-name="oacute" unicode="&#xf3;" horiz-adv-x="1168" 
d="M91 551c0 78.667 11.502 151.5 34.502 218.5s55.667 125.167 98 174.5s93.833 88 154.5 116s128.667 42 204 42c76.667 0 145.5 -14 206.5 -42s112.833 -66.667 155.5 -116s75.334 -107.5 98.001 -174.5s34 -139.833 34 -218.5v-22c0 -78.667 -11.333 -151.5 -34 -218.5
s-55.334 -125 -98.001 -174s-94.334 -87.333 -155.001 -115s-129 -41.5 -205 -41.5s-144.333 13.833 -205 41.5s-112.334 66 -155.001 115s-75.5 107 -98.5 174s-34.5 139.833 -34.5 218.5v22zM277.002 529c0 -54 6.33398 -105 19.001 -153s31.834 -90.167 57.501 -126.5
s57.667 -65.166 96 -86.499s83.166 -32 134.499 -32c50.667 0 95.334 10.667 134.001 32s70.667 50.166 96 86.499s44.5 78.5 57.5 126.5s19.5 99 19.5 153v22c0 53.333 -6.5 104.166 -19.5 152.499s-32.333 90.666 -58 126.999s-57.834 65.333 -96.501 87
s-83.667 32.5 -135 32.5c-50.667 0 -95 -10.833 -133 -32.5s-69.833 -50.667 -95.5 -87s-44.834 -78.666 -57.501 -126.999s-19 -99.166 -19 -152.499v-22zM667.003 1534h224l-268 -294h-149z" />
    <glyph glyph-name="ocircumflex" unicode="&#xf4;" horiz-adv-x="1168" 
d="M91 551c0 78.667 11.502 151.5 34.502 218.5s55.667 125.167 98 174.5s93.833 88 154.5 116s128.667 42 204 42c76.667 0 145.5 -14 206.5 -42s112.833 -66.667 155.5 -116s75.334 -107.5 98.001 -174.5s34 -139.833 34 -218.5v-22c0 -78.667 -11.333 -151.5 -34 -218.5
s-55.334 -125 -98.001 -174s-94.334 -87.333 -155.001 -115s-129 -41.5 -205 -41.5s-144.333 13.833 -205 41.5s-112.334 66 -155.001 115s-75.5 107 -98.5 174s-34.5 139.833 -34.5 218.5v22zM277.002 529c0 -54 6.33398 -105 19.001 -153s31.834 -90.167 57.501 -126.5
s57.667 -65.166 96 -86.499s83.166 -32 134.499 -32c50.667 0 95.334 10.667 134.001 32s70.667 50.166 96 86.499s44.5 78.5 57.5 126.5s19.5 99 19.5 153v22c0 53.333 -6.5 104.166 -19.5 152.499s-32.333 90.666 -58 126.999s-57.834 65.333 -96.501 87
s-83.667 32.5 -135 32.5c-50.667 0 -95 -10.833 -133 -32.5s-69.833 -50.667 -95.5 -87s-44.834 -78.666 -57.501 -126.999s-19 -99.166 -19 -152.499v-22zM879.003 1262v-10h-153l-150 170l-149 -170h-153v12l246 272h112z" />
    <glyph glyph-name="otilde" unicode="&#xf5;" horiz-adv-x="1168" 
d="M91 551c0 78.667 11.502 151.5 34.502 218.5s55.667 125.167 98 174.5s93.833 88 154.5 116s128.667 42 204 42c76.667 0 145.5 -14 206.5 -42s112.833 -66.667 155.5 -116s75.334 -107.5 98.001 -174.5s34 -139.833 34 -218.5v-22c0 -78.667 -11.333 -151.5 -34 -218.5
s-55.334 -125 -98.001 -174s-94.334 -87.333 -155.001 -115s-129 -41.5 -205 -41.5s-144.333 13.833 -205 41.5s-112.334 66 -155.001 115s-75.5 107 -98.5 174s-34.5 139.833 -34.5 218.5v22zM277.002 529c0 -54 6.33398 -105 19.001 -153s31.834 -90.167 57.501 -126.5
s57.667 -65.166 96 -86.499s83.166 -32 134.499 -32c50.667 0 95.334 10.667 134.001 32s70.667 50.166 96 86.499s44.5 78.5 57.5 126.5s19.5 99 19.5 153v22c0 53.333 -6.5 104.166 -19.5 152.499s-32.333 90.666 -58 126.999s-57.834 65.333 -96.501 87
s-83.667 32.5 -135 32.5c-50.667 0 -95 -10.833 -133 -32.5s-69.833 -50.667 -95.5 -87s-44.834 -78.666 -57.501 -126.999s-19 -99.166 -19 -152.499v-22zM931.003 1504c0 -36.667 -5.50391 -70 -16.5039 -100s-26.333 -55.5 -46 -76.5s-42.5 -37.167 -68.5 -48.5
s-54 -17 -84 -17c-34 0 -62 5 -84 15s-42 20.833 -60 32.5s-36.333 22.5 -55 32.5s-42 15 -70 15c-14 0 -27 -2.83301 -39 -8.5s-22.5 -13.5 -31.5 -23.5s-16 -21.833 -21 -35.5s-7.5 -28.5 -7.5 -44.5l-124 7c0 36.667 5.5 70.167 16.5 100.5s26 56.333 45 78
s41.667 38.5 68 50.5s54.5 18 84.5 18c28.667 0 53.834 -5 75.501 -15s42.334 -21 62.001 -33s39.834 -23 60.501 -33s44.334 -15 71.001 -15c14 0 27 2.83301 39 8.5s22.5 13.667 31.5 24s16.167 22.333 21.5 36s8 28.5 8 44.5z" />
    <glyph glyph-name="odieresis" unicode="&#xf6;" horiz-adv-x="1168" 
d="M91 551c0 78.667 11.502 151.5 34.502 218.5s55.667 125.167 98 174.5s93.833 88 154.5 116s128.667 42 204 42c76.667 0 145.5 -14 206.5 -42s112.833 -66.667 155.5 -116s75.334 -107.5 98.001 -174.5s34 -139.833 34 -218.5v-22c0 -78.667 -11.333 -151.5 -34 -218.5
s-55.334 -125 -98.001 -174s-94.334 -87.333 -155.001 -115s-129 -41.5 -205 -41.5s-144.333 13.833 -205 41.5s-112.334 66 -155.001 115s-75.5 107 -98.5 174s-34.5 139.833 -34.5 218.5v22zM277.002 529c0 -54 6.33398 -105 19.001 -153s31.834 -90.167 57.501 -126.5
s57.667 -65.166 96 -86.499s83.166 -32 134.499 -32c50.667 0 95.334 10.667 134.001 32s70.667 50.166 96 86.499s44.5 78.5 57.5 126.5s19.5 99 19.5 153v22c0 53.333 -6.5 104.166 -19.5 152.499s-32.333 90.666 -58 126.999s-57.834 65.333 -96.501 87
s-83.667 32.5 -135 32.5c-50.667 0 -95 -10.833 -133 -32.5s-69.833 -50.667 -95.5 -87s-44.834 -78.666 -57.501 -126.999s-19 -99.166 -19 -152.499v-22zM255.003 1371c0 30 9.16699 55.167 27.5 75.5s45.5 30.5 81.5 30.5s63.333 -10.167 82 -30.5s28 -45.5 28 -75.5
s-9.33301 -55 -28 -75s-46 -30 -82 -30s-63.167 10 -81.5 30s-27.5 45 -27.5 75zM685.003 1369c0 30 9.16699 55.333 27.5 76s45.5 31 81.5 31s63.333 -10.333 82 -31s28 -46 28 -76s-9.33301 -55 -28 -75s-46 -30 -82 -30s-63.167 10 -81.5 30s-27.5 45 -27.5 75z" />
    <glyph glyph-name="divide" unicode="&#xf7;" horiz-adv-x="1169" 
d="M1069 600h-998v184h998v-184zM461 1098c0 32 9.5 58.667 28.5 80s47.5 32 85.5 32s66.833 -10.667 86.5 -32s29.5 -48 29.5 -80c0 -31.333 -9.83301 -57.333 -29.5 -78s-48.5 -31 -86.5 -31s-66.5 10.333 -85.5 31s-28.5 46.667 -28.5 78zM461 281
c0 32 9.5 58.667 28.5 80s47.5 32 85.5 32s66.833 -10.667 86.5 -32s29.5 -48 29.5 -80c0 -30.667 -9.83301 -56.5 -29.5 -77.5s-48.5 -31.5 -86.5 -31.5s-66.5 10.5 -85.5 31.5s-28.5 46.833 -28.5 77.5z" />
    <glyph glyph-name="oslash" unicode="&#xf8;" horiz-adv-x="1161" 
d="M91 551c0 78.667 11.5 151.5 34.5 218.5s55.667 125.167 98 174.5s93.833 88 154.5 116s128.667 42 204 42c38 0 74 -3.66699 108 -11s66.333 -17.666 97 -30.999l73 149h123l-102 -206c62.667 -49.333 110.834 -112.833 144.501 -190.5s50.5 -164.834 50.5 -261.501v-22
c0 -78.667 -11.333 -151.5 -34 -218.5s-55.334 -125 -98.001 -174s-94.334 -87.333 -155.001 -115s-129 -41.5 -205 -41.5c-35.333 0 -68.666 3 -99.999 9s-61.333 14.667 -90 26l-74 -150h-123l100 204c-66 48 -116.833 111.833 -152.5 191.5s-53.5 169.167 -53.5 268.5v22
zM277 529c0 -60.667 7.99902 -117.502 23.999 -170.502s40.333 -98.167 73 -135.5l342 695c-19.333 10 -40.166 17.833 -62.499 23.5s-46.166 8.5 -71.499 8.5c-50.667 0 -95 -10.833 -133 -32.5s-69.833 -50.667 -95.5 -87s-44.834 -78.666 -57.501 -126.999
s-19 -99.166 -19 -152.499v-22zM890.999 550.998c0 56.667 -7.33398 110.334 -22.001 161.001s-36.667 94.667 -66 132l-340 -688c36.667 -16.667 77 -25 121 -25c50.667 0 95.334 10.667 134.001 32s70.667 50.166 96 86.499s44.5 78.5 57.5 126.5s19.5 99 19.5 153v22z
" />
    <glyph glyph-name="ugrave" unicode="&#xf9;" horiz-adv-x="1129" 
d="M808 107c-34 -40 -77.002 -71.166 -129.002 -93.499s-114.667 -33.5 -188 -33.5c-53.333 0 -101.666 7.5 -144.999 22.5s-80.666 38.667 -111.999 71s-55.5 74 -72.5 125s-25.5 112.5 -25.5 184.5v699h185v-701c0 -48.667 5.66699 -88.834 17 -120.501
s26.333 -56.667 45 -75s40 -31 64 -38s48.667 -10.5 74 -10.5c75.333 0 135.833 14.333 181.5 43s79.167 67 100.5 115v787h185v-1082h-176zM672.998 1240h-159l-258 294h223z" />
    <glyph glyph-name="uacute" unicode="&#xfa;" horiz-adv-x="1129" 
d="M808 107c-34 -40 -77.002 -71.166 -129.002 -93.499s-114.667 -33.5 -188 -33.5c-53.333 0 -101.666 7.5 -144.999 22.5s-80.666 38.667 -111.999 71s-55.5 74 -72.5 125s-25.5 112.5 -25.5 184.5v699h185v-701c0 -48.667 5.66699 -88.834 17 -120.501
s26.333 -56.667 45 -75s40 -31 64 -38s48.667 -10.5 74 -10.5c75.333 0 135.833 14.333 181.5 43s79.167 67 100.5 115v787h185v-1082h-176zM657.998 1534h224l-268 -294h-149z" />
    <glyph glyph-name="ucircumflex" unicode="&#xfb;" horiz-adv-x="1129" 
d="M808 107c-34 -40 -77.002 -71.166 -129.002 -93.499s-114.667 -33.5 -188 -33.5c-53.333 0 -101.666 7.5 -144.999 22.5s-80.666 38.667 -111.999 71s-55.5 74 -72.5 125s-25.5 112.5 -25.5 184.5v699h185v-701c0 -48.667 5.66699 -88.834 17 -120.501
s26.333 -56.667 45 -75s40 -31 64 -38s48.667 -10.5 74 -10.5c75.333 0 135.833 14.333 181.5 43s79.167 67 100.5 115v787h185v-1082h-176zM869.998 1262v-10h-153l-150 170l-149 -170h-153v12l246 272h112z" />
    <glyph glyph-name="udieresis" unicode="&#xfc;" horiz-adv-x="1129" 
d="M808 107c-34 -40 -77.002 -71.166 -129.002 -93.499s-114.667 -33.5 -188 -33.5c-53.333 0 -101.666 7.5 -144.999 22.5s-80.666 38.667 -111.999 71s-55.5 74 -72.5 125s-25.5 112.5 -25.5 184.5v699h185v-701c0 -48.667 5.66699 -88.834 17 -120.501
s26.333 -56.667 45 -75s40 -31 64 -38s48.667 -10.5 74 -10.5c75.333 0 135.833 14.333 181.5 43s79.167 67 100.5 115v787h185v-1082h-176zM245.998 1371c0 30 9.16699 55.167 27.5 75.5s45.5 30.5 81.5 30.5s63.333 -10.167 82 -30.5s28 -45.5 28 -75.5
s-9.33301 -55 -28 -75s-46 -30 -82 -30s-63.167 10 -81.5 30s-27.5 45 -27.5 75zM675.998 1369c0 30 9.16699 55.333 27.5 76s45.5 31 81.5 31s63.333 -10.333 82 -31s28 -46 28 -76s-9.33301 -55 -28 -75s-46 -30 -82 -30s-63.167 10 -81.5 30s-27.5 45 -27.5 75z" />
    <glyph glyph-name="yacute" unicode="&#xfd;" horiz-adv-x="969" 
d="M494 271l251.999 810.997h198l-435 -1249c-10 -26.667 -23 -55.667 -39 -87s-36.833 -60.5 -62.5 -87.5s-56.5 -49.667 -92.5 -68s-78.333 -27.5 -127 -27.5c-7.33301 0 -16 0.666992 -26 2s-20 2.83301 -30 4.5s-19.333 3.33398 -28 5.00098
s-15.334 3.16699 -20.001 4.5v150c2.66699 -0.666992 6.33398 -1.16699 11.001 -1.5l14.5 -1c5 -0.333008 9.66699 -0.666016 14 -0.999023s7.83301 -0.5 10.5 -0.5c31.333 0 59 3 83 9s45.333 15.833 64 29.5s34.834 31.834 48.501 54.501s26.167 50.667 37.5 84l41 110
l-386 1070h202zM598.999 1534h224l-268 -294h-149z" />
    <glyph glyph-name="thorn" unicode="&#xfe;" horiz-adv-x="1180" 
d="M1063 529c0 -79.333 -9.33398 -152.5 -28.001 -219.5s-45.834 -125 -81.501 -174s-79.5 -87.167 -131.5 -114.5s-111.333 -41 -178 -41c-68 0 -127.5 10.667 -178.5 32s-94.833 52.333 -131.5 93v-521h-185v1952h185v-566c36.667 42.667 80.334 75.334 131.001 98.001
s109.334 34 176.001 34c68 0 128.167 -13.333 180.5 -40s96.5 -64.167 132.5 -112.5s63.167 -106.333 81.5 -174s27.5 -142.834 27.5 -225.501v-21zM877.999 550c0 54 -5.66504 104.829 -16.998 152.496s-29 89.5 -53 125.5s-54.333 64.5 -91 85.5
s-80.334 31.5 -131.001 31.5c-31.333 0 -59.833 -3.66699 -85.5 -11s-48.834 -17.666 -69.501 -30.999s-39 -29.166 -55 -47.499s-30 -38.166 -42 -59.499v-517c12 -21.333 26 -41.166 42 -59.499s34.333 -34 55 -47s44 -23.167 70 -30.5s55 -11 87 -11
c50 0 93.167 10.667 129.5 32s66.5 50 90.5 86s41.667 78.167 53 126.5s17 99.5 17 153.5v21z" />
    <glyph glyph-name="ydieresis" unicode="&#xff;" horiz-adv-x="969" 
d="M494 271l251.999 810.997h198l-435 -1249c-10 -26.667 -23 -55.667 -39 -87s-36.833 -60.5 -62.5 -87.5s-56.5 -49.667 -92.5 -68s-78.333 -27.5 -127 -27.5c-7.33301 0 -16 0.666992 -26 2s-20 2.83301 -30 4.5s-19.333 3.33398 -28 5.00098
s-15.334 3.16699 -20.001 4.5v150c2.66699 -0.666992 6.33398 -1.16699 11.001 -1.5l14.5 -1c5 -0.333008 9.66699 -0.666016 14 -0.999023s7.83301 -0.5 10.5 -0.5c31.333 0 59 3 83 9s45.333 15.833 64 29.5s34.834 31.834 48.501 54.501s26.167 50.667 37.5 84l41 110
l-386 1070h202zM186.999 1371c0 30 9.16699 55.167 27.5 75.5s45.5 30.5 81.5 30.5s63.333 -10.167 82 -30.5s28 -45.5 28 -75.5s-9.33301 -55 -28 -75s-46 -30 -82 -30s-63.167 10 -81.5 30s-27.5 45 -27.5 75zM616.999 1369c0 30 9.16699 55.333 27.5 76s45.5 31 81.5 31
s63.333 -10.333 82 -31s28 -46 28 -76s-9.33301 -55 -28 -75s-46 -30 -82 -30s-63.167 10 -81.5 30s-27.5 45 -27.5 75z" />
    <glyph glyph-name="Amacron" unicode="&#x100;" 
d="M973 380h-610l-137 -380h-198l556 1456h168l557 -1456h-197zM421 538h495l-248 681zM1033 1631h-714v143h714v-143z" />
    <glyph glyph-name="amacron" unicode="&#x101;" horiz-adv-x="1114" 
d="M808 0c-6.66699 13.333 -11.999 30.165 -15.999 50.498s-7.33301 41.5 -10 63.5c-17.333 -18 -36.833 -35.167 -58.5 -51.5s-45.334 -30.666 -71.001 -42.999s-53.5 -22 -83.5 -29s-61.667 -10.5 -95 -10.5c-55.333 0 -105.5 8.33301 -150.5 25
s-83.333 39.334 -115 68.001s-56.167 62.5 -73.5 101.5s-26 80.833 -26 125.5c0 58 11.333 109.167 34 153.5s55.167 81.5 97.5 111.5s93.5 52.667 153.5 68s127 23 201 23h184v85c0 64.667 -19.333 116.167 -58 154.5s-95.667 57.5 -171 57.5
c-34.667 0 -66.334 -4.66699 -95.001 -14s-53.167 -21.833 -73.5 -37.5s-36.166 -33.834 -47.499 -54.501s-17 -42.334 -17 -65.001h-186c0 38.667 10.167 77 30.5 115s49.166 72.167 86.499 102.5s82.5 55 135.5 74s112.167 28.5 177.5 28.5
c58.667 0 112.834 -7.5 162.501 -22.5s92.167 -37.667 127.5 -68s63 -68.166 83 -113.499s30 -98.333 30 -159v-503c0 -36.667 3.16699 -75.167 9.5 -115.5s15.833 -75.166 28.5 -104.499v-16h-194zM501.001 140.999c33.333 0 64.665 4.66699 93.998 14s56 21.5 80 36.5
s44.833 32.167 62.5 51.5s31.5 39.333 41.5 60v222h-154c-106 0 -187.667 -16.5 -245 -49.5s-86 -82.833 -86 -149.5c0 -26 4.33301 -50.333 13 -73s21.834 -42.167 39.501 -58.5s39.334 -29.333 65.001 -39s55.5 -14.5 89.5 -14.5zM942 1321h-714v143h714v-143z" />
    <glyph glyph-name="Abreve" unicode="&#x102;" 
d="M973 380h-610l-137 -380h-198l556 1456h168l557 -1456h-197zM421 538h495l-248 681zM972 1806c0 -39.333 -6.83301 -75.333 -20.5 -108s-33.5 -60.834 -59.5 -84.501s-57.5 -42.167 -94.5 -55.5s-78.5 -20 -124.5 -20s-87.5 6.66699 -124.5 20s-68.5 31.833 -94.5 55.5
s-46 51.834 -60 84.501s-21 68.667 -21 108h151c0 -20 2.66699 -39 8 -57s13.833 -33.833 25.5 -47.5s27 -24.5 46 -32.5s42.167 -12 69.5 -12c26.667 0 49.5 4 68.5 12s34.5 18.833 46.5 32.5s20.667 29.5 26 47.5s8 37 8 57h150z" />
    <glyph glyph-name="abreve" unicode="&#x103;" horiz-adv-x="1114" 
d="M808 0c-6.66699 13.333 -11.999 30.165 -15.999 50.498s-7.33301 41.5 -10 63.5c-17.333 -18 -36.833 -35.167 -58.5 -51.5s-45.334 -30.666 -71.001 -42.999s-53.5 -22 -83.5 -29s-61.667 -10.5 -95 -10.5c-55.333 0 -105.5 8.33301 -150.5 25
s-83.333 39.334 -115 68.001s-56.167 62.5 -73.5 101.5s-26 80.833 -26 125.5c0 58 11.333 109.167 34 153.5s55.167 81.5 97.5 111.5s93.5 52.667 153.5 68s127 23 201 23h184v85c0 64.667 -19.333 116.167 -58 154.5s-95.667 57.5 -171 57.5
c-34.667 0 -66.334 -4.66699 -95.001 -14s-53.167 -21.833 -73.5 -37.5s-36.166 -33.834 -47.499 -54.501s-17 -42.334 -17 -65.001h-186c0 38.667 10.167 77 30.5 115s49.166 72.167 86.499 102.5s82.5 55 135.5 74s112.167 28.5 177.5 28.5
c58.667 0 112.834 -7.5 162.501 -22.5s92.167 -37.667 127.5 -68s63 -68.166 83 -113.499s30 -98.333 30 -159v-503c0 -36.667 3.16699 -75.167 9.5 -115.5s15.833 -75.166 28.5 -104.499v-16h-194zM501.001 140.999c33.333 0 64.665 4.66699 93.998 14s56 21.5 80 36.5
s44.833 32.167 62.5 51.5s31.5 39.333 41.5 60v222h-154c-106 0 -187.667 -16.5 -245 -49.5s-86 -82.833 -86 -149.5c0 -26 4.33301 -50.333 13 -73s21.834 -42.167 39.501 -58.5s39.334 -29.333 65.001 -39s55.5 -14.5 89.5 -14.5zM881 1496
c0 -39.333 -6.83301 -75.333 -20.5 -108s-33.5 -60.834 -59.5 -84.501s-57.5 -42.167 -94.5 -55.5s-78.5 -20 -124.5 -20s-87.5 6.66699 -124.5 20s-68.5 31.833 -94.5 55.5s-46 51.834 -60 84.501s-21 68.667 -21 108h151c0 -20 2.66699 -39 8 -57
s13.833 -33.833 25.5 -47.5s27 -24.5 46 -32.5s42.167 -12 69.5 -12c26.667 0 49.5 4 68.5 12s34.5 18.833 46.5 32.5s20.667 29.5 26 47.5s8 37 8 57h150z" />
    <glyph glyph-name="Aogonek" unicode="&#x104;" 
d="M752 1456l557 -1456h-38l-63 -49c-20.667 -16.667 -39 -34.334 -55 -53.001s-28.833 -37.834 -38.5 -57.501s-14.5 -40.5 -14.5 -62.5s5.66699 -39.5 17 -52.5s31.666 -19.5 60.999 -19.5c22 0 41.5 3 58.5 9s30.833 11.667 41.5 17l13 -121
c-16 -10 -36.667 -19.833 -62 -29.5s-58 -14.5 -98 -14.5c-27.333 0 -52.666 4 -75.999 12s-43.5 20 -60.5 36s-30.5 35.833 -40.5 59.5s-15 51.167 -15 82.5c0 44 13.333 87.5 40 130.5s69.667 83.5 129 121.5l-135 371h-610l-137 -380h-198l556 1456h168zM421 538.002h495
l-248 681z" />
    <glyph glyph-name="aogonek" unicode="&#x105;" horiz-adv-x="1114" 
d="M804 7c-5.33301 13.333 -9.83203 29.5 -13.499 48.5s-6.5 38.5 -8.5 58.5c-17.333 -18 -36.833 -35.167 -58.5 -51.5s-45.334 -30.666 -71.001 -42.999s-53.5 -22 -83.5 -29s-61.667 -10.5 -95 -10.5c-55.333 0 -105.5 8.33301 -150.5 25s-83.333 39.334 -115 68.001
s-56.167 62.5 -73.5 101.5s-26 80.833 -26 125.5c0 58 11.333 109.167 34 153.5s55.167 81.5 97.5 111.5s93.5 52.667 153.5 68s127 23 201 23h184v85c0 64.667 -19.333 116.167 -58 154.5s-95.667 57.5 -171 57.5c-34.667 0 -66.334 -4.66699 -95.001 -14
s-53.167 -21.833 -73.5 -37.5s-36.166 -33.834 -47.499 -54.501s-17 -42.334 -17 -65.001h-186c0 38.667 10.167 77 30.5 115s49.166 72.167 86.499 102.5s82.5 55 135.5 74s112.167 28.5 177.5 28.5c58.667 0 112.834 -7.5 162.501 -22.5s92.167 -37.667 127.5 -68
s63 -68.166 83 -113.499s30 -98.333 30 -159v-503c0 -36.667 3.16699 -75.167 9.5 -115.5s15.833 -75.166 28.5 -104.499v-16h-33l-63 -49c-20.667 -16.667 -39 -34.334 -55 -53.001s-28.833 -37.834 -38.5 -57.501s-14.5 -40.5 -14.5 -62.5s5.66699 -39.5 17 -52.5
s31.666 -19.5 60.999 -19.5c22 0 41.5 3 58.5 9s30.833 11.667 41.5 17l13 -121c-16 -10 -36.667 -19.833 -62 -29.5s-58 -14.5 -98 -14.5c-27.333 0 -52.666 4 -75.999 12s-43.5 20 -60.5 36s-30.5 35.833 -40.5 59.5s-15 51.167 -15 82.5c0 44 13.167 87.333 39.5 130
s68.833 82.667 127.5 120zM501.001 141c33.333 0 64.665 4.66699 93.998 14s56 21.5 80 36.5s44.833 32.167 62.5 51.5s31.5 39.333 41.5 60v222h-154c-106 0 -187.667 -16.5 -245 -49.5s-86 -82.833 -86 -149.5c0 -26 4.33301 -50.333 13 -73s21.834 -42.167 39.501 -58.5
s39.334 -29.333 65.001 -39s55.5 -14.5 89.5 -14.5z" />
    <glyph glyph-name="Cacute" unicode="&#x106;" horiz-adv-x="1333" 
d="M1240 462c-8 -68.667 -24.835 -132.501 -50.502 -191.501s-61.167 -110 -106.5 -153s-100.666 -76.667 -165.999 -101s-141.666 -36.5 -228.999 -36.5c-86 0 -164 16 -234 48s-129.833 77.5 -179.5 136.5s-88 129.833 -115 212.5s-40.5 175 -40.5 277v146
c0 102 13.667 194.5 41 277.5s66.333 154 117 213s112.167 104.667 184.5 137s153.5 48.5 243.5 48.5c82 0 154.667 -12 218 -36s117.166 -57.5 161.499 -100.5s79.5 -94.333 105.5 -154s42.667 -125.5 50 -197.5h-193c-7.33301 50.667 -18.666 96.334 -33.999 137.001
s-36.5 75.334 -63.5 104.001s-60.5 50.667 -100.5 66s-88 23 -144 23c-64.667 0 -121.5 -12.5 -170.5 -37.5s-90 -60 -123 -105s-57.833 -99.333 -74.5 -163s-25 -133.834 -25 -210.501v-148c0 -71.333 7.5 -138.333 22.5 -201s37.833 -117.5 68.5 -164.5
s69.667 -84 117 -111s103.333 -40.5 168 -40.5c61.333 0 113 7.33301 155 22s76.833 35.834 104.5 63.501s49.167 61.667 64.5 102s27 86.166 35 137.499h193zM769.998 1877h224l-268 -294h-149z" />
    <glyph glyph-name="cacute" unicode="&#x107;" horiz-adv-x="1072" 
d="M574 131c32.667 0 63.999 5.33301 93.999 16s56.5 25.334 79.5 44.001s41.667 40.834 56 66.501s22.833 53.5 25.5 83.5h175c-2.66699 -48 -15.834 -93.833 -39.501 -137.5s-54.834 -82 -93.501 -115s-83.5 -59.333 -134.5 -79s-105.167 -29.5 -162.5 -29.5
c-81.333 0 -152.166 14.5 -212.499 43.5s-110.5 68.167 -150.5 117.5s-69.833 106.666 -89.5 171.999s-29.5 134.333 -29.5 207v42c0 72.667 9.83301 141.667 29.5 207s49.5 122.666 89.5 171.999s90 88.5 150 117.5s130.667 43.5 212 43.5c63.333 0 120.833 -10 172.5 -30
s96.334 -47.5 134.001 -82.5s67.167 -76.5 88.5 -124.5s33.333 -99.667 36 -155h-175c-2.66699 33.333 -10.5 64.5 -23.5 93.5s-30.5 54.333 -52.5 76s-48.167 38.834 -78.5 51.501s-64.166 19 -101.499 19c-57.333 0 -104.833 -11.333 -142.5 -34s-68 -52.5 -91 -89.5
s-39.167 -78.667 -48.5 -125s-14 -92.833 -14 -139.5v-42c0 -48 4.66699 -95.167 14 -141.5s25.333 -87.833 48 -124.5s53 -66.334 91 -89.001s86 -34 144 -34zM622.999 1534h224l-268 -294h-149z" />
    <glyph glyph-name="Ccircumflex" unicode="&#x108;" horiz-adv-x="1333" 
d="M1240 462c-8 -68.667 -24.835 -132.501 -50.502 -191.501s-61.167 -110 -106.5 -153s-100.666 -76.667 -165.999 -101s-141.666 -36.5 -228.999 -36.5c-86 0 -164 16 -234 48s-129.833 77.5 -179.5 136.5s-88 129.833 -115 212.5s-40.5 175 -40.5 277v146
c0 102 13.667 194.5 41 277.5s66.333 154 117 213s112.167 104.667 184.5 137s153.5 48.5 243.5 48.5c82 0 154.667 -12 218 -36s117.166 -57.5 161.499 -100.5s79.5 -94.333 105.5 -154s42.667 -125.5 50 -197.5h-193c-7.33301 50.667 -18.666 96.334 -33.999 137.001
s-36.5 75.334 -63.5 104.001s-60.5 50.667 -100.5 66s-88 23 -144 23c-64.667 0 -121.5 -12.5 -170.5 -37.5s-90 -60 -123 -105s-57.833 -99.333 -74.5 -163s-25 -133.834 -25 -210.501v-148c0 -71.333 7.5 -138.333 22.5 -201s37.833 -117.5 68.5 -164.5
s69.667 -84 117 -111s103.333 -40.5 168 -40.5c61.333 0 113 7.33301 155 22s76.833 35.834 104.5 63.501s49.167 61.667 64.5 102s27 86.166 35 137.499h193zM981.998 1605v-10h-153l-150 170l-149 -170h-153v12l246 272h112z" />
    <glyph glyph-name="ccircumflex" unicode="&#x109;" horiz-adv-x="1072" 
d="M574 131c32.667 0 63.999 5.33301 93.999 16s56.5 25.334 79.5 44.001s41.667 40.834 56 66.501s22.833 53.5 25.5 83.5h175c-2.66699 -48 -15.834 -93.833 -39.501 -137.5s-54.834 -82 -93.501 -115s-83.5 -59.333 -134.5 -79s-105.167 -29.5 -162.5 -29.5
c-81.333 0 -152.166 14.5 -212.499 43.5s-110.5 68.167 -150.5 117.5s-69.833 106.666 -89.5 171.999s-29.5 134.333 -29.5 207v42c0 72.667 9.83301 141.667 29.5 207s49.5 122.666 89.5 171.999s90 88.5 150 117.5s130.667 43.5 212 43.5c63.333 0 120.833 -10 172.5 -30
s96.334 -47.5 134.001 -82.5s67.167 -76.5 88.5 -124.5s33.333 -99.667 36 -155h-175c-2.66699 33.333 -10.5 64.5 -23.5 93.5s-30.5 54.333 -52.5 76s-48.167 38.834 -78.5 51.501s-64.166 19 -101.499 19c-57.333 0 -104.833 -11.333 -142.5 -34s-68 -52.5 -91 -89.5
s-39.167 -78.667 -48.5 -125s-14 -92.833 -14 -139.5v-42c0 -48 4.66699 -95.167 14 -141.5s25.333 -87.833 48 -124.5s53 -66.334 91 -89.001s86 -34 144 -34zM834.999 1262v-10h-153l-150 170l-149 -170h-153v12l246 272h112z" />
    <glyph glyph-name="uni010A" unicode="&#x10a;" horiz-adv-x="1333" 
d="M1240 462c-8 -68.667 -24.835 -132.501 -50.502 -191.501s-61.167 -110 -106.5 -153s-100.666 -76.667 -165.999 -101s-141.666 -36.5 -228.999 -36.5c-86 0 -164 16 -234 48s-129.833 77.5 -179.5 136.5s-88 129.833 -115 212.5s-40.5 175 -40.5 277v146
c0 102 13.667 194.5 41 277.5s66.333 154 117 213s112.167 104.667 184.5 137s153.5 48.5 243.5 48.5c82 0 154.667 -12 218 -36s117.166 -57.5 161.499 -100.5s79.5 -94.333 105.5 -154s42.667 -125.5 50 -197.5h-193c-7.33301 50.667 -18.666 96.334 -33.999 137.001
s-36.5 75.334 -63.5 104.001s-60.5 50.667 -100.5 66s-88 23 -144 23c-64.667 0 -121.5 -12.5 -170.5 -37.5s-90 -60 -123 -105s-57.833 -99.333 -74.5 -163s-25 -133.834 -25 -210.501v-148c0 -71.333 7.5 -138.333 22.5 -201s37.833 -117.5 68.5 -164.5
s69.667 -84 117 -111s103.333 -40.5 168 -40.5c61.333 0 113 7.33301 155 22s76.833 35.834 104.5 63.501s49.167 61.667 64.5 102s27 86.166 35 137.499h193zM570.998 1710c0 30 9.16699 55.333 27.5 76s45.5 31 81.5 31s63.333 -10.333 82 -31s28 -46 28 -76
s-9.33301 -55 -28 -75s-46 -30 -82 -30s-63.167 10 -81.5 30s-27.5 45 -27.5 75z" />
    <glyph glyph-name="uni010B" unicode="&#x10b;" horiz-adv-x="1072" 
d="M574 131c32.667 0 63.999 5.33301 93.999 16s56.5 25.334 79.5 44.001s41.667 40.834 56 66.501s22.833 53.5 25.5 83.5h175c-2.66699 -48 -15.834 -93.833 -39.501 -137.5s-54.834 -82 -93.501 -115s-83.5 -59.333 -134.5 -79s-105.167 -29.5 -162.5 -29.5
c-81.333 0 -152.166 14.5 -212.499 43.5s-110.5 68.167 -150.5 117.5s-69.833 106.666 -89.5 171.999s-29.5 134.333 -29.5 207v42c0 72.667 9.83301 141.667 29.5 207s49.5 122.666 89.5 171.999s90 88.5 150 117.5s130.667 43.5 212 43.5c63.333 0 120.833 -10 172.5 -30
s96.334 -47.5 134.001 -82.5s67.167 -76.5 88.5 -124.5s33.333 -99.667 36 -155h-175c-2.66699 33.333 -10.5 64.5 -23.5 93.5s-30.5 54.333 -52.5 76s-48.167 38.834 -78.5 51.501s-64.166 19 -101.499 19c-57.333 0 -104.833 -11.333 -142.5 -34s-68 -52.5 -91 -89.5
s-39.167 -78.667 -48.5 -125s-14 -92.833 -14 -139.5v-42c0 -48 4.66699 -95.167 14 -141.5s25.333 -87.833 48 -124.5s53 -66.334 91 -89.001s86 -34 144 -34zM423.999 1367c0 30 9.16699 55.333 27.5 76s45.5 31 81.5 31s63.333 -10.333 82 -31s28 -46 28 -76
s-9.33301 -55 -28 -75s-46 -30 -82 -30s-63.167 10 -81.5 30s-27.5 45 -27.5 75z" />
    <glyph glyph-name="Ccaron" unicode="&#x10c;" horiz-adv-x="1333" 
d="M1240 462c-8 -68.667 -24.835 -132.501 -50.502 -191.501s-61.167 -110 -106.5 -153s-100.666 -76.667 -165.999 -101s-141.666 -36.5 -228.999 -36.5c-86 0 -164 16 -234 48s-129.833 77.5 -179.5 136.5s-88 129.833 -115 212.5s-40.5 175 -40.5 277v146
c0 102 13.667 194.5 41 277.5s66.333 154 117 213s112.167 104.667 184.5 137s153.5 48.5 243.5 48.5c82 0 154.667 -12 218 -36s117.166 -57.5 161.499 -100.5s79.5 -94.333 105.5 -154s42.667 -125.5 50 -197.5h-193c-7.33301 50.667 -18.666 96.334 -33.999 137.001
s-36.5 75.334 -63.5 104.001s-60.5 50.667 -100.5 66s-88 23 -144 23c-64.667 0 -121.5 -12.5 -170.5 -37.5s-90 -60 -123 -105s-57.833 -99.333 -74.5 -163s-25 -133.834 -25 -210.501v-148c0 -71.333 7.5 -138.333 22.5 -201s37.833 -117.5 68.5 -164.5
s69.667 -84 117 -111s103.333 -40.5 168 -40.5c61.333 0 113 7.33301 155 22s76.833 35.834 104.5 63.501s49.167 61.667 64.5 102s27 86.166 35 137.499h193zM677.998 1709l150 170h160v-10l-254 -274h-113l-251 274v10h157z" />
    <glyph glyph-name="ccaron" unicode="&#x10d;" horiz-adv-x="1072" 
d="M574 131c32.667 0 63.999 5.33301 93.999 16s56.5 25.334 79.5 44.001s41.667 40.834 56 66.501s22.833 53.5 25.5 83.5h175c-2.66699 -48 -15.834 -93.833 -39.501 -137.5s-54.834 -82 -93.501 -115s-83.5 -59.333 -134.5 -79s-105.167 -29.5 -162.5 -29.5
c-81.333 0 -152.166 14.5 -212.499 43.5s-110.5 68.167 -150.5 117.5s-69.833 106.666 -89.5 171.999s-29.5 134.333 -29.5 207v42c0 72.667 9.83301 141.667 29.5 207s49.5 122.666 89.5 171.999s90 88.5 150 117.5s130.667 43.5 212 43.5c63.333 0 120.833 -10 172.5 -30
s96.334 -47.5 134.001 -82.5s67.167 -76.5 88.5 -124.5s33.333 -99.667 36 -155h-175c-2.66699 33.333 -10.5 64.5 -23.5 93.5s-30.5 54.333 -52.5 76s-48.167 38.834 -78.5 51.501s-64.166 19 -101.499 19c-57.333 0 -104.833 -11.333 -142.5 -34s-68 -52.5 -91 -89.5
s-39.167 -78.667 -48.5 -125s-14 -92.833 -14 -139.5v-42c0 -48 4.66699 -95.167 14 -141.5s25.333 -87.833 48 -124.5s53 -66.334 91 -89.001s86 -34 144 -34zM530.999 1366l150 170h160v-10l-254 -274h-113l-251 274v10h157z" />
    <glyph glyph-name="Dcaron" unicode="&#x10e;" horiz-adv-x="1343" 
d="M169 0v1456h411c96 0 183.333 -16 262 -48s146.167 -77.667 202.5 -137s100 -131.333 131 -216s46.5 -179.667 46.5 -285v-86c0 -105.333 -15.5 -200.333 -46.5 -285s-75 -156.5 -132 -215.5s-126.167 -104.333 -207.5 -136s-172.333 -47.5 -273 -47.5h-394zM361 1298
v-1141h202c77.333 0 145.333 12.5 204 37.5s107.667 60.5 147 106.5s68.833 101.333 88.5 166s29.5 137 29.5 217v89c0 83.333 -10 157.5 -30 222.5s-49.333 120 -88 165s-86 79.167 -142 102.5s-120 35 -192 35h-219zM607 1688l150 170h160v-10l-254 -274h-113l-251 274v10
h157z" />
    <glyph glyph-name="dcaron" unicode="&#x10f;" horiz-adv-x="1305" 
d="M95 550c0 82.667 10.167 157.833 30.5 225.5s49.166 125.667 86.499 174s82.166 85.833 134.499 112.5s110.833 40 175.5 40c66 0 123.667 -11.167 173 -33.5s92 -54.5 128 -96.5v564h185v-1536h-170l-9 116c-36 -44 -79.333 -77.667 -130 -101
s-110.334 -35 -179.001 -35c-63.333 0 -121.166 13.667 -173.499 41s-97.166 65.5 -134.499 114.5s-66.166 107 -86.499 174s-30.5 140.167 -30.5 219.5v21zM280 528.999c0 -54 5.49902 -104.834 16.499 -152.501s28.167 -89.167 51.5 -124.5s53 -63.333 89 -84
s79 -31 129 -31c32.667 0 62 3.83301 88 11.5s49.5 18.5 70.5 32.5s39.667 30.667 56 50s30.5 40.666 42.5 63.999v497c-12 22 -26 42.333 -42 61s-34.5 34.834 -55.5 48.501s-44.5 24.334 -70.5 32.001s-55 11.5 -87 11.5c-50.667 0 -94.167 -10.5 -130.5 -31.5
s-66.166 -49.5 -89.499 -85.5s-40.5 -77.833 -51.5 -125.5s-16.5 -98.5 -16.5 -152.5v-21zM1369 1408c0 -30.667 -3.83203 -62.5 -11.499 -95.5s-19 -65.5 -34 -97.5s-33.167 -62.5 -54.5 -91.5s-46 -54.833 -74 -77.5l-105 72c31.333 44 55.166 89.167 71.499 135.5
s24.5 96.833 24.5 151.5v131h183v-128z" />
    <glyph glyph-name="Dcroat" unicode="&#x110;" horiz-adv-x="1373" 
d="M199 0v666h-162v151h162v639h411c96 0 183.333 -16 262 -48s146.167 -77.667 202.5 -137s100 -131.333 131 -216s46.5 -179.667 46.5 -285v-86c0 -105.333 -15.5 -200.333 -46.5 -285s-75 -156.5 -132 -215.5s-126.167 -104.333 -207.5 -136s-172.333 -47.5 -273 -47.5
h-394zM673 666h-282v-509h202c77.333 0 145.333 12.5 204 37.5s107.667 60.5 147 106.5s68.833 101.333 88.5 166s29.5 137 29.5 217v89c0 83.333 -10 157.5 -30 222.5s-49.333 120 -88 165s-86 79.167 -142 102.5s-120 35 -192 35h-219v-481h282v-151z" />
    <glyph glyph-name="dcroat" unicode="&#x111;" horiz-adv-x="1185" 
d="M1196 1234l-188 -0.000976562v-1234h-170l-9 116c-36 -44 -79.333 -77.667 -130 -101s-110.334 -35 -179.001 -35c-63.333 0 -121.166 13.667 -173.499 41s-97.166 65.5 -134.499 114.5s-66.166 107 -86.499 174s-30.5 140.167 -30.5 219.5v21
c0 82.667 10.167 157.834 30.5 225.501s49.166 125.667 86.499 174s82.166 85.833 134.499 112.5s110.833 40 175.5 40c66 0 123.667 -11.167 173 -33.5s92 -54.5 128 -96.5v262h-263v151h263v151h185v-151h188v-151zM280 528.999c0 -54 5.49902 -104.834 16.499 -152.501
s28.167 -89.167 51.5 -124.5s53 -63.333 89 -84s79 -31 129 -31c32.667 0 62 3.83301 88 11.5s49.5 18.5 70.5 32.5s39.667 30.667 56 50s30.5 40.666 42.5 63.999v497c-12 22 -26 42.333 -42 61s-34.5 34.834 -55.5 48.501s-44.5 24.334 -70.5 32.001s-55 11.5 -87 11.5
c-50.667 0 -94.167 -10.5 -130.5 -31.5s-66.166 -49.5 -89.499 -85.5s-40.5 -77.833 -51.5 -125.5s-16.5 -98.5 -16.5 -152.5v-21z" />
    <glyph glyph-name="Emacron" unicode="&#x112;" horiz-adv-x="1164" 
d="M992 673h-631v-516h733v-157h-925v1456h915v-158h-723v-468h631v-157zM980 1643h-714v143h714v-143z" />
    <glyph glyph-name="emacron" unicode="&#x113;" horiz-adv-x="1085" 
d="M589 -20c-75.333 0 -143.499 13.002 -204.499 39.002s-113.167 62.167 -156.5 108.5s-76.666 101.5 -99.999 165.5s-35 134 -35 210v42c0 88 13.167 166.667 39.5 236s61.5 127.666 105.5 174.999s94.333 83.5 151 108.5s115.667 37.5 177 37.5
c77.333 0 144 -13.5 200 -40.5s102.167 -64.167 138.5 -111.5s63.166 -103.333 80.499 -168s26 -135 26 -211v-83h-733c1.33301 -50 9.5 -96.667 24.5 -140s36.333 -81 64 -113s61 -57.333 100 -76s83.167 -28 132.5 -28c65.333 0 120.666 13.333 165.999 40s85 62 119 106
l113 -88c-17.333 -26.667 -38.333 -52.5 -63 -77.5s-53.5 -47.333 -86.5 -67s-70.833 -35.334 -113.5 -47.001s-91 -17.5 -145 -17.5zM566.001 950.002c-37.333 0 -71.667 -6.83301 -103 -20.5s-59.333 -33.5 -84 -59.5s-45.167 -58.333 -61.5 -97s-27.5 -83 -33.5 -133h542
v14c-2 36 -7.83301 71.667 -17.5 107s-24.667 67 -45 95s-46.5 50.667 -78.5 68s-71.667 26 -119 26zM926 1321h-714v143h714v-143z" />
    <glyph glyph-name="Ebreve" unicode="&#x114;" horiz-adv-x="1164" 
d="M992 673h-631v-516h733v-157h-925v1456h915v-158h-723v-468h631v-157zM919 1818c0 -39.333 -6.83301 -75.333 -20.5 -108s-33.5 -60.834 -59.5 -84.501s-57.5 -42.167 -94.5 -55.5s-78.5 -20 -124.5 -20s-87.5 6.66699 -124.5 20s-68.5 31.833 -94.5 55.5
s-46 51.834 -60 84.501s-21 68.667 -21 108h151c0 -20 2.66699 -39 8 -57s13.833 -33.833 25.5 -47.5s27 -24.5 46 -32.5s42.167 -12 69.5 -12c26.667 0 49.5 4 68.5 12s34.5 18.833 46.5 32.5s20.667 29.5 26 47.5s8 37 8 57h150z" />
    <glyph glyph-name="ebreve" unicode="&#x115;" horiz-adv-x="1085" 
d="M589 -20c-75.333 0 -143.499 13.002 -204.499 39.002s-113.167 62.167 -156.5 108.5s-76.666 101.5 -99.999 165.5s-35 134 -35 210v42c0 88 13.167 166.667 39.5 236s61.5 127.666 105.5 174.999s94.333 83.5 151 108.5s115.667 37.5 177 37.5
c77.333 0 144 -13.5 200 -40.5s102.167 -64.167 138.5 -111.5s63.166 -103.333 80.499 -168s26 -135 26 -211v-83h-733c1.33301 -50 9.5 -96.667 24.5 -140s36.333 -81 64 -113s61 -57.333 100 -76s83.167 -28 132.5 -28c65.333 0 120.666 13.333 165.999 40s85 62 119 106
l113 -88c-17.333 -26.667 -38.333 -52.5 -63 -77.5s-53.5 -47.333 -86.5 -67s-70.833 -35.334 -113.5 -47.001s-91 -17.5 -145 -17.5zM566.001 950.002c-37.333 0 -71.667 -6.83301 -103 -20.5s-59.333 -33.5 -84 -59.5s-45.167 -58.333 -61.5 -97s-27.5 -83 -33.5 -133h542
v14c-2 36 -7.83301 71.667 -17.5 107s-24.667 67 -45 95s-46.5 50.667 -78.5 68s-71.667 26 -119 26zM865 1496c0 -39.333 -6.83301 -75.333 -20.5 -108s-33.5 -60.834 -59.5 -84.501s-57.5 -42.167 -94.5 -55.5s-78.5 -20 -124.5 -20s-87.5 6.66699 -124.5 20
s-68.5 31.833 -94.5 55.5s-46 51.834 -60 84.501s-21 68.667 -21 108h151c0 -20 2.66699 -39 8 -57s13.833 -33.833 25.5 -47.5s27 -24.5 46 -32.5s42.167 -12 69.5 -12c26.667 0 49.5 4 68.5 12s34.5 18.833 46.5 32.5s20.667 29.5 26 47.5s8 37 8 57h150z" />
    <glyph glyph-name="Edotaccent" unicode="&#x116;" horiz-adv-x="1164" 
d="M992 673h-631v-516h733v-157h-925v1456h915v-158h-723v-468h631v-157zM511 1689c0 30 9.16699 55.333 27.5 76s45.5 31 81.5 31s63.333 -10.333 82 -31s28 -46 28 -76s-9.33301 -55 -28 -75s-46 -30 -82 -30s-63.167 10 -81.5 30s-27.5 45 -27.5 75z" />
    <glyph glyph-name="edotaccent" unicode="&#x117;" horiz-adv-x="1085" 
d="M589 -20c-75.333 0 -143.499 13.002 -204.499 39.002s-113.167 62.167 -156.5 108.5s-76.666 101.5 -99.999 165.5s-35 134 -35 210v42c0 88 13.167 166.667 39.5 236s61.5 127.666 105.5 174.999s94.333 83.5 151 108.5s115.667 37.5 177 37.5
c77.333 0 144 -13.5 200 -40.5s102.167 -64.167 138.5 -111.5s63.166 -103.333 80.499 -168s26 -135 26 -211v-83h-733c1.33301 -50 9.5 -96.667 24.5 -140s36.333 -81 64 -113s61 -57.333 100 -76s83.167 -28 132.5 -28c65.333 0 120.666 13.333 165.999 40s85 62 119 106
l113 -88c-17.333 -26.667 -38.333 -52.5 -63 -77.5s-53.5 -47.333 -86.5 -67s-70.833 -35.334 -113.5 -47.001s-91 -17.5 -145 -17.5zM566.001 950.002c-37.333 0 -71.667 -6.83301 -103 -20.5s-59.333 -33.5 -84 -59.5s-45.167 -58.333 -61.5 -97s-27.5 -83 -33.5 -133h542
v14c-2 36 -7.83301 71.667 -17.5 107s-24.667 67 -45 95s-46.5 50.667 -78.5 68s-71.667 26 -119 26zM457 1367c0 30 9.16699 55.333 27.5 76s45.5 31 81.5 31s63.333 -10.333 82 -31s28 -46 28 -76s-9.33301 -55 -28 -75s-46 -30 -82 -30s-63.167 10 -81.5 30
s-27.5 45 -27.5 75z" />
    <glyph glyph-name="Eogonek" unicode="&#x118;" horiz-adv-x="1164" 
d="M992 673l-631 0.000976562v-516h733v-157h-73l-63 -49c-20.667 -16.667 -39 -34.334 -55 -53.001s-28.833 -37.834 -38.5 -57.501s-14.5 -40.5 -14.5 -62.5s5.66699 -39.5 17 -52.5s31.666 -19.5 60.999 -19.5c22 0 41.5 3 58.5 9s30.833 11.667 41.5 17l13 -121
c-16 -10 -36.667 -19.833 -62 -29.5s-58 -14.5 -98 -14.5c-27.333 0 -52.666 4 -75.999 12s-43.5 20 -60.5 36s-30.5 35.833 -40.5 59.5s-15 51.167 -15 82.5c0 42 12.333 83.833 37 125.5s64 80.834 118 117.501h-675v1456h915v-158h-723v-468h631v-157z" />
    <glyph glyph-name="eogonek" unicode="&#x119;" horiz-adv-x="1085" 
d="M997 189c-20.667 -32 -46.165 -62.3281 -76.498 -90.9951s-66.833 -53 -109.5 -73h1l-63 -49c-20.667 -16.667 -39 -34.334 -55 -53.001s-28.833 -37.834 -38.5 -57.501s-14.5 -40.5 -14.5 -62.5s5.66699 -39.5 17 -52.5s31.666 -19.5 60.999 -19.5c22 0 41.5 3 58.5 9
s30.833 11.667 41.5 17l13 -121c-16 -10 -36.667 -19.833 -62 -29.5s-58 -14.5 -98 -14.5c-27.333 0 -52.666 4 -75.999 12s-43.5 20 -60.5 36s-30.5 35.833 -40.5 59.5s-15 51.167 -15 82.5c0 34 7.83301 67.667 23.5 101s40.5 65.666 74.5 96.999
c-74 1.33301 -140.833 15.166 -200.5 41.499s-110.5 62.5 -152.5 108.5s-74.5 100.833 -97.5 164.5s-34.5 133.167 -34.5 208.5v42c0 88 13.167 166.667 39.5 236s61.5 127.666 105.5 174.999s94.333 83.5 151 108.5s115.667 37.5 177 37.5c77.333 0 144 -13.5 200 -40.5
s102.167 -64.167 138.5 -111.5s63.166 -103.333 80.499 -168s26 -135 26 -211v-83h-733c1.33301 -50 9.5 -96.667 24.5 -140s36.333 -81 64 -113s61 -57.333 100 -76s83.167 -28 132.5 -28c65.333 0 120.666 13.333 165.999 40s85 62 119 106zM566.002 950.005
c-37.333 0 -71.667 -6.83301 -103 -20.5s-59.333 -33.5 -84 -59.5s-45.167 -58.333 -61.5 -97s-27.5 -83 -33.5 -133h542v14c-2 36 -7.83301 71.667 -17.5 107s-24.667 67 -45 95s-46.5 50.667 -78.5 68s-71.667 26 -119 26z" />
    <glyph glyph-name="Ecaron" unicode="&#x11a;" horiz-adv-x="1164" 
d="M992 673h-631v-516h733v-157h-925v1456h915v-158h-723v-468h631v-157zM618 1688l150 170h160v-10l-254 -274h-113l-251 274v10h157z" />
    <glyph glyph-name="ecaron" unicode="&#x11b;" horiz-adv-x="1085" 
d="M589 -20c-75.333 0 -143.499 13.002 -204.499 39.002s-113.167 62.167 -156.5 108.5s-76.666 101.5 -99.999 165.5s-35 134 -35 210v42c0 88 13.167 166.667 39.5 236s61.5 127.666 105.5 174.999s94.333 83.5 151 108.5s115.667 37.5 177 37.5
c77.333 0 144 -13.5 200 -40.5s102.167 -64.167 138.5 -111.5s63.166 -103.333 80.499 -168s26 -135 26 -211v-83h-733c1.33301 -50 9.5 -96.667 24.5 -140s36.333 -81 64 -113s61 -57.333 100 -76s83.167 -28 132.5 -28c65.333 0 120.666 13.333 165.999 40s85 62 119 106
l113 -88c-17.333 -26.667 -38.333 -52.5 -63 -77.5s-53.5 -47.333 -86.5 -67s-70.833 -35.334 -113.5 -47.001s-91 -17.5 -145 -17.5zM566.001 950.002c-37.333 0 -71.667 -6.83301 -103 -20.5s-59.333 -33.5 -84 -59.5s-45.167 -58.333 -61.5 -97s-27.5 -83 -33.5 -133h542
v14c-2 36 -7.83301 71.667 -17.5 107s-24.667 67 -45 95s-46.5 50.667 -78.5 68s-71.667 26 -119 26zM564 1366l150 170h160v-10l-254 -274h-113l-251 274v10h157z" />
    <glyph glyph-name="Gcircumflex" unicode="&#x11c;" horiz-adv-x="1395" 
d="M1244 191c-14 -20 -33.335 -42.1631 -58.002 -66.4961s-57.167 -47.166 -97.5 -68.499s-89.833 -39.333 -148.5 -54s-129 -22 -211 -22c-88.667 0 -170.167 15.667 -244.5 47s-138.333 76.5 -192 135.5s-95.5 131.333 -125.5 217s-45 182.834 -45 291.501v114
c0 108.667 12.833 205.667 38.5 291s63.334 157.666 113.001 216.999s110.834 104.666 183.501 135.999s156 47 250 47c83.333 0 156.333 -11.167 219 -33.5s116 -53.333 160 -93s79 -86.834 105 -141.501s43.667 -114.334 53 -179.001h-192
c-7.33301 39.333 -18.833 76.5 -34.5 111.5s-37.167 65.667 -64.5 92s-61 47.166 -101 62.499s-88 23 -144 23c-68 0 -126.667 -12.333 -176 -37s-90 -60 -122 -106s-55.833 -101.667 -71.5 -167s-23.5 -139 -23.5 -221v-116c0 -84 10 -159 30 -225s48.167 -122 84.5 -168
s80 -81 131 -105s107.5 -36 169.5 -36c52 0 96.167 3.5 132.5 10.5s67 15.667 92 26s45.167 21.666 60.5 33.999s28 23.833 38 34.5v327h-337v156h528v-534zM973.998 1605v-10h-153l-150 170l-149 -170h-153v12l246 272h112z" />
    <glyph glyph-name="gcircumflex" unicode="&#x11d;" horiz-adv-x="1149" 
d="M96 550c0 82.667 9.83398 157.833 29.501 225.5s48 125.667 85 174s81.833 85.833 134.5 112.5s112 40 178 40c68.667 0 128.334 -12 179.001 -36s94 -58.667 130 -104l9 120h169v-1059c0 -71.333 -11.167 -134.833 -33.5 -190.5s-53.833 -102.667 -94.5 -141
s-89 -67.5 -145 -87.5s-118 -30 -186 -30c-28 0 -60.167 3.16699 -96.5 9.5s-73 16.666 -110 30.999s-72.5 33.5 -106.5 57.5s-63 53.667 -87 89l96 111c22.667 -28 46 -51.333 70 -70s48.167 -33.667 72.5 -45s49 -19.5 74 -24.5s49.833 -7.5 74.5 -7.5
c43.333 0 82.666 6.16699 117.999 18.5s65.5 30.833 90.5 55.5s44.167 54.834 57.5 90.501s20 77.167 20 124.5v94c-36 -41.333 -78.833 -73 -128.5 -95s-107.834 -33 -174.501 -33c-64.667 0 -123.167 13.667 -175.5 41s-97 65.5 -134 114.5s-65.5 107 -85.5 174
s-30 140.167 -30 219.5v21zM282.001 528.999c0 -54 5.5 -104.832 16.5 -152.499s28 -89.167 51 -124.5s52.5 -63.333 88.5 -84s79 -31 129 -31c32.667 0 62.167 4 88.5 12s50 19 71 33s39.5 30.667 55.5 50s30 40.666 42 63.999v494c-12 22 -26 42.5 -42 61.5
s-34.5 35.5 -55.5 49.5s-44.5 24.833 -70.5 32.5s-55 11.5 -87 11.5c-50.667 0 -94 -10.5 -130 -31.5s-65.667 -49.5 -89 -85.5s-40.5 -77.833 -51.5 -125.5s-16.5 -98.5 -16.5 -152.5v-21zM859.001 1262v-10h-153l-150 170l-149 -170h-153v12l246 272h112z" />
    <glyph glyph-name="Gbreve" unicode="&#x11e;" horiz-adv-x="1395" 
d="M1244 191c-14 -20 -33.335 -42.1631 -58.002 -66.4961s-57.167 -47.166 -97.5 -68.499s-89.833 -39.333 -148.5 -54s-129 -22 -211 -22c-88.667 0 -170.167 15.667 -244.5 47s-138.333 76.5 -192 135.5s-95.5 131.333 -125.5 217s-45 182.834 -45 291.501v114
c0 108.667 12.833 205.667 38.5 291s63.334 157.666 113.001 216.999s110.834 104.666 183.501 135.999s156 47 250 47c83.333 0 156.333 -11.167 219 -33.5s116 -53.333 160 -93s79 -86.834 105 -141.501s43.667 -114.334 53 -179.001h-192
c-7.33301 39.333 -18.833 76.5 -34.5 111.5s-37.167 65.667 -64.5 92s-61 47.166 -101 62.499s-88 23 -144 23c-68 0 -126.667 -12.333 -176 -37s-90 -60 -122 -106s-55.833 -101.667 -71.5 -167s-23.5 -139 -23.5 -221v-116c0 -84 10 -159 30 -225s48.167 -122 84.5 -168
s80 -81 131 -105s107.5 -36 169.5 -36c52 0 96.167 3.5 132.5 10.5s67 15.667 92 26s45.167 21.666 60.5 33.999s28 23.833 38 34.5v327h-337v156h528v-534zM970.998 1839c0 -39.333 -6.83301 -75.333 -20.5 -108s-33.5 -60.834 -59.5 -84.501s-57.5 -42.167 -94.5 -55.5
s-78.5 -20 -124.5 -20s-87.5 6.66699 -124.5 20s-68.5 31.833 -94.5 55.5s-46 51.834 -60 84.501s-21 68.667 -21 108h151c0 -20 2.66699 -39 8 -57s13.833 -33.833 25.5 -47.5s27 -24.5 46 -32.5s42.167 -12 69.5 -12c26.667 0 49.5 4 68.5 12s34.5 18.833 46.5 32.5
s20.667 29.5 26 47.5s8 37 8 57h150z" />
    <glyph glyph-name="gbreve" unicode="&#x11f;" horiz-adv-x="1149" 
d="M96 550c0 82.667 9.83398 157.833 29.501 225.5s48 125.667 85 174s81.833 85.833 134.5 112.5s112 40 178 40c68.667 0 128.334 -12 179.001 -36s94 -58.667 130 -104l9 120h169v-1059c0 -71.333 -11.167 -134.833 -33.5 -190.5s-53.833 -102.667 -94.5 -141
s-89 -67.5 -145 -87.5s-118 -30 -186 -30c-28 0 -60.167 3.16699 -96.5 9.5s-73 16.666 -110 30.999s-72.5 33.5 -106.5 57.5s-63 53.667 -87 89l96 111c22.667 -28 46 -51.333 70 -70s48.167 -33.667 72.5 -45s49 -19.5 74 -24.5s49.833 -7.5 74.5 -7.5
c43.333 0 82.666 6.16699 117.999 18.5s65.5 30.833 90.5 55.5s44.167 54.834 57.5 90.501s20 77.167 20 124.5v94c-36 -41.333 -78.833 -73 -128.5 -95s-107.834 -33 -174.501 -33c-64.667 0 -123.167 13.667 -175.5 41s-97 65.5 -134 114.5s-65.5 107 -85.5 174
s-30 140.167 -30 219.5v21zM282.001 528.999c0 -54 5.5 -104.832 16.5 -152.499s28 -89.167 51 -124.5s52.5 -63.333 88.5 -84s79 -31 129 -31c32.667 0 62.167 4 88.5 12s50 19 71 33s39.5 30.667 55.5 50s30 40.666 42 63.999v494c-12 22 -26 42.5 -42 61.5
s-34.5 35.5 -55.5 49.5s-44.5 24.833 -70.5 32.5s-55 11.5 -87 11.5c-50.667 0 -94 -10.5 -130 -31.5s-65.667 -49.5 -89 -85.5s-40.5 -77.833 -51.5 -125.5s-16.5 -98.5 -16.5 -152.5v-21zM856.001 1496c0 -39.333 -6.83301 -75.333 -20.5 -108
s-33.5 -60.834 -59.5 -84.501s-57.5 -42.167 -94.5 -55.5s-78.5 -20 -124.5 -20s-87.5 6.66699 -124.5 20s-68.5 31.833 -94.5 55.5s-46 51.834 -60 84.501s-21 68.667 -21 108h151c0 -20 2.66699 -39 8 -57s13.833 -33.833 25.5 -47.5s27 -24.5 46 -32.5
s42.167 -12 69.5 -12c26.667 0 49.5 4 68.5 12s34.5 18.833 46.5 32.5s20.667 29.5 26 47.5s8 37 8 57h150z" />
    <glyph glyph-name="uni0120" unicode="&#x120;" horiz-adv-x="1395" 
d="M1244 191c-14 -20 -33.335 -42.1631 -58.002 -66.4961s-57.167 -47.166 -97.5 -68.499s-89.833 -39.333 -148.5 -54s-129 -22 -211 -22c-88.667 0 -170.167 15.667 -244.5 47s-138.333 76.5 -192 135.5s-95.5 131.333 -125.5 217s-45 182.834 -45 291.501v114
c0 108.667 12.833 205.667 38.5 291s63.334 157.666 113.001 216.999s110.834 104.666 183.501 135.999s156 47 250 47c83.333 0 156.333 -11.167 219 -33.5s116 -53.333 160 -93s79 -86.834 105 -141.501s43.667 -114.334 53 -179.001h-192
c-7.33301 39.333 -18.833 76.5 -34.5 111.5s-37.167 65.667 -64.5 92s-61 47.166 -101 62.499s-88 23 -144 23c-68 0 -126.667 -12.333 -176 -37s-90 -60 -122 -106s-55.833 -101.667 -71.5 -167s-23.5 -139 -23.5 -221v-116c0 -84 10 -159 30 -225s48.167 -122 84.5 -168
s80 -81 131 -105s107.5 -36 169.5 -36c52 0 96.167 3.5 132.5 10.5s67 15.667 92 26s45.167 21.666 60.5 33.999s28 23.833 38 34.5v327h-337v156h528v-534zM562.998 1710c0 30 9.16699 55.333 27.5 76s45.5 31 81.5 31s63.333 -10.333 82 -31s28 -46 28 -76
s-9.33301 -55 -28 -75s-46 -30 -82 -30s-63.167 10 -81.5 30s-27.5 45 -27.5 75z" />
    <glyph glyph-name="uni0121" unicode="&#x121;" horiz-adv-x="1149" 
d="M96 550c0 82.667 9.83398 157.833 29.501 225.5s48 125.667 85 174s81.833 85.833 134.5 112.5s112 40 178 40c68.667 0 128.334 -12 179.001 -36s94 -58.667 130 -104l9 120h169v-1059c0 -71.333 -11.167 -134.833 -33.5 -190.5s-53.833 -102.667 -94.5 -141
s-89 -67.5 -145 -87.5s-118 -30 -186 -30c-28 0 -60.167 3.16699 -96.5 9.5s-73 16.666 -110 30.999s-72.5 33.5 -106.5 57.5s-63 53.667 -87 89l96 111c22.667 -28 46 -51.333 70 -70s48.167 -33.667 72.5 -45s49 -19.5 74 -24.5s49.833 -7.5 74.5 -7.5
c43.333 0 82.666 6.16699 117.999 18.5s65.5 30.833 90.5 55.5s44.167 54.834 57.5 90.501s20 77.167 20 124.5v94c-36 -41.333 -78.833 -73 -128.5 -95s-107.834 -33 -174.501 -33c-64.667 0 -123.167 13.667 -175.5 41s-97 65.5 -134 114.5s-65.5 107 -85.5 174
s-30 140.167 -30 219.5v21zM282.001 528.999c0 -54 5.5 -104.832 16.5 -152.499s28 -89.167 51 -124.5s52.5 -63.333 88.5 -84s79 -31 129 -31c32.667 0 62.167 4 88.5 12s50 19 71 33s39.5 30.667 55.5 50s30 40.666 42 63.999v494c-12 22 -26 42.5 -42 61.5
s-34.5 35.5 -55.5 49.5s-44.5 24.833 -70.5 32.5s-55 11.5 -87 11.5c-50.667 0 -94 -10.5 -130 -31.5s-65.667 -49.5 -89 -85.5s-40.5 -77.833 -51.5 -125.5s-16.5 -98.5 -16.5 -152.5v-21zM448.001 1367c0 30 9.16699 55.333 27.5 76s45.5 31 81.5 31
s63.333 -10.333 82 -31s28 -46 28 -76s-9.33301 -55 -28 -75s-46 -30 -82 -30s-63.167 10 -81.5 30s-27.5 45 -27.5 75z" />
    <glyph glyph-name="Gcommaaccent" unicode="&#x122;" horiz-adv-x="1395" 
d="M1244 191c-14 -20 -33.335 -42.1631 -58.002 -66.4961s-57.167 -47.166 -97.5 -68.499s-89.833 -39.333 -148.5 -54s-129 -22 -211 -22c-88.667 0 -170.167 15.667 -244.5 47s-138.333 76.5 -192 135.5s-95.5 131.333 -125.5 217s-45 182.834 -45 291.501v114
c0 108.667 12.833 205.667 38.5 291s63.334 157.666 113.001 216.999s110.834 104.666 183.501 135.999s156 47 250 47c83.333 0 156.333 -11.167 219 -33.5s116 -53.333 160 -93s79 -86.834 105 -141.501s43.667 -114.334 53 -179.001h-192
c-7.33301 39.333 -18.833 76.5 -34.5 111.5s-37.167 65.667 -64.5 92s-61 47.166 -101 62.499s-88 23 -144 23c-68 0 -126.667 -12.333 -176 -37s-90 -60 -122 -106s-55.833 -101.667 -71.5 -167s-23.5 -139 -23.5 -221v-116c0 -84 10 -159 30 -225s48.167 -122 84.5 -168
s80 -81 131 -105s107.5 -36 169.5 -36c52 0 96.167 3.5 132.5 10.5s67 15.667 92 26s45.167 21.666 60.5 33.999s28 23.833 38 34.5v327h-337v156h528v-534zM761.998 -200.996c0 -26.667 -3 -54.501 -9 -83.501s-15 -57.833 -27 -86.5s-27.167 -56 -45.5 -82
s-39.833 -49 -64.5 -69l-105 72c25.333 38.667 44 77.834 56 117.501s18 82.5 18 128.5v82h177v-79z" />
    <glyph glyph-name="gcommaaccent" unicode="&#x123;" horiz-adv-x="1149" 
d="M96 550c0 82.667 9.83398 157.833 29.501 225.5s48 125.667 85 174s81.833 85.833 134.5 112.5s112 40 178 40c68.667 0 128.334 -12 179.001 -36s94 -58.667 130 -104l9 120h169v-1059c0 -71.333 -11.167 -134.833 -33.5 -190.5s-53.833 -102.667 -94.5 -141
s-89 -67.5 -145 -87.5s-118 -30 -186 -30c-28 0 -60.167 3.16699 -96.5 9.5s-73 16.666 -110 30.999s-72.5 33.5 -106.5 57.5s-63 53.667 -87 89l96 111c22.667 -28 46 -51.333 70 -70s48.167 -33.667 72.5 -45s49 -19.5 74 -24.5s49.833 -7.5 74.5 -7.5
c43.333 0 82.666 6.16699 117.999 18.5s65.5 30.833 90.5 55.5s44.167 54.834 57.5 90.501s20 77.167 20 124.5v94c-36 -41.333 -78.833 -73 -128.5 -95s-107.834 -33 -174.501 -33c-64.667 0 -123.167 13.667 -175.5 41s-97 65.5 -134 114.5s-65.5 107 -85.5 174
s-30 140.167 -30 219.5v21zM282.001 528.999c0 -54 5.5 -104.832 16.5 -152.499s28 -89.167 51 -124.5s52.5 -63.333 88.5 -84s79 -31 129 -31c32.667 0 62.167 4 88.5 12s50 19 71 33s39.5 30.667 55.5 50s30 40.666 42 63.999v494c-12 22 -26 42.5 -42 61.5
s-34.5 35.5 -55.5 49.5s-44.5 24.833 -70.5 32.5s-55 11.5 -87 11.5c-50.667 0 -94 -10.5 -130 -31.5s-65.667 -49.5 -89 -85.5s-40.5 -77.833 -51.5 -125.5s-16.5 -98.5 -16.5 -152.5v-21zM458.001 1383c0 30 4.33203 59.8301 12.999 89.4971s19.834 57.834 33.501 84.501
s28.667 50.834 45 72.501s32.5 39.5 48.5 53.5l107 -83c-23.333 -39.333 -39.5 -76.666 -48.5 -111.999s-13.5 -73.333 -13.5 -114v-120h-185v129z" />
    <glyph glyph-name="Hcircumflex" unicode="&#x124;" horiz-adv-x="1460" 
d="M1288 0h-193v673h-734v-673h-192v1456h192v-626h734v626h193v-1456zM1015 1584v-10h-153l-150 170l-149 -170h-153v12l246 272h112z" />
    <glyph glyph-name="hcircumflex" unicode="&#x125;" horiz-adv-x="1128" 
d="M325 951c38.667 47.333 84.9971 84.333 138.997 111s114.333 40 181 40c52.667 0 100.334 -7.16699 143.001 -21.5s79 -37.333 109 -69s53.167 -72.334 69.5 -122.001s24.5 -109.834 24.5 -180.501v-709h-185v711c0 42 -4.66699 77.833 -14 107.5
s-23.166 53.834 -41.499 72.501s-41 32.334 -68 41.001s-58.167 13 -93.5 13c-60 0 -112.667 -16 -158 -48s-80.666 -74 -105.999 -126v-771h-185v1536h185v-585zM802.997 1583v-10h-153l-150 170l-149 -170h-153v12l246 272h112z" />
    <glyph glyph-name="Hbar" unicode="&#x126;" horiz-adv-x="1435" 
d="M1282 1167h135v-143h-135v-1024h-193v673h-734v-673h-192v1024h-133v143h133v289h192v-289h734v289h193v-289zM355 830h734v194h-734v-194z" />
    <glyph glyph-name="hbar" unicode="&#x127;" horiz-adv-x="1158" 
d="M636 1234h-281.003v-283c38.667 47.333 85 84.333 139 111s114.333 40 181 40c52.667 0 100.334 -7.16699 143.001 -21.5s79 -37.333 109 -69s53.167 -72.334 69.5 -122.001s24.5 -109.834 24.5 -180.501v-709h-185v711c0 42 -4.66699 77.833 -14 107.5
s-23.166 53.834 -41.499 72.501s-41 32.334 -68 41.001s-58.167 13 -93.5 13c-60 0 -112.667 -16 -158 -48s-80.666 -74 -105.999 -126v-771h-185v1234h-170v151h170v151h185v-151h281v-151z" />
    <glyph glyph-name="Itilde" unicode="&#x128;" horiz-adv-x="557" 
d="M375 0h-192v1456h192v-1456zM634 1826c0 -36.667 -5.50391 -70 -16.5039 -100s-26.333 -55.5 -46 -76.5s-42.5 -37.167 -68.5 -48.5s-54 -17 -84 -17c-34 0 -62 5 -84 15s-42 20.833 -60 32.5s-36.333 22.5 -55 32.5s-42 15 -70 15c-14 0 -27 -2.83301 -39 -8.5
s-22.5 -13.5 -31.5 -23.5s-16 -21.833 -21 -35.5s-7.5 -28.5 -7.5 -44.5l-124 7c0 36.667 5.5 70.167 16.5 100.5s26 56.333 45 78s41.667 38.5 68 50.5s54.5 18 84.5 18c28.667 0 53.834 -5 75.501 -15s42.334 -21 62.001 -33s39.834 -23 60.501 -33s44.334 -15 71.001 -15
c14 0 27 2.83301 39 8.5s22.5 13.667 31.5 24s16.167 22.333 21.5 36s8 28.5 8 44.5z" />
    <glyph glyph-name="itilde" unicode="&#x129;" horiz-adv-x="506" 
d="M341 0h-186v1082h186v-1082zM608 1502c0 -36.667 -5.50391 -70 -16.5039 -100s-26.333 -55.5 -46 -76.5s-42.5 -37.167 -68.5 -48.5s-54 -17 -84 -17c-34 0 -62 5 -84 15s-42 20.833 -60 32.5s-36.333 22.5 -55 32.5s-42 15 -70 15c-14 0 -27 -2.83301 -39 -8.5
s-22.5 -13.5 -31.5 -23.5s-16 -21.833 -21 -35.5s-7.5 -28.5 -7.5 -44.5l-124 7c0 36.667 5.5 70.167 16.5 100.5s26 56.333 45 78s41.667 38.5 68 50.5s54.5 18 84.5 18c28.667 0 53.834 -5 75.501 -15s42.334 -21 62.001 -33s39.834 -23 60.501 -33s44.334 -15 71.001 -15
c14 0 27 2.83301 39 8.5s22.5 13.667 31.5 24s16.167 22.333 21.5 36s8 28.5 8 44.5z" />
    <glyph glyph-name="Imacron" unicode="&#x12a;" horiz-adv-x="557" 
d="M375 0h-192v1456h192v-1456zM640 1643h-714v143h714v-143z" />
    <glyph glyph-name="imacron" unicode="&#x12b;" horiz-adv-x="506" 
d="M341 0h-186v1082h186v-1082zM614 1319h-714v143h714v-143z" />
    <glyph glyph-name="Ibreve" unicode="&#x12c;" horiz-adv-x="557" 
d="M375 0h-192v1456h192v-1456zM579 1818c0 -39.333 -6.83301 -75.333 -20.5 -108s-33.5 -60.834 -59.5 -84.501s-57.5 -42.167 -94.5 -55.5s-78.5 -20 -124.5 -20s-87.5 6.66699 -124.5 20s-68.5 31.833 -94.5 55.5s-46 51.834 -60 84.501s-21 68.667 -21 108h151
c0 -20 2.66699 -39 8 -57s13.833 -33.833 25.5 -47.5s27 -24.5 46 -32.5s42.167 -12 69.5 -12c26.667 0 49.5 4 68.5 12s34.5 18.833 46.5 32.5s20.667 29.5 26 47.5s8 37 8 57h150z" />
    <glyph glyph-name="ibreve" unicode="&#x12d;" horiz-adv-x="506" 
d="M341 0h-186v1082h186v-1082zM553 1495c0 -39.333 -6.83301 -75.333 -20.5 -108s-33.5 -60.834 -59.5 -84.501s-57.5 -42.167 -94.5 -55.5s-78.5 -20 -124.5 -20s-87.5 6.66699 -124.5 20s-68.5 31.833 -94.5 55.5s-46 51.834 -60 84.501s-21 68.667 -21 108h151
c0 -20 2.66699 -39 8 -57s13.833 -33.833 25.5 -47.5s27 -24.5 46 -32.5s42.167 -12 69.5 -12c26.667 0 49.5 4 68.5 12s34.5 18.833 46.5 32.5s20.667 29.5 26 47.5s8 37 8 57h150z" />
    <glyph glyph-name="Iogonek" unicode="&#x12e;" horiz-adv-x="557" 
d="M375 0l-33.999 0.00195312l-63 -49c-20.667 -16.667 -39 -34.334 -55 -53.001s-28.833 -37.834 -38.5 -57.501s-14.5 -40.5 -14.5 -62.5s5.66699 -39.5 17 -52.5s31.666 -19.5 60.999 -19.5c22 0 41.5 3 58.5 9s30.833 11.667 41.5 17l13 -121
c-16 -10 -36.667 -19.833 -62 -29.5s-58 -14.5 -98 -14.5c-27.333 0 -52.666 4 -75.999 12s-43.5 20 -60.5 36s-30.5 35.833 -40.5 59.5s-15 51.167 -15 82.5c0 44.667 13.667 88.667 41 132s71.666 84 132.999 122v1445h192v-1456z" />
    <glyph glyph-name="iogonek" unicode="&#x12f;" horiz-adv-x="497" 
d="M341 0l-15.001 0.00195312l-63 -49c-20.667 -16.667 -39 -34.334 -55 -53.001s-28.833 -37.834 -38.5 -57.501s-14.5 -40.5 -14.5 -62.5s5.66699 -39.5 17 -52.5s31.666 -19.5 60.999 -19.5c22 0 41.5 3 58.5 9s30.833 11.667 41.5 17l13 -121
c-16 -10 -36.667 -19.833 -62 -29.5s-58 -14.5 -98 -14.5c-27.333 0 -52.666 4 -75.999 12s-43.5 20 -60.5 36s-30.5 35.833 -40.5 59.5s-15 51.167 -15 82.5c0 43.333 12.833 86 38.5 128s66.834 81.667 123.501 119v1078h185v-1082zM140.999 1369
c0 30 9.16699 55.333 27.5 76s45.5 31 81.5 31s63.333 -10.333 82 -31s28 -46 28 -76s-9.33301 -55 -28 -75s-46 -30 -82 -30s-63.167 10 -81.5 30s-27.5 45 -27.5 75z" />
    <glyph glyph-name="Idotaccent" unicode="&#x130;" horiz-adv-x="557" 
d="M375 0h-192v1456h192v-1456zM170 1689c0 30 9.16699 55.333 27.5 76s45.5 31 81.5 31s63.333 -10.333 82 -31s28 -46 28 -76s-9.33301 -55 -28 -75s-46 -30 -82 -30s-63.167 10 -81.5 30s-27.5 45 -27.5 75z" />
    <glyph glyph-name="dotlessi" unicode="&#x131;" horiz-adv-x="506" 
d="M341 0h-186v1082h186v-1082z" />
    <glyph glyph-name="IJ" unicode="&#x132;" horiz-adv-x="1687" 
d="M375 0h-192v1456h192v-1456zM1336 1456l193.002 -0.000976562v-1031c0 -72 -11.333 -135.833 -34 -191.5s-54.5 -102.167 -95.5 -139.5s-89.667 -65.666 -146 -84.999s-117.833 -29 -184.5 -29c-67.333 0 -129 8.5 -185 25.5s-104.333 43 -145 78s-72.334 79 -95.001 132
s-34 115.167 -34 186.5h192c0 -46 6.66699 -85.667 20 -119s31.666 -60.833 54.999 -82.5s51.333 -37.667 84 -48s68.667 -15.5 108 -15.5c38 0 73.333 6.16699 106 18.5s61 30.5 85 54.5s42.667 54 56 90s20 77.667 20 125v1031z" />
    <glyph glyph-name="ij" unicode="&#x133;" horiz-adv-x="986" 
d="M341 0h-185v1082h185v-1082zM141 1369c0 30 9.16699 55.333 27.5 76s45.5 31 81.5 31s63.333 -10.333 82 -31s28 -46 28 -76s-9.33301 -55 -28 -75s-46 -30 -82 -30s-63.167 10 -81.5 30s-27.5 45 -27.5 75zM828 1082l-0.00195312 -1211
c0 -100 -23.333 -176.333 -70 -229s-117.667 -79 -213 -79c-17.333 0 -36.666 1.66699 -57.999 5s-39.666 7.66602 -54.999 12.999v148c13.333 -3.33301 27.833 -5.5 43.5 -6.5s29.167 -1.5 40.5 -1.5c41.333 0 72.833 11.167 94.5 33.5s32.5 61.166 32.5 116.499v1211h185z
M623.998 1369c0 29.333 9.16797 54.5 27.501 75.5s45.166 31.5 80.499 31.5c36 0 63.333 -10.333 82 -31s28 -46 28 -76s-9.33301 -55 -28 -75s-46 -30 -82 -30s-63 10 -81 30s-27 45 -27 75z" />
    <glyph glyph-name="Jcircumflex" unicode="&#x134;" horiz-adv-x="1130" 
d="M779 1456l193.002 -0.000976562v-1031c0 -72 -11.333 -135.833 -34 -191.5s-54.5 -102.167 -95.5 -139.5s-89.667 -65.666 -146 -84.999s-117.833 -29 -184.5 -29c-67.333 0 -129 8.5 -185 25.5s-104.333 43 -145 78s-72.334 79 -95.001 132s-34 115.167 -34 186.5h192
c0 -46 6.66699 -85.667 20 -119s31.666 -60.833 54.999 -82.5s51.333 -37.667 84 -48s68.667 -15.5 108 -15.5c38 0 73.333 6.16699 106 18.5s61 30.5 85 54.5s42.667 54 56 90s20 77.667 20 125v1031zM1154 1571v-10h-153l-150 170l-149 -170h-153v12l246 272h112z" />
    <glyph glyph-name="jcircumflex" unicode="&#x135;" horiz-adv-x="515" 
d="M357 1082l-0.000976562 -1171c0 -113.333 -28.333 -199.666 -85 -258.999s-135.667 -89 -237 -89c-20 0 -38.667 1.33301 -56 4s-35.666 7.33398 -54.999 14.001l14 147c4.66699 -2 11.5 -3.83301 20.5 -5.5s18.333 -3 28 -4s19 -1.83301 28 -2.5s15.833 -1 20.5 -1
c43.333 0 77 17.333 101 52s36 82.667 36 144v1171h185zM568.999 1222v-10h-153l-150 170l-149 -170h-153v12l246 272h112z" />
    <glyph glyph-name="Kcommaaccent" unicode="&#x136;" horiz-adv-x="1284" 
d="M539 677l-178 -185v-492h-192v1456h192v-720l158 176l489 544h232l-573 -643l618 -813h-230zM747 -103c0 -26.667 -3 -54.501 -9 -83.501s-15 -57.833 -27 -86.5s-27.167 -56 -45.5 -82s-39.833 -49 -64.5 -69l-105 72c25.333 38.667 44 77.834 56 117.501
s18 82.5 18 128.5v82h177v-79z" />
    <glyph glyph-name="kcommaaccent" unicode="&#x137;" horiz-adv-x="1038" 
d="M442 501l-116 -121v-380h-185v1536h185v-929l99 119l337 356h225l-421 -452l470 -630h-217zM616 -122c0 -26.667 -3 -54.501 -9 -83.501s-15 -57.833 -27 -86.5s-27.167 -56 -45.5 -82s-39.833 -49 -64.5 -69l-105 72c25.333 38.667 44 77.834 56 117.501
s18 82.5 18 128.5v82h177v-79z" />
    <glyph glyph-name="kgreenlandic" unicode="&#x138;" horiz-adv-x="1139" 
d="M447 461h-107v-461h-186v1082h186v-458h91l397 458h223l-452 -525l488 -557h-233z" />
    <glyph glyph-name="Lacute" unicode="&#x139;" horiz-adv-x="1102" 
d="M362 157h690v-157h-883v1456h193v-1299zM354 1839h224l-268 -294h-149z" />
    <glyph glyph-name="lacute" unicode="&#x13a;" horiz-adv-x="497" 
d="M341 0h-185v1536h185v-1536zM340 1940h224l-268 -294h-149z" />
    <glyph glyph-name="Lcommaaccent" unicode="&#x13b;" horiz-adv-x="1102" 
d="M362 157h690v-157h-883v1456h193v-1299zM707 -182c0 -26.667 -3 -54.501 -9 -83.501s-15 -57.833 -27 -86.5s-27.167 -56 -45.5 -82s-39.833 -49 -64.5 -69l-105 72c25.333 38.667 44 77.834 56 117.501s18 82.5 18 128.5v82h177v-79z" />
    <glyph glyph-name="lcommaaccent" unicode="&#x13c;" horiz-adv-x="497" 
d="M341 0h-185v1536h185v-1536zM338 -182c0 -26.667 -3 -54.501 -9 -83.501s-15 -57.833 -27 -86.5s-27.167 -56 -45.5 -82s-39.833 -49 -64.5 -69l-105 72c25.333 38.667 44 77.834 56 117.501s18 82.5 18 128.5v82h177v-79z" />
    <glyph glyph-name="Lcaron" unicode="&#x13d;" horiz-adv-x="1102" 
d="M362 157h690v-157h-883v1456h193v-1299zM858 1328c0 -30.667 -3.83203 -62.5 -11.499 -95.5s-19 -65.5 -34 -97.5s-33.167 -62.5 -54.5 -91.5s-46 -54.833 -74 -77.5l-105 72c31.333 44 55.166 89.167 71.499 135.5s24.5 96.833 24.5 151.5v131h183v-128z" />
    <glyph glyph-name="lcaron" unicode="&#x13e;" horiz-adv-x="647" 
d="M341 0h-185v1536h185v-1536zM731 1408c0 -30.667 -3.83203 -62.5 -11.499 -95.5s-19 -65.5 -34 -97.5s-33.167 -62.5 -54.5 -91.5s-46 -54.833 -74 -77.5l-105 72c31.333 44 55.166 89.167 71.499 135.5s24.5 96.833 24.5 151.5v131h183v-128z" />
    <glyph glyph-name="Ldot" unicode="&#x13f;" horiz-adv-x="1102" 
d="M362 157h690v-157h-883v1456h193v-1299zM585 796c0 30 9.16699 55.333 27.5 76s45.5 31 81.5 31s63.333 -10.333 82 -31s28 -46 28 -76s-9.33301 -55 -28 -75s-46 -30 -82 -30s-63.167 10 -81.5 30s-27.5 45 -27.5 75z" />
    <glyph glyph-name="ldot" unicode="&#x140;" horiz-adv-x="717" 
d="M341 0h-185v1536h185v-1536zM453 781c0 30 9.16699 55.333 27.5 76s45.5 31 81.5 31s63.333 -10.333 82 -31s28 -46 28 -76s-9.33301 -55 -28 -75s-46 -30 -82 -30s-63.167 10 -81.5 30s-27.5 45 -27.5 75z" />
    <glyph glyph-name="Lslash" unicode="&#x141;" horiz-adv-x="1103" 
d="M361 844l263 84v-162l-263 -84v-525h690v-157h-883v621l-133 -42v162l133 42v673h193v-612z" />
    <glyph glyph-name="lslash" unicode="&#x142;" horiz-adv-x="554" 
d="M364 869l159 61v-162l-159 -61v-707h-185v636l-144 -55v162l144 55v738h185v-667z" />
    <glyph glyph-name="Nacute" unicode="&#x143;" horiz-adv-x="1460" 
d="M1288 0h-193l-733 1122v-1122h-193v1456h193l735 -1127v1127h191v-1456zM817 1844h224l-268 -294h-149z" />
    <glyph glyph-name="nacute" unicode="&#x144;" horiz-adv-x="1130" 
d="M315 1082l5.99609 -136.001c38.667 48.667 85.334 86.834 140.001 114.501s116 41.5 184 41.5c52.667 0 100.334 -7.16699 143.001 -21.5s79 -37.333 109 -69s53.167 -72.334 69.5 -122.001s24.5 -109.834 24.5 -180.501v-709h-185v711c0 42 -4.66699 77.833 -14 107.5
s-23.166 53.834 -41.499 72.501s-41 32.334 -68 41.001s-58.167 13 -93.5 13c-60 0 -112.667 -16 -158 -48s-80.666 -74 -105.999 -126v-771h-185v1082h175zM662.996 1534h224l-268 -294h-149z" />
    <glyph glyph-name="Ncommaaccent" unicode="&#x145;" horiz-adv-x="1460" 
d="M1288 0h-193l-733 1122v-1122h-193v1456h193l735 -1127v1127h191v-1456zM807 -182c0 -26.667 -3 -54.501 -9 -83.501s-15 -57.833 -27 -86.5s-27.167 -56 -45.5 -82s-39.833 -49 -64.5 -69l-105 72c25.333 38.667 44 77.834 56 117.501s18 82.5 18 128.5v82h177v-79z" />
    <glyph glyph-name="ncommaaccent" unicode="&#x146;" horiz-adv-x="1130" 
d="M315 1082l5.99609 -136.001c38.667 48.667 85.334 86.834 140.001 114.501s116 41.5 184 41.5c52.667 0 100.334 -7.16699 143.001 -21.5s79 -37.333 109 -69s53.167 -72.334 69.5 -122.001s24.5 -109.834 24.5 -180.501v-709h-185v711c0 42 -4.66699 77.833 -14 107.5
s-23.166 53.834 -41.499 72.501s-41 32.334 -68 41.001s-58.167 13 -93.5 13c-60 0 -112.667 -16 -158 -48s-80.666 -74 -105.999 -126v-771h-185v1082h175zM649.996 -182.001c0 -26.667 -3 -54.501 -9 -83.501s-15 -57.833 -27 -86.5s-27.167 -56 -45.5 -82
s-39.833 -49 -64.5 -69l-105 72c25.333 38.667 44 77.834 56 117.501s18 82.5 18 128.5v82h177v-79z" />
    <glyph glyph-name="Ncaron" unicode="&#x147;" horiz-adv-x="1460" 
d="M1288 0h-193l-733 1122v-1122h-193v1456h193l735 -1127v1127h191v-1456zM725 1676l150 170h160v-10l-254 -274h-113l-251 274v10h157z" />
    <glyph glyph-name="ncaron" unicode="&#x148;" horiz-adv-x="1130" 
d="M315 1082l5.99609 -136.001c38.667 48.667 85.334 86.834 140.001 114.501s116 41.5 184 41.5c52.667 0 100.334 -7.16699 143.001 -21.5s79 -37.333 109 -69s53.167 -72.334 69.5 -122.001s24.5 -109.834 24.5 -180.501v-709h-185v711c0 42 -4.66699 77.833 -14 107.5
s-23.166 53.834 -41.499 72.501s-41 32.334 -68 41.001s-58.167 13 -93.5 13c-60 0 -112.667 -16 -158 -48s-80.666 -74 -105.999 -126v-771h-185v1082h175zM570.996 1366l150 170h160v-10l-254 -274h-113l-251 274v10h157z" />
    <glyph glyph-name="napostrophe" unicode="&#x149;" horiz-adv-x="1130" 
d="M315 1082l5.99609 -136.001c38.667 48.667 85.334 86.834 140.001 114.501s116 41.5 184 41.5c52.667 0 100.334 -7.16699 143.001 -21.5s79 -37.333 109 -69s53.167 -72.334 69.5 -122.001s24.5 -109.834 24.5 -180.501v-709h-185v711c0 42 -4.66699 77.833 -14 107.5
s-23.166 53.834 -41.499 72.501s-41 32.334 -68 41.001s-58.167 13 -93.5 13c-60 0 -112.667 -16 -158 -48s-80.666 -74 -105.999 -126v-771h-185v1082h175zM228.996 1410c0 -30.667 -3.83203 -62.5 -11.499 -95.5s-19 -65.5 -34 -97.5s-33.167 -62.5 -54.5 -91.5
s-46 -54.833 -74 -77.5l-105 72c31.333 44 55.166 89.167 71.499 135.5s24.5 96.833 24.5 151.5v131h183v-128z" />
    <glyph glyph-name="Eng" unicode="&#x14a;" horiz-adv-x="1419" 
d="M1265 1456v-1540c0 -57.333 -7.5 -107.833 -22.5 -151.5s-36.5 -80.5 -64.5 -110.5s-62.333 -52.667 -103 -68s-86.334 -23 -137.001 -23c-21.333 0 -40.833 1.33301 -58.5 4s-36.5 7.33398 -56.5 14.001l14 154c5.33301 -2 12.5 -3.83301 21.5 -5.5
s18.333 -3.16699 28 -4.5s18.834 -2.33301 27.501 -3s15.667 -1 21 -1c44 0 77.667 17.167 101 51.5s35 82.166 35 143.499v84l-717 1130v-1130h-192v1456h192l717 -1128v1128h194z" />
    <glyph glyph-name="eng" unicode="&#x14b;" horiz-adv-x="1160" 
d="M311 1082l13.0029 -154c36 54 80.5 96.5 133.5 127.5s114.833 46.5 185.5 46.5c56 0 106.5 -8 151.5 -24s83.333 -41 115 -75s56 -77.5 73 -130.5s25.5 -116.5 25.5 -190.5v-771c0 -56 -7.33301 -105.667 -22 -149s-35.834 -79.833 -63.501 -109.5s-61.5 -52 -101.5 -67
s-85 -22.5 -135 -22.5c-20.667 0 -40 1.33301 -58 4s-37 7.33398 -57 14.001l14 157c5.33301 -2 12.833 -3.83301 22.5 -5.5s19.5 -3 29.5 -4s19.5 -1.83301 28.5 -2.5s15.833 -1 20.5 -1c43.333 0 77 15.667 101 47s36 77.666 36 138.999v767
c0 50 -5.16699 92.167 -15.5 126.5s-25.5 61.833 -45.5 82.5s-44.667 35.5 -74 44.5s-63 13.5 -101 13.5c-62.667 0 -114.834 -12 -156.501 -36s-74.834 -56.333 -99.501 -97v-812h-186v1082h166z" />
    <glyph glyph-name="Omacron" unicode="&#x14c;" horiz-adv-x="1408" 
d="M1289 681c0 -109.333 -13.832 -207.166 -41.499 -293.499s-66.834 -159.833 -117.501 -220.5s-112 -107 -184 -139s-152.333 -48 -241 -48c-86 0 -165 16 -237 48s-134 78.333 -186 139s-92.333 134.167 -121 220.5s-43 184.166 -43 293.499v92
c0 108.667 14.333 206.5 43 293.5s68.667 160.833 120 221.5s113 107.167 185 139.5s151 48.5 237 48.5c88.667 0 169.167 -16.167 241.5 -48.5s134 -78.833 185 -139.5s90.333 -134.5 118 -221.5s41.5 -184.833 41.5 -293.5v-92zM1098 775
c0 86.667 -8.83594 163.334 -26.5029 230.001s-43.5 122.667 -77.5 168s-75.5 79.666 -124.5 102.999s-104.5 35 -166.5 35c-59.333 0 -113.333 -11.667 -162 -35s-90.167 -57.666 -124.5 -102.999s-60.833 -101.333 -79.5 -168s-28 -143.334 -28 -230.001v-94
c0 -87.333 9.5 -164.333 28.5 -231s45.833 -122.834 80.5 -168.501s76.334 -80.167 125.001 -103.5s102.667 -35 162 -35c62.667 0 118.334 11.667 167.001 35s89.834 57.833 123.501 103.5s59.167 101.834 76.5 168.501s26 143.667 26 231v94zM1067 1633h-714v143h714v-143
z" />
    <glyph glyph-name="omacron" unicode="&#x14d;" horiz-adv-x="1168" 
d="M91 551c0 78.667 11.502 151.5 34.502 218.5s55.667 125.167 98 174.5s93.833 88 154.5 116s128.667 42 204 42c76.667 0 145.5 -14 206.5 -42s112.833 -66.667 155.5 -116s75.334 -107.5 98.001 -174.5s34 -139.833 34 -218.5v-22c0 -78.667 -11.333 -151.5 -34 -218.5
s-55.334 -125 -98.001 -174s-94.334 -87.333 -155.001 -115s-129 -41.5 -205 -41.5s-144.333 13.833 -205 41.5s-112.334 66 -155.001 115s-75.5 107 -98.5 174s-34.5 139.833 -34.5 218.5v22zM277.002 529c0 -54 6.33398 -105 19.001 -153s31.834 -90.167 57.501 -126.5
s57.667 -65.166 96 -86.499s83.166 -32 134.499 -32c50.667 0 95.334 10.667 134.001 32s70.667 50.166 96 86.499s44.5 78.5 57.5 126.5s19.5 99 19.5 153v22c0 53.333 -6.5 104.166 -19.5 152.499s-32.333 90.666 -58 126.999s-57.834 65.333 -96.501 87
s-83.667 32.5 -135 32.5c-50.667 0 -95 -10.833 -133 -32.5s-69.833 -50.667 -95.5 -87s-44.834 -78.666 -57.501 -126.999s-19 -99.166 -19 -152.499v-22zM937.003 1321h-714v143h714v-143z" />
    <glyph glyph-name="Obreve" unicode="&#x14e;" horiz-adv-x="1408" 
d="M1289 681c0 -109.333 -13.832 -207.166 -41.499 -293.499s-66.834 -159.833 -117.501 -220.5s-112 -107 -184 -139s-152.333 -48 -241 -48c-86 0 -165 16 -237 48s-134 78.333 -186 139s-92.333 134.167 -121 220.5s-43 184.166 -43 293.499v92
c0 108.667 14.333 206.5 43 293.5s68.667 160.833 120 221.5s113 107.167 185 139.5s151 48.5 237 48.5c88.667 0 169.167 -16.167 241.5 -48.5s134 -78.833 185 -139.5s90.333 -134.5 118 -221.5s41.5 -184.833 41.5 -293.5v-92zM1098 775
c0 86.667 -8.83594 163.334 -26.5029 230.001s-43.5 122.667 -77.5 168s-75.5 79.666 -124.5 102.999s-104.5 35 -166.5 35c-59.333 0 -113.333 -11.667 -162 -35s-90.167 -57.666 -124.5 -102.999s-60.833 -101.333 -79.5 -168s-28 -143.334 -28 -230.001v-94
c0 -87.333 9.5 -164.333 28.5 -231s45.833 -122.834 80.5 -168.501s76.334 -80.167 125.001 -103.5s102.667 -35 162 -35c62.667 0 118.334 11.667 167.001 35s89.834 57.833 123.501 103.5s59.167 101.834 76.5 168.501s26 143.667 26 231v94zM1006 1808
c0 -39.333 -6.83301 -75.333 -20.5 -108s-33.5 -60.834 -59.5 -84.501s-57.5 -42.167 -94.5 -55.5s-78.5 -20 -124.5 -20s-87.5 6.66699 -124.5 20s-68.5 31.833 -94.5 55.5s-46 51.834 -60 84.501s-21 68.667 -21 108h151c0 -20 2.66699 -39 8 -57
s13.833 -33.833 25.5 -47.5s27 -24.5 46 -32.5s42.167 -12 69.5 -12c26.667 0 49.5 4 68.5 12s34.5 18.833 46.5 32.5s20.667 29.5 26 47.5s8 37 8 57h150z" />
    <glyph glyph-name="obreve" unicode="&#x14f;" horiz-adv-x="1168" 
d="M91 551c0 78.667 11.502 151.5 34.502 218.5s55.667 125.167 98 174.5s93.833 88 154.5 116s128.667 42 204 42c76.667 0 145.5 -14 206.5 -42s112.833 -66.667 155.5 -116s75.334 -107.5 98.001 -174.5s34 -139.833 34 -218.5v-22c0 -78.667 -11.333 -151.5 -34 -218.5
s-55.334 -125 -98.001 -174s-94.334 -87.333 -155.001 -115s-129 -41.5 -205 -41.5s-144.333 13.833 -205 41.5s-112.334 66 -155.001 115s-75.5 107 -98.5 174s-34.5 139.833 -34.5 218.5v22zM277.002 529c0 -54 6.33398 -105 19.001 -153s31.834 -90.167 57.501 -126.5
s57.667 -65.166 96 -86.499s83.166 -32 134.499 -32c50.667 0 95.334 10.667 134.001 32s70.667 50.166 96 86.499s44.5 78.5 57.5 126.5s19.5 99 19.5 153v22c0 53.333 -6.5 104.166 -19.5 152.499s-32.333 90.666 -58 126.999s-57.834 65.333 -96.501 87
s-83.667 32.5 -135 32.5c-50.667 0 -95 -10.833 -133 -32.5s-69.833 -50.667 -95.5 -87s-44.834 -78.666 -57.501 -126.999s-19 -99.166 -19 -152.499v-22zM876.003 1496c0 -39.333 -6.83301 -75.333 -20.5 -108s-33.5 -60.834 -59.5 -84.501s-57.5 -42.167 -94.5 -55.5
s-78.5 -20 -124.5 -20s-87.5 6.66699 -124.5 20s-68.5 31.833 -94.5 55.5s-46 51.834 -60 84.501s-21 68.667 -21 108h151c0 -20 2.66699 -39 8 -57s13.833 -33.833 25.5 -47.5s27 -24.5 46 -32.5s42.167 -12 69.5 -12c26.667 0 49.5 4 68.5 12s34.5 18.833 46.5 32.5
s20.667 29.5 26 47.5s8 37 8 57h150z" />
    <glyph glyph-name="Ohungarumlaut" unicode="&#x150;" horiz-adv-x="1408" 
d="M1289 681c0 -109.333 -13.832 -207.166 -41.499 -293.499s-66.834 -159.833 -117.501 -220.5s-112 -107 -184 -139s-152.333 -48 -241 -48c-86 0 -165 16 -237 48s-134 78.333 -186 139s-92.333 134.167 -121 220.5s-43 184.166 -43 293.499v92
c0 108.667 14.333 206.5 43 293.5s68.667 160.833 120 221.5s113 107.167 185 139.5s151 48.5 237 48.5c88.667 0 169.167 -16.167 241.5 -48.5s134 -78.833 185 -139.5s90.333 -134.5 118 -221.5s41.5 -184.833 41.5 -293.5v-92zM1098 775
c0 86.667 -8.83594 163.334 -26.5029 230.001s-43.5 122.667 -77.5 168s-75.5 79.666 -124.5 102.999s-104.5 35 -166.5 35c-59.333 0 -113.333 -11.667 -162 -35s-90.167 -57.666 -124.5 -102.999s-60.833 -101.333 -79.5 -168s-28 -143.334 -28 -230.001v-94
c0 -87.333 9.5 -164.333 28.5 -231s45.833 -122.834 80.5 -168.501s76.334 -80.167 125.001 -103.5s102.667 -35 162 -35c62.667 0 118.334 11.667 167.001 35s89.834 57.833 123.501 103.5s59.167 101.834 76.5 168.501s26 143.667 26 231v94zM967.998 1847h207l-269 -303
h-169zM627.998 1847h197l-218 -303h-150z" />
    <glyph glyph-name="ohungarumlaut" unicode="&#x151;" horiz-adv-x="1168" 
d="M91 551c0 78.667 11.502 151.5 34.502 218.5s55.667 125.167 98 174.5s93.833 88 154.5 116s128.667 42 204 42c76.667 0 145.5 -14 206.5 -42s112.833 -66.667 155.5 -116s75.334 -107.5 98.001 -174.5s34 -139.833 34 -218.5v-22c0 -78.667 -11.333 -151.5 -34 -218.5
s-55.334 -125 -98.001 -174s-94.334 -87.333 -155.001 -115s-129 -41.5 -205 -41.5s-144.333 13.833 -205 41.5s-112.334 66 -155.001 115s-75.5 107 -98.5 174s-34.5 139.833 -34.5 218.5v22zM277.002 529c0 -54 6.33398 -105 19.001 -153s31.834 -90.167 57.501 -126.5
s57.667 -65.166 96 -86.499s83.166 -32 134.499 -32c50.667 0 95.334 10.667 134.001 32s70.667 50.166 96 86.499s44.5 78.5 57.5 126.5s19.5 99 19.5 153v22c0 53.333 -6.5 104.166 -19.5 152.499s-32.333 90.666 -58 126.999s-57.834 65.333 -96.501 87
s-83.667 32.5 -135 32.5c-50.667 0 -95 -10.833 -133 -32.5s-69.833 -50.667 -95.5 -87s-44.834 -78.666 -57.501 -126.999s-19 -99.166 -19 -152.499v-22zM838.003 1535h207l-269 -303h-169zM498.003 1535h197l-218 -303h-150z" />
    <glyph glyph-name="OE" unicode="&#x152;" horiz-adv-x="1953" 
d="M1801 0l-847.001 -0.00195312c-45.333 -5.33301 -92.5 -10.166 -141.5 -14.499s-99.167 -6.5 -150.5 -6.5c-82.667 0 -158.167 14.5 -226.5 43.5s-127 69.833 -176 122.5s-87 115.667 -114 189s-40.5 154 -40.5 242v304c0 88 13.333 168.667 40 242
s64.334 136.333 113.001 189s107.167 93.5 175.5 122.5s143.833 43.5 226.5 43.5c51.333 0 101.833 -2.16699 151.5 -6.5s97.167 -9.16602 142.5 -14.499h837v-158h-723v-468h631v-157h-631v-516h733v-157zM661.999 130.998c36.667 0 73.002 1.16602 109.002 3.49902
s71 5.83301 105 10.5v1165c-34 4.66699 -69 8.33398 -105 11.001s-73 4 -111 4c-56.667 0 -107.834 -9.5 -153.501 -28.5s-84.5 -47.167 -116.5 -84.5s-56.667 -83.5 -74 -138.5s-26 -118.833 -26 -191.5v-306c0 -72.667 8.66699 -136.667 26 -192
s42.166 -101.833 74.499 -139.5s71.5 -66 117.5 -85s97.333 -28.5 154 -28.5z" />
    <glyph glyph-name="oe" unicode="&#x153;" horiz-adv-x="1860" 
d="M97 551c0 78.667 10.999 151.502 32.999 218.502s53.667 125.167 95 174.5s91.833 88 151.5 116s127.167 42 202.5 42c91.333 0 170.5 -19.5 237.5 -58.5s120.833 -91.833 161.5 -158.5c43.333 68 97.666 121.167 162.999 159.5s135.333 57.5 210 57.5
c74 0 138.667 -12 194 -36s101.333 -57.333 138 -100s64 -93.5 82 -152.5s27 -123.833 27 -194.5v-122h-718c2 -51.333 9.83301 -99.333 23.5 -144s33.334 -83.5 59.001 -116.5s57 -59 94 -78s79.833 -28.5 128.5 -28.5c72.667 0 133.834 10.5 183.501 31.5
s91.167 46.5 124.5 76.5l74 -126c-16.667 -16 -36.667 -31.833 -60 -47.5s-50.833 -29.834 -82.5 -42.501s-67.334 -22.834 -107.001 -30.501s-83.834 -11.5 -132.501 -11.5c-90 0 -169.167 18.667 -237.5 56s-123.5 89.333 -165.5 156
c-41.333 -66 -95.166 -117.833 -161.499 -155.5s-144.166 -56.5 -233.499 -56.5c-76 0 -144 13.833 -204 41.5s-110.667 66 -152 115s-73 107 -95 174s-33 139.833 -33 218.5v22zM281.999 529.002c0 -54 5.83105 -105 17.498 -153s29.834 -90.333 54.501 -127
s55.834 -65.667 93.501 -87s82.167 -32 133.5 -32c50.667 0 94.667 10.667 132 32s68.333 50.333 93 87s42.834 79 54.501 127s17.5 99 17.5 153v22c0 53.333 -6 104.166 -18 152.499s-30.167 90.666 -54.5 126.999s-55.333 65.333 -93 87s-82.167 32.5 -133.5 32.5
s-95.5 -10.833 -132.5 -32.5s-67.833 -50.667 -92.5 -87s-42.834 -78.666 -54.501 -126.999s-17.5 -99.166 -17.5 -152.499v-22zM1351 950.002c-35.333 0 -67.998 -7.66602 -97.998 -22.999s-56.833 -36.333 -80.5 -63s-43.334 -58.5 -59.001 -95.5
s-26.834 -76.833 -33.501 -119.5h526v26c0 36 -5 70.667 -15 104s-25.5 62.666 -46.5 87.999s-47.5 45.5 -79.5 60.5s-70 22.5 -114 22.5z" />
    <glyph glyph-name="Racute" unicode="&#x154;" horiz-adv-x="1261" 
d="M703 589h-342v-589h-193v1456h482c164 0 290.167 -37.333 378.5 -112s132.5 -183.334 132.5 -326.001c0 -90.667 -24.5 -169.667 -73.5 -237s-117.167 -117.666 -204.5 -150.999l342 -618v-12h-206zM361 746l295 0.000976562c52 0 97.5 7.16699 136.5 21.5
s71.5 33.666 97.5 57.999s45.5 53 58.5 86s19.5 68.5 19.5 106.5c0 42 -6.16699 80.167 -18.5 114.5s-31.5 63.833 -57.5 88.5s-59 43.667 -99 57s-87.667 20 -143 20h-289v-552zM700 1844h224l-268 -294h-149z" />
    <glyph glyph-name="racute" unicode="&#x155;" horiz-adv-x="693" 
d="M663 916c-16 2.66699 -30.832 4.5 -44.499 5.5s-29.167 1.5 -46.5 1.5c-64 0 -116.167 -14 -156.5 -42s-70.5 -65.667 -90.5 -113v-768h-185v1082h180l3 -125c28 44.667 63 80 105 106s93 39 153 39c13.333 0 28.666 -1.5 45.999 -4.5s29.333 -6.16699 36 -9.5v-172z
M498.001 1534h224l-268 -294h-149z" />
    <glyph glyph-name="Rcommaaccent" unicode="&#x156;" horiz-adv-x="1261" 
d="M703 589h-342v-589h-193v1456h482c164 0 290.167 -37.333 378.5 -112s132.5 -183.334 132.5 -326.001c0 -90.667 -24.5 -169.667 -73.5 -237s-117.167 -117.666 -204.5 -150.999l342 -618v-12h-206zM361 746l295 0.000976562c52 0 97.5 7.16699 136.5 21.5
s71.5 33.666 97.5 57.999s45.5 53 58.5 86s19.5 68.5 19.5 106.5c0 42 -6.16699 80.167 -18.5 114.5s-31.5 63.833 -57.5 88.5s-59 43.667 -99 57s-87.667 20 -143 20h-289v-552zM698 -181.999c0 -26.667 -3 -54.501 -9 -83.501s-15 -57.833 -27 -86.5
s-27.167 -56 -45.5 -82s-39.833 -49 -64.5 -69l-105 72c25.333 38.667 44 77.834 56 117.501s18 82.5 18 128.5v82h177v-79z" />
    <glyph glyph-name="rcommaaccent" unicode="&#x157;" horiz-adv-x="693" 
d="M663 916c-16 2.66699 -30.832 4.5 -44.499 5.5s-29.167 1.5 -46.5 1.5c-64 0 -116.167 -14 -156.5 -42s-70.5 -65.667 -90.5 -113v-768h-185v1082h180l3 -125c28 44.667 63 80 105 106s93 39 153 39c13.333 0 28.666 -1.5 45.999 -4.5s29.333 -6.16699 36 -9.5v-172z
M334.001 -182c0 -26.667 -3 -54.501 -9 -83.501s-15 -57.833 -27 -86.5s-27.167 -56 -45.5 -82s-39.833 -49 -64.5 -69l-105 72c25.333 38.667 44 77.834 56 117.501s18 82.5 18 128.5v82h177v-79z" />
    <glyph glyph-name="Rcaron" unicode="&#x158;" horiz-adv-x="1261" 
d="M703 589h-342v-589h-193v1456h482c164 0 290.167 -37.333 378.5 -112s132.5 -183.334 132.5 -326.001c0 -90.667 -24.5 -169.667 -73.5 -237s-117.167 -117.666 -204.5 -150.999l342 -618v-12h-206zM361 746l295 0.000976562c52 0 97.5 7.16699 136.5 21.5
s71.5 33.666 97.5 57.999s45.5 53 58.5 86s19.5 68.5 19.5 106.5c0 42 -6.16699 80.167 -18.5 114.5s-31.5 63.833 -57.5 88.5s-59 43.667 -99 57s-87.667 20 -143 20h-289v-552zM608 1676l150 170h160v-10l-254 -274h-113l-251 274v10h157z" />
    <glyph glyph-name="rcaron" unicode="&#x159;" horiz-adv-x="693" 
d="M663 916c-16 2.66699 -30.832 4.5 -44.499 5.5s-29.167 1.5 -46.5 1.5c-64 0 -116.167 -14 -156.5 -42s-70.5 -65.667 -90.5 -113v-768h-185v1082h180l3 -125c28 44.667 63 80 105 106s93 39 153 39c13.333 0 28.666 -1.5 45.999 -4.5s29.333 -6.16699 36 -9.5v-172z
M407.001 1366l150 170h160v-10l-254 -274h-113l-251 274v10h157z" />
    <glyph glyph-name="Sacute" unicode="&#x15a;" horiz-adv-x="1215" 
d="M945 368c0 34 -5.16895 63.9971 -15.502 89.9971s-28.666 49.833 -54.999 71.5s-61.833 42 -106.5 61s-101.334 38.5 -170.001 58.5c-72 20.667 -137.167 44.167 -195.5 70.5s-108 56.666 -149 90.999s-72.5 73.5 -94.5 117.5s-33 94.333 -33 151
s11.833 109.167 35.5 157.5s57.167 90.333 100.5 126s95.333 63.5 156 83.5s128.334 30 203.001 30c82 0 155 -12.333 219 -37s117.833 -57.334 161.5 -98.001s76.834 -87.667 99.501 -141s34 -108.333 34 -165h-193c0 40.667 -6.5 78.334 -19.5 113.001
s-32.833 64.667 -59.5 90s-60 45 -100 59s-87.333 21 -142 21c-51.333 0 -96 -6 -134 -18s-69.333 -28.5 -94 -49.5s-43 -45.833 -55 -74.5s-18 -60 -18 -94c0 -30.667 6.5 -58.667 19.5 -84s33.167 -48.666 60.5 -69.999s62.5 -41 105.5 -59s94.5 -35.333 154.5 -52
c82.667 -23.333 154 -49.166 214 -77.499s109.5 -60.5 148.5 -96.5s68 -76.333 87 -121s28.5 -95.334 28.5 -152.001c0 -59.333 -12 -113 -36 -161s-58.167 -89 -102.5 -123s-97.666 -60.167 -159.999 -78.5s-131.833 -27.5 -208.5 -27.5
c-44.667 0 -89.334 4.16699 -134.001 12.5s-87.5 20.833 -128.5 37.5s-79 37.334 -114 62.001s-65.5 53.334 -91.5 86.001s-46.333 69.334 -61 110.001s-22 85.334 -22 134.001h193c0 -50 9.83301 -92.833 29.5 -128.5s46 -65.167 79 -88.5s71 -40.5 114 -51.5
s88.167 -16.5 135.5 -16.5c101.333 0 179 20.667 233 62s81 97.666 81 168.999zM712.998 1846h224l-268 -294h-149z" />
    <glyph glyph-name="sacute" unicode="&#x15b;" horiz-adv-x="1056" 
d="M770 287c0 20 -3 38.834 -9 56.501s-17.833 34.334 -35.5 50.001s-42.834 30.167 -75.501 43.5s-75.667 25.666 -129 36.999c-60 12.667 -114 27.667 -162 45s-88.833 38.166 -122.5 62.499s-59.5 53.166 -77.5 86.499s-27 72.333 -27 117
c0 42.667 9.5 83.167 28.5 121.5s45.833 72 80.5 101s76.667 52 126 69s104.333 25.5 165 25.5c64.667 0 122.5 -8.83301 173.5 -26.5s94.333 -41.834 130 -72.501s62.834 -66.5 81.501 -107.5s28 -84.833 28 -131.5h-186c0 22 -5 44.167 -15 66.5s-24.667 42.333 -44 60
s-43 32 -71 43s-60.333 16.5 -97 16.5c-38.667 0 -71.5 -4.5 -98.5 -13.5s-49.167 -21 -66.5 -36s-30 -32 -38 -51s-12 -38.5 -12 -58.5s3.33301 -38 10 -54s19.334 -30.5 38.001 -43.5s44.167 -25 76.5 -36s74.166 -22.167 125.499 -33.5
c66 -15.333 123.333 -32.666 172 -51.999s89 -41.833 121 -67.5s55.833 -55.167 71.5 -88.5s23.5 -72 23.5 -116c0 -47.333 -9.83301 -90.666 -29.5 -129.999s-47.834 -73 -84.501 -101s-80.667 -49.833 -132 -65.5s-108.333 -23.5 -171 -23.5c-72 0 -135.5 10 -190.5 30
s-101.167 46.5 -138.5 79.5s-65.666 70.667 -84.999 113s-29 85.833 -29 130.5h185c2 -38 11.167 -69.833 27.5 -95.5s36.833 -46.5 61.5 -62.5s51.667 -27.333 81 -34s58.666 -10 87.999 -10c38 0 71.333 4 100 12s52.834 19 72.501 33s34.5 30.5 44.5 49.5
s15 39.5 15 61.5zM653 1534h224l-268 -294h-149z" />
    <glyph glyph-name="Scircumflex" unicode="&#x15c;" horiz-adv-x="1215" 
d="M945 368c0 34 -5.16895 63.9971 -15.502 89.9971s-28.666 49.833 -54.999 71.5s-61.833 42 -106.5 61s-101.334 38.5 -170.001 58.5c-72 20.667 -137.167 44.167 -195.5 70.5s-108 56.666 -149 90.999s-72.5 73.5 -94.5 117.5s-33 94.333 -33 151
s11.833 109.167 35.5 157.5s57.167 90.333 100.5 126s95.333 63.5 156 83.5s128.334 30 203.001 30c82 0 155 -12.333 219 -37s117.833 -57.334 161.5 -98.001s76.834 -87.667 99.501 -141s34 -108.333 34 -165h-193c0 40.667 -6.5 78.334 -19.5 113.001
s-32.833 64.667 -59.5 90s-60 45 -100 59s-87.333 21 -142 21c-51.333 0 -96 -6 -134 -18s-69.333 -28.5 -94 -49.5s-43 -45.833 -55 -74.5s-18 -60 -18 -94c0 -30.667 6.5 -58.667 19.5 -84s33.167 -48.666 60.5 -69.999s62.5 -41 105.5 -59s94.5 -35.333 154.5 -52
c82.667 -23.333 154 -49.166 214 -77.499s109.5 -60.5 148.5 -96.5s68 -76.333 87 -121s28.5 -95.334 28.5 -152.001c0 -59.333 -12 -113 -36 -161s-58.167 -89 -102.5 -123s-97.666 -60.167 -159.999 -78.5s-131.833 -27.5 -208.5 -27.5
c-44.667 0 -89.334 4.16699 -134.001 12.5s-87.5 20.833 -128.5 37.5s-79 37.334 -114 62.001s-65.5 53.334 -91.5 86.001s-46.333 69.334 -61 110.001s-22 85.334 -22 134.001h193c0 -50 9.83301 -92.833 29.5 -128.5s46 -65.167 79 -88.5s71 -40.5 114 -51.5
s88.167 -16.5 135.5 -16.5c101.333 0 179 20.667 233 62s81 97.666 81 168.999zM924.998 1574v-10h-153l-150 170l-149 -170h-153v12l246 272h112z" />
    <glyph glyph-name="scircumflex" unicode="&#x15d;" horiz-adv-x="1056" 
d="M770 287c0 20 -3 38.834 -9 56.501s-17.833 34.334 -35.5 50.001s-42.834 30.167 -75.501 43.5s-75.667 25.666 -129 36.999c-60 12.667 -114 27.667 -162 45s-88.833 38.166 -122.5 62.499s-59.5 53.166 -77.5 86.499s-27 72.333 -27 117
c0 42.667 9.5 83.167 28.5 121.5s45.833 72 80.5 101s76.667 52 126 69s104.333 25.5 165 25.5c64.667 0 122.5 -8.83301 173.5 -26.5s94.333 -41.834 130 -72.501s62.834 -66.5 81.501 -107.5s28 -84.833 28 -131.5h-186c0 22 -5 44.167 -15 66.5s-24.667 42.333 -44 60
s-43 32 -71 43s-60.333 16.5 -97 16.5c-38.667 0 -71.5 -4.5 -98.5 -13.5s-49.167 -21 -66.5 -36s-30 -32 -38 -51s-12 -38.5 -12 -58.5s3.33301 -38 10 -54s19.334 -30.5 38.001 -43.5s44.167 -25 76.5 -36s74.166 -22.167 125.499 -33.5
c66 -15.333 123.333 -32.666 172 -51.999s89 -41.833 121 -67.5s55.833 -55.167 71.5 -88.5s23.5 -72 23.5 -116c0 -47.333 -9.83301 -90.666 -29.5 -129.999s-47.834 -73 -84.501 -101s-80.667 -49.833 -132 -65.5s-108.333 -23.5 -171 -23.5c-72 0 -135.5 10 -190.5 30
s-101.167 46.5 -138.5 79.5s-65.666 70.667 -84.999 113s-29 85.833 -29 130.5h185c2 -38 11.167 -69.833 27.5 -95.5s36.833 -46.5 61.5 -62.5s51.667 -27.333 81 -34s58.666 -10 87.999 -10c38 0 71.333 4 100 12s52.834 19 72.501 33s34.5 30.5 44.5 49.5
s15 39.5 15 61.5zM865 1262v-10h-153l-150 170l-149 -170h-153v12l246 272h112z" />
    <glyph glyph-name="Scedilla" unicode="&#x15e;" horiz-adv-x="1215" 
d="M945 368c0 34 -5.16895 63.9971 -15.502 89.9971s-28.666 49.833 -54.999 71.5s-61.833 42 -106.5 61s-101.334 38.5 -170.001 58.5c-72 20.667 -137.167 44.167 -195.5 70.5s-108 56.666 -149 90.999s-72.5 73.5 -94.5 117.5s-33 94.333 -33 151
s11.833 109.167 35.5 157.5s57.167 90.333 100.5 126s95.333 63.5 156 83.5s128.334 30 203.001 30c82 0 155 -12.333 219 -37s117.833 -57.334 161.5 -98.001s76.834 -87.667 99.501 -141s34 -108.333 34 -165h-193c0 40.667 -6.5 78.334 -19.5 113.001
s-32.833 64.667 -59.5 90s-60 45 -100 59s-87.333 21 -142 21c-51.333 0 -96 -6 -134 -18s-69.333 -28.5 -94 -49.5s-43 -45.833 -55 -74.5s-18 -60 -18 -94c0 -30.667 6.5 -58.667 19.5 -84s33.167 -48.666 60.5 -69.999s62.5 -41 105.5 -59s94.5 -35.333 154.5 -52
c82.667 -23.333 154 -49.166 214 -77.499s109.5 -60.5 148.5 -96.5s68 -76.333 87 -121s28.5 -95.334 28.5 -152.001c0 -59.333 -12 -113 -36 -161s-58.167 -89 -102.5 -123s-97.666 -60.167 -159.999 -78.5s-131.833 -27.5 -208.5 -27.5
c-44.667 0 -89.334 4.16699 -134.001 12.5s-87.5 20.833 -128.5 37.5s-79 37.334 -114 62.001s-65.5 53.334 -91.5 86.001s-46.333 69.334 -61 110.001s-22 85.334 -22 134.001h193c0 -50 9.83301 -92.833 29.5 -128.5s46 -65.167 79 -88.5s71 -40.5 114 -51.5
s88.167 -16.5 135.5 -16.5c101.333 0 179 20.667 233 62s81 97.666 81 168.999zM699.998 -0.00292969l-12 -51.998c18.667 -3.33301 37.167 -8.83301 55.5 -16.5s34.833 -18.334 49.5 -32.001s26.334 -30.667 35.001 -51s13 -44.833 13 -73.5
c0 -31.333 -6.5 -59.833 -19.5 -85.5s-32.333 -47.834 -58 -66.501s-57.334 -33 -95.001 -43s-81.167 -15 -130.5 -15l-7 107c22.667 0 44.167 1.83301 64.5 5.5s38 9.5 53 17.5s26.833 18.333 35.5 31s13 27.667 13 45c0 16.667 -3.16699 30.5 -9.5 41.5s-16 20 -29 27
s-29.833 12.5 -50.5 16.5s-45 7.33301 -73 10l32 134h133z" />
    <glyph glyph-name="scedilla" unicode="&#x15f;" horiz-adv-x="1056" 
d="M770 287c0 20 -3 38.834 -9 56.501s-17.833 34.334 -35.5 50.001s-42.834 30.167 -75.501 43.5s-75.667 25.666 -129 36.999c-60 12.667 -114 27.667 -162 45s-88.833 38.166 -122.5 62.499s-59.5 53.166 -77.5 86.499s-27 72.333 -27 117
c0 42.667 9.5 83.167 28.5 121.5s45.833 72 80.5 101s76.667 52 126 69s104.333 25.5 165 25.5c64.667 0 122.5 -8.83301 173.5 -26.5s94.333 -41.834 130 -72.501s62.834 -66.5 81.501 -107.5s28 -84.833 28 -131.5h-186c0 22 -5 44.167 -15 66.5s-24.667 42.333 -44 60
s-43 32 -71 43s-60.333 16.5 -97 16.5c-38.667 0 -71.5 -4.5 -98.5 -13.5s-49.167 -21 -66.5 -36s-30 -32 -38 -51s-12 -38.5 -12 -58.5s3.33301 -38 10 -54s19.334 -30.5 38.001 -43.5s44.167 -25 76.5 -36s74.166 -22.167 125.499 -33.5
c66 -15.333 123.333 -32.666 172 -51.999s89 -41.833 121 -67.5s55.833 -55.167 71.5 -88.5s23.5 -72 23.5 -116c0 -47.333 -9.83301 -90.666 -29.5 -129.999s-47.834 -73 -84.501 -101s-80.667 -49.833 -132 -65.5s-108.333 -23.5 -171 -23.5c-72 0 -135.5 10 -190.5 30
s-101.167 46.5 -138.5 79.5s-65.666 70.667 -84.999 113s-29 85.833 -29 130.5h185c2 -38 11.167 -69.833 27.5 -95.5s36.833 -46.5 61.5 -62.5s51.667 -27.333 81 -34s58.666 -10 87.999 -10c38 0 71.333 4 100 12s52.834 19 72.501 33s34.5 30.5 44.5 49.5
s15 39.5 15 61.5zM634 -7.99902l-12 -51.998c18.667 -3.33301 37.167 -8.83301 55.5 -16.5s34.833 -18.334 49.5 -32.001s26.334 -30.667 35.001 -51s13 -44.833 13 -73.5c0 -31.333 -6.5 -59.833 -19.5 -85.5s-32.333 -47.834 -58 -66.501s-57.334 -33 -95.001 -43
s-81.167 -15 -130.5 -15l-7 107c22.667 0 44.167 1.83301 64.5 5.5s38 9.5 53 17.5s26.833 18.333 35.5 31s13 27.667 13 45c0 16.667 -3.16699 30.5 -9.5 41.5s-16 20 -29 27s-29.833 12.5 -50.5 16.5s-45 7.33301 -73 10l32 134h133z" />
    <glyph glyph-name="Scaron" unicode="&#x160;" horiz-adv-x="1215" 
d="M945 368c0 34 -5.16895 63.9971 -15.502 89.9971s-28.666 49.833 -54.999 71.5s-61.833 42 -106.5 61s-101.334 38.5 -170.001 58.5c-72 20.667 -137.167 44.167 -195.5 70.5s-108 56.666 -149 90.999s-72.5 73.5 -94.5 117.5s-33 94.333 -33 151
s11.833 109.167 35.5 157.5s57.167 90.333 100.5 126s95.333 63.5 156 83.5s128.334 30 203.001 30c82 0 155 -12.333 219 -37s117.833 -57.334 161.5 -98.001s76.834 -87.667 99.501 -141s34 -108.333 34 -165h-193c0 40.667 -6.5 78.334 -19.5 113.001
s-32.833 64.667 -59.5 90s-60 45 -100 59s-87.333 21 -142 21c-51.333 0 -96 -6 -134 -18s-69.333 -28.5 -94 -49.5s-43 -45.833 -55 -74.5s-18 -60 -18 -94c0 -30.667 6.5 -58.667 19.5 -84s33.167 -48.666 60.5 -69.999s62.5 -41 105.5 -59s94.5 -35.333 154.5 -52
c82.667 -23.333 154 -49.166 214 -77.499s109.5 -60.5 148.5 -96.5s68 -76.333 87 -121s28.5 -95.334 28.5 -152.001c0 -59.333 -12 -113 -36 -161s-58.167 -89 -102.5 -123s-97.666 -60.167 -159.999 -78.5s-131.833 -27.5 -208.5 -27.5
c-44.667 0 -89.334 4.16699 -134.001 12.5s-87.5 20.833 -128.5 37.5s-79 37.334 -114 62.001s-65.5 53.334 -91.5 86.001s-46.333 69.334 -61 110.001s-22 85.334 -22 134.001h193c0 -50 9.83301 -92.833 29.5 -128.5s46 -65.167 79 -88.5s71 -40.5 114 -51.5
s88.167 -16.5 135.5 -16.5c101.333 0 179 20.667 233 62s81 97.666 81 168.999zM620.998 1678l150 170h160v-10l-254 -274h-113l-251 274v10h157z" />
    <glyph glyph-name="scaron" unicode="&#x161;" horiz-adv-x="1056" 
d="M770 287c0 20 -3 38.834 -9 56.501s-17.833 34.334 -35.5 50.001s-42.834 30.167 -75.501 43.5s-75.667 25.666 -129 36.999c-60 12.667 -114 27.667 -162 45s-88.833 38.166 -122.5 62.499s-59.5 53.166 -77.5 86.499s-27 72.333 -27 117
c0 42.667 9.5 83.167 28.5 121.5s45.833 72 80.5 101s76.667 52 126 69s104.333 25.5 165 25.5c64.667 0 122.5 -8.83301 173.5 -26.5s94.333 -41.834 130 -72.501s62.834 -66.5 81.501 -107.5s28 -84.833 28 -131.5h-186c0 22 -5 44.167 -15 66.5s-24.667 42.333 -44 60
s-43 32 -71 43s-60.333 16.5 -97 16.5c-38.667 0 -71.5 -4.5 -98.5 -13.5s-49.167 -21 -66.5 -36s-30 -32 -38 -51s-12 -38.5 -12 -58.5s3.33301 -38 10 -54s19.334 -30.5 38.001 -43.5s44.167 -25 76.5 -36s74.166 -22.167 125.499 -33.5
c66 -15.333 123.333 -32.666 172 -51.999s89 -41.833 121 -67.5s55.833 -55.167 71.5 -88.5s23.5 -72 23.5 -116c0 -47.333 -9.83301 -90.666 -29.5 -129.999s-47.834 -73 -84.501 -101s-80.667 -49.833 -132 -65.5s-108.333 -23.5 -171 -23.5c-72 0 -135.5 10 -190.5 30
s-101.167 46.5 -138.5 79.5s-65.666 70.667 -84.999 113s-29 85.833 -29 130.5h185c2 -38 11.167 -69.833 27.5 -95.5s36.833 -46.5 61.5 -62.5s51.667 -27.333 81 -34s58.666 -10 87.999 -10c38 0 71.333 4 100 12s52.834 19 72.501 33s34.5 30.5 44.5 49.5
s15 39.5 15 61.5zM561 1366l150 170h160v-10l-254 -274h-113l-251 274v10h157z" />
    <glyph glyph-name="uni0162" unicode="&#x162;" horiz-adv-x="1222" 
d="M1175 1298h-468v-1298h-191v1298h-467v158h1126v-158zM685 0l-12 -51.998c18.667 -3.33301 37.167 -8.83301 55.5 -16.5s34.833 -18.334 49.5 -32.001s26.334 -30.667 35.001 -51s13 -44.833 13 -73.5c0 -31.333 -6.5 -59.833 -19.5 -85.5s-32.333 -47.834 -58 -66.501
s-57.334 -33 -95.001 -43s-81.167 -15 -130.5 -15l-7 107c22.667 0 44.167 1.83301 64.5 5.5s38 9.5 53 17.5s26.833 18.333 35.5 31s13 27.667 13 45c0 16.667 -3.16699 30.5 -9.5 41.5s-16 20 -29 27s-29.833 12.5 -50.5 16.5s-45 7.33301 -73 10l32 134h133z" />
    <glyph glyph-name="uni0163" unicode="&#x163;" horiz-adv-x="669" 
d="M391 1344v-262.001h202v-143h-202v-671c0 -28 3.33301 -50.5 10 -67.5s15.5 -30.167 26.5 -39.5s23.667 -15.5 38 -18.5s29.166 -4.5 44.499 -4.5s31.5 1.5 48.5 4.5s30.167 5.5 39.5 7.5v-150c-14.667 -4 -33.667 -8.33301 -57 -13s-51.666 -7 -84.999 -7
c-34 0 -66.167 4.83301 -96.5 14.5s-56.833 25.834 -79.5 48.501s-40.667 52.5 -54 89.5s-20 82.5 -20 136.5v670h-197v143h197v262h185zM524 -0.000976562l-12 -51.998c18.667 -3.33301 37.167 -8.83301 55.5 -16.5s34.833 -18.334 49.5 -32.001s26.334 -30.667 35.001 -51
s13 -44.833 13 -73.5c0 -31.333 -6.5 -59.833 -19.5 -85.5s-32.333 -47.834 -58 -66.501s-57.334 -33 -95.001 -43s-81.167 -15 -130.5 -15l-7 107c22.667 0 44.167 1.83301 64.5 5.5s38 9.5 53 17.5s26.833 18.333 35.5 31s13 27.667 13 45
c0 16.667 -3.16699 30.5 -9.5 41.5s-16 20 -29 27s-29.833 12.5 -50.5 16.5s-45 7.33301 -73 10l32 134h133z" />
    <glyph glyph-name="Tcaron" unicode="&#x164;" horiz-adv-x="1222" 
d="M1175 1298h-468v-1298h-191v1298h-467v158h1126v-158zM610 1676l150 170h160v-10l-254 -274h-113l-251 274v10h157z" />
    <glyph glyph-name="tcaron" unicode="&#x165;" horiz-adv-x="709" 
d="M391 1344v-262.001h202v-143h-202v-671c0 -28 3.33301 -50.5 10 -67.5s15.5 -30.167 26.5 -39.5s23.667 -15.5 38 -18.5s29.166 -4.5 44.499 -4.5s31.5 1.5 48.5 4.5s30.167 5.5 39.5 7.5v-150c-14.667 -4 -33.667 -8.33301 -57 -13s-51.666 -7 -84.999 -7
c-34 0 -66.167 4.83301 -96.5 14.5s-56.833 25.834 -79.5 48.501s-40.667 52.5 -54 89.5s-20 82.5 -20 136.5v670h-197v143h197v262h185zM794 1527c0 -30.667 -3.83203 -62.5 -11.499 -95.5s-19 -65.5 -34 -97.5s-33.167 -62.5 -54.5 -91.5s-46 -54.833 -74 -77.5l-105 72
c31.333 44 55.166 89.167 71.499 135.5s24.5 96.833 24.5 151.5v131h183v-128z" />
    <glyph glyph-name="Tbar" unicode="&#x166;" horiz-adv-x="1222" 
d="M938 823h-231v-823h-191v823h-214v151h214v324h-467v158h1126v-158h-468v-324h231v-151z" />
    <glyph glyph-name="tbar" unicode="&#x167;" horiz-adv-x="669" 
d="M391 1344v-262.001h202v-143h-202v-186h233v-151h-233v-334c0 -28 3.33301 -50.5 10 -67.5s15.5 -30.167 26.5 -39.5s23.667 -15.5 38 -18.5s29.166 -4.5 44.499 -4.5s31.5 1.5 48.5 4.5s30.167 5.5 39.5 7.5v-150c-14.667 -4 -33.667 -8.33301 -57 -13
s-51.666 -7 -84.999 -7c-34 0 -66.167 4.83301 -96.5 14.5s-56.833 25.834 -79.5 48.501s-40.667 52.5 -54 89.5s-20 82.5 -20 136.5v333h-218v151h218v186h-197v143h197v262h185z" />
    </font>
</defs>
</svg>
